<svg xmlns="http://www.w3.org/2000/svg" version="1.1" width="810.7mm" height="350.7mm" viewBox = " 0 0 2872.5614170000003 1242.638817" >
<!-- Front--> 
<g transform="translate(22.5000185, 22.5000185) " > 
<polygon style="stroke:#000000; fill:none; stroke-width:0.90000074" points="21.25986, 0 54.921305, 0 54.921305, 21.25986 76.889827, 21.25986 76.889827, 25.157501 72.4606895, 25.157501 72.4606895, 34.015776 76.889827, 34.015776 76.889827, 42.874050999999994 87.874088, 42.874050999999994 87.874088, 34.015776 92.3032255, 34.015776 92.3032255, 25.157501 87.874088, 25.157501 87.874088, 21.25986 109.84261, 21.25986 109.84261, 0 152.36233, 0 152.36233, 21.25986 194.88205, 21.25986 194.88205, 0 237.40177, 0 237.40177, 21.25986 279.92149, 21.25986 279.92149, 0 322.44121, 0 322.44121, 21.25986 364.96092999999996, 21.25986 364.96092999999996, 0 407.48064999999997, 0 407.48064999999997, 21.25986 450.00037, 21.25986 450.00037, 0 492.52009, 0 492.52009, 21.25986 535.03981, 21.25986 535.03981, 0 577.55953, 0 577.55953, 21.25986 620.07925, 21.25986 620.07925, 0 662.59897, 0 662.59897, 21.25986 705.11869, 21.25986 705.11869, 0 747.63841, 0 747.63841, 21.25986 790.15813, 21.25986 790.15813, 0 832.67785, 0 832.67785, 21.25986 854.6463719999999, 21.25986 854.6463719999999, 25.157501 850.2172344999999, 25.157501 850.2172344999999, 34.015776 854.6463719999999, 34.015776 854.6463719999999, 42.874050999999994 865.630633, 42.874050999999994 865.630633, 34.015776 870.0597705, 34.015776 870.0597705, 25.157501 865.630633, 25.157501 865.630633, 21.25986 887.599155, 21.25986 887.599155, 0 921.2606, 0 921.2606, 53.14965 942.52046, 53.14965 942.52046, 73.1693515 929.410213, 73.1693515 929.410213, 86.27959849999999 942.52046, 86.27959849999999 942.52046, 106.2993 921.2606, 106.2993 921.2606, 148.81902 942.52046, 148.81902 942.52046, 168.8387215 929.410213, 168.8387215 929.410213, 181.9489685 942.52046, 181.9489685 942.52046, 201.96867 921.2606, 201.96867 921.2606, 255.11831999999998 887.599155, 255.11831999999998 887.599155, 233.85845999999998 865.630633, 233.85845999999998 865.630633, 229.960819 870.0597705, 229.960819 870.0597705, 221.10254399999997 865.630633, 221.10254399999997 865.630633, 212.24426899999997 854.6463719999999, 212.24426899999997 854.6463719999999, 221.10254399999997 850.2172344999999, 221.10254399999997 850.2172344999999, 229.960819 854.6463719999999, 229.960819 854.6463719999999, 233.85845999999998 832.67785, 233.85845999999998 832.67785, 255.11831999999998 790.15813, 255.11831999999998 790.15813, 233.85845999999998 747.63841, 233.85845999999998 747.63841, 255.11831999999998 705.11869, 255.11831999999998 705.11869, 233.85845999999998 662.59897, 233.85845999999998 662.59897, 255.11831999999998 620.07925, 255.11831999999998 620.07925, 233.85845999999998 577.55953, 233.85845999999998 577.55953, 255.11831999999998 535.03981, 255.11831999999998 535.03981, 233.85845999999998 492.52009, 233.85845999999998 492.52009, 255.11831999999998 450.00037, 255.11831999999998 450.00037, 233.85845999999998 407.48064999999997, 233.85845999999998 407.48064999999997, 255.11831999999998 364.96092999999996, 255.11831999999998 364.96092999999996, 233.85845999999998 322.44121, 233.85845999999998 322.44121, 255.11831999999998 279.92149, 255.11831999999998 279.92149, 233.85845999999998 237.40177, 233.85845999999998 237.40177, 255.11831999999998 194.88205, 255.11831999999998 194.88205, 233.85845999999998 152.36233, 233.85845999999998 152.36233, 255.11831999999998 109.84261, 255.11831999999998 109.84261, 233.85845999999998 87.874088, 233.85845999999998 87.874088, 229.960819 92.3032255, 229.960819 92.3032255, 221.10254399999997 87.874088, 221.10254399999997 87.874088, 212.24426899999997 76.889827, 212.24426899999997 76.889827, 221.10254399999997 72.4606895, 221.10254399999997 72.4606895, 229.960819 76.889827, 229.960819 76.889827, 233.85845999999998 54.921305, 233.85845999999998 54.921305, 255.11831999999998 21.25986, 255.11832 21.25986, 201.96867 0, 201.96867 0, 181.9489685 13.110247000000001, 181.9489685 13.110247000000001, 168.8387215 0, 168.8387215 0, 148.81902 21.25986, 148.81902 21.25986, 106.2993 0, 106.2993 0, 86.27959849999999 13.110247000000001, 86.27959849999999 13.110247000000001, 73.1693515 0, 73.1693515 0, 53.14965 21.25986, 53.14965 "/> 
</g>
<!-- Back--> 
<g transform="translate(965.0204785000001, 22.5000185) " > 
<polygon style="stroke:#000000; fill:none; stroke-width:0.90000074" points="21.25986, 0 54.921305, 0 54.921305, 21.25986 76.889827, 21.25986 76.889827, 25.157501 72.4606895, 25.157501 72.4606895, 34.015776 76.889827, 34.015776 76.889827, 42.874050999999994 87.874088, 42.874050999999994 87.874088, 34.015776 92.3032255, 34.015776 92.3032255, 25.157501 87.874088, 25.157501 87.874088, 21.25986 109.84261, 21.25986 109.84261, 0 152.36233, 0 152.36233, 21.25986 194.88205, 21.25986 194.88205, 0 237.40177, 0 237.40177, 21.25986 279.92149, 21.25986 279.92149, 0 322.44121, 0 322.44121, 21.25986 364.96092999999996, 21.25986 364.96092999999996, 0 407.48064999999997, 0 407.48064999999997, 21.25986 450.00037, 21.25986 450.00037, 0 492.52009, 0 492.52009, 21.25986 535.03981, 21.25986 535.03981, 0 577.55953, 0 577.55953, 21.25986 620.07925, 21.25986 620.07925, 0 662.59897, 0 662.59897, 21.25986 705.11869, 21.25986 705.11869, 0 747.63841, 0 747.63841, 21.25986 790.15813, 21.25986 790.15813, 0 832.67785, 0 832.67785, 21.25986 854.6463719999999, 21.25986 854.6463719999999, 25.157501 850.2172344999999, 25.157501 850.2172344999999, 34.015776 854.6463719999999, 34.015776 854.6463719999999, 42.874050999999994 865.630633, 42.874050999999994 865.630633, 34.015776 870.0597705, 34.015776 870.0597705, 25.157501 865.630633, 25.157501 865.630633, 21.25986 887.599155, 21.25986 887.599155, 0 921.2606, 0 921.2606, 53.14965 942.52046, 53.14965 942.52046, 73.1693515 929.410213, 73.1693515 929.410213, 86.27959849999999 942.52046, 86.27959849999999 942.52046, 106.2993 921.2606, 106.2993 921.2606, 148.81902 942.52046, 148.81902 942.52046, 168.8387215 929.410213, 168.8387215 929.410213, 181.9489685 942.52046, 181.9489685 942.52046, 201.96867 921.2606, 201.96867 921.2606, 255.11831999999998 887.599155, 255.11831999999998 887.599155, 233.85845999999998 865.630633, 233.85845999999998 865.630633, 229.960819 870.0597705, 229.960819 870.0597705, 221.10254399999997 865.630633, 221.10254399999997 865.630633, 212.24426899999997 854.6463719999999, 212.24426899999997 854.6463719999999, 221.10254399999997 850.2172344999999, 221.10254399999997 850.2172344999999, 229.960819 854.6463719999999, 229.960819 854.6463719999999, 233.85845999999998 832.67785, 233.85845999999998 832.67785, 255.11831999999998 790.15813, 255.11831999999998 790.15813, 233.85845999999998 747.63841, 233.85845999999998 747.63841, 255.11831999999998 705.11869, 255.11831999999998 705.11869, 233.85845999999998 662.59897, 233.85845999999998 662.59897, 255.11831999999998 620.07925, 255.11831999999998 620.07925, 233.85845999999998 577.55953, 233.85845999999998 577.55953, 255.11831999999998 535.03981, 255.11831999999998 535.03981, 233.85845999999998 492.52009, 233.85845999999998 492.52009, 255.11831999999998 450.00037, 255.11831999999998 450.00037, 233.85845999999998 407.48064999999997, 233.85845999999998 407.48064999999997, 255.11831999999998 364.96092999999996, 255.11831999999998 364.96092999999996, 233.85845999999998 322.44121, 233.85845999999998 322.44121, 255.11831999999998 279.92149, 255.11831999999998 279.92149, 233.85845999999998 237.40177, 233.85845999999998 237.40177, 255.11831999999998 194.88205, 255.11831999999998 194.88205, 233.85845999999998 152.36233, 233.85845999999998 152.36233, 255.11831999999998 109.84261, 255.11831999999998 109.84261, 233.85845999999998 87.874088, 233.85845999999998 87.874088, 229.960819 92.3032255, 229.960819 92.3032255, 221.10254399999997 87.874088, 221.10254399999997 87.874088, 212.24426899999997 76.889827, 212.24426899999997 76.889827, 221.10254399999997 72.4606895, 221.10254399999997 72.4606895, 229.960819 76.889827, 229.960819 76.889827, 233.85845999999998 54.921305, 233.85845999999998 54.921305, 255.11831999999998 21.25986, 255.11832 21.25986, 201.96867 0, 201.96867 0, 181.9489685 13.110247000000001, 181.9489685 13.110247000000001, 168.8387215 0, 168.8387215 0, 148.81902 21.25986, 148.81902 21.25986, 106.2993 0, 106.2993 0, 86.27959849999999 13.110247000000001, 86.27959849999999 13.110247000000001, 73.1693515 0, 73.1693515 0, 53.14965 21.25986, 53.14965 "/> 
</g>
<!-- Left--> 
<g transform="translate(1907.5409385, 22.5000185) " > 
<polygon style="stroke:#000000; fill:none; stroke-width:0.90000074" points="0, 21.25986 54.921305, 21.25986 54.921305, 0 75.82683399999999, 0 75.82683399999999, 13.110247000000001 88.937081, 13.110247000000001 88.937081, 0 109.84261, 0 109.84261, 21.25986 152.36233, 21.25986 152.36233, 0 194.88205, 0 194.88205, 21.25986 237.40177, 21.25986 237.40177, 0 279.92149, 0 279.92149, 21.25986 322.44121, 21.25986 322.44121, 0 364.96092999999996, 0 364.96092999999996, 21.25986 407.48064999999997, 21.25986 407.48064999999997, 0 450.00037, 0 450.00037, 21.25986 492.52009, 21.25986 492.52009, 0 535.03981, 0 535.03981, 21.25986 577.55953, 21.25986 577.55953, 0 620.07925, 0 620.07925, 21.25986 662.59897, 21.25986 662.59897, 0 705.11869, 0 705.11869, 21.25986 747.63841, 21.25986 747.63841, 0 790.15813, 0 790.15813, 21.25986 832.67785, 21.25986 832.67785, 0 853.5833789999999, 0 853.5833789999999, 13.110247000000001 866.693626, 13.110247000000001 866.693626, 0 887.599155, 0 887.599155, 21.25986 942.52046, 21.25986 942.52046, 53.14965 921.2606, 53.14965 921.2606, 74.2323445 917.3629589999999, 74.2323445 917.3629589999999, 69.803207 908.504684, 69.803207 908.504684, 74.2323445 899.646409, 74.2323445 899.646409, 85.2166055 908.504684, 85.2166055 908.504684, 89.645743 917.3629589999999, 89.645743 917.3629589999999, 85.2166055 921.2606, 85.2166055 921.2606, 106.2993 942.52046, 106.2993 942.52046, 148.81902 921.2606, 148.81902 921.2606, 169.9017145 917.3629589999999, 169.9017145 917.3629589999999, 165.472577 908.504684, 165.472577 908.504684, 169.9017145 899.646409, 169.9017145 899.646409, 180.8859755 908.504684, 180.8859755 908.504684, 185.315113 917.3629589999999, 185.315113 917.3629589999999, 180.8859755 921.2606, 180.8859755 921.2606, 201.96867 942.52046, 201.96867 942.52046, 233.85845999999998 887.599155, 233.85845999999998 887.599155, 255.11831999999998 866.693626, 255.11831999999998 866.693626, 242.00807299999997 853.5833789999999, 242.00807299999997 853.5833789999999, 255.11831999999998 832.67785, 255.11831999999998 832.67785, 233.85845999999998 790.15813, 233.85845999999998 790.15813, 255.11831999999998 747.63841, 255.11831999999998 747.63841, 233.85845999999998 705.11869, 233.85845999999998 705.11869, 255.11831999999998 662.59897, 255.11831999999998 662.59897, 233.85845999999998 620.07925, 233.85845999999998 620.07925, 255.11831999999998 577.55953, 255.11831999999998 577.55953, 233.85845999999998 535.03981, 233.85845999999998 535.03981, 255.11831999999998 492.52009, 255.11831999999998 492.52009, 233.85845999999998 450.00037, 233.85845999999998 450.00037, 255.11831999999998 407.48064999999997, 255.11831999999998 407.48064999999997, 233.85845999999998 364.96092999999996, 233.85845999999998 364.96092999999996, 255.11831999999998 322.44121, 255.11831999999998 322.44121, 233.85845999999998 279.92149, 233.85845999999998 279.92149, 255.11831999999998 237.40177, 255.11831999999998 237.40177, 233.85845999999998 194.88205, 233.85845999999998 194.88205, 255.11831999999998 152.36233, 255.11831999999998 152.36233, 233.85845999999998 109.84261, 233.85845999999998 109.84261, 255.11831999999998 88.937081, 255.11831999999998 88.937081, 242.00807299999997 75.82683399999999, 242.00807299999997 75.82683399999999, 255.11831999999998 54.921305, 255.11831999999998 54.921305, 233.85845999999998 0, 233.85846 0, 201.96867 21.25986, 201.96867 21.25986, 180.8859755 25.157501, 180.8859755 25.157501, 185.315113 34.015776, 185.315113 34.015776, 180.8859755 42.874050999999994, 180.8859755 42.874050999999994, 169.9017145 34.015776, 169.9017145 34.015776, 165.472577 25.157501, 165.472577 25.157501, 169.9017145 21.25986, 169.9017145 21.25986, 148.81902 0, 148.81902 0, 106.2993 21.25986, 106.2993 21.25986, 85.2166055 25.157501, 85.2166055 25.157501, 89.645743 34.015776, 89.645743 34.015776, 85.2166055 42.874050999999994, 85.2166055 42.874050999999994, 74.2323445 34.015776, 74.2323445 34.015776, 69.803207 25.157501, 69.803207 25.157501, 74.2323445 21.25986, 74.2323445 21.25986, 53.14965 0, 53.14965 "/> 
</g>
<!-- Right--> 
<g transform="translate(1907.5409385, 277.6183385) " > 
<polygon style="stroke:#000000; fill:none; stroke-width:0.90000074" points="0, 21.25986 54.921305, 21.25986 54.921305, 0 75.82683399999999, 0 75.82683399999999, 13.110247000000001 88.937081, 13.110247000000001 88.937081, 0 109.84261, 0 109.84261, 21.25986 152.36233, 21.25986 152.36233, 0 194.88205, 0 194.88205, 21.25986 237.40177, 21.25986 237.40177, 0 279.92149, 0 279.92149, 21.25986 322.44121, 21.25986 322.44121, 0 364.96092999999996, 0 364.96092999999996, 21.25986 407.48064999999997, 21.25986 407.48064999999997, 0 450.00037, 0 450.00037, 21.25986 492.52009, 21.25986 492.52009, 0 535.03981, 0 535.03981, 21.25986 577.55953, 21.25986 577.55953, 0 620.07925, 0 620.07925, 21.25986 662.59897, 21.25986 662.59897, 0 705.11869, 0 705.11869, 21.25986 747.63841, 21.25986 747.63841, 0 790.15813, 0 790.15813, 21.25986 832.67785, 21.25986 832.67785, 0 853.5833789999999, 0 853.5833789999999, 13.110247000000001 866.693626, 13.110247000000001 866.693626, 0 887.599155, 0 887.599155, 21.25986 942.52046, 21.25986 942.52046, 53.14965 921.2606, 53.14965 921.2606, 74.2323445 917.3629589999999, 74.2323445 917.3629589999999, 69.803207 908.504684, 69.803207 908.504684, 74.2323445 899.646409, 74.2323445 899.646409, 85.2166055 908.504684, 85.2166055 908.504684, 89.645743 917.3629589999999, 89.645743 917.3629589999999, 85.2166055 921.2606, 85.2166055 921.2606, 106.2993 942.52046, 106.2993 942.52046, 148.81902 921.2606, 148.81902 921.2606, 169.9017145 917.3629589999999, 169.9017145 917.3629589999999, 165.472577 908.504684, 165.472577 908.504684, 169.9017145 899.646409, 169.9017145 899.646409, 180.8859755 908.504684, 180.8859755 908.504684, 185.315113 917.3629589999999, 185.315113 917.3629589999999, 180.8859755 921.2606, 180.8859755 921.2606, 201.96867 942.52046, 201.96867 942.52046, 233.85845999999998 887.599155, 233.85845999999998 887.599155, 255.11831999999998 866.693626, 255.11831999999998 866.693626, 242.00807299999997 853.5833789999999, 242.00807299999997 853.5833789999999, 255.11831999999998 832.67785, 255.11831999999998 832.67785, 233.85845999999998 790.15813, 233.85845999999998 790.15813, 255.11831999999998 747.63841, 255.11831999999998 747.63841, 233.85845999999998 705.11869, 233.85845999999998 705.11869, 255.11831999999998 662.59897, 255.11831999999998 662.59897, 233.85845999999998 620.07925, 233.85845999999998 620.07925, 255.11831999999998 577.55953, 255.11831999999998 577.55953, 233.85845999999998 535.03981, 233.85845999999998 535.03981, 255.11831999999998 492.52009, 255.11831999999998 492.52009, 233.85845999999998 450.00037, 233.85845999999998 450.00037, 255.11831999999998 407.48064999999997, 255.11831999999998 407.48064999999997, 233.85845999999998 364.96092999999996, 233.85845999999998 364.96092999999996, 255.11831999999998 322.44121, 255.11831999999998 322.44121, 233.85845999999998 279.92149, 233.85845999999998 279.92149, 255.11831999999998 237.40177, 255.11831999999998 237.40177, 233.85845999999998 194.88205, 233.85845999999998 194.88205, 255.11831999999998 152.36233, 255.11831999999998 152.36233, 233.85845999999998 109.84261, 233.85845999999998 109.84261, 255.11831999999998 88.937081, 255.11831999999998 88.937081, 242.00807299999997 75.82683399999999, 242.00807299999997 75.82683399999999, 255.11831999999998 54.921305, 255.11831999999998 54.921305, 233.85845999999998 0, 233.85846 0, 201.96867 21.25986, 201.96867 21.25986, 180.8859755 25.157501, 180.8859755 25.157501, 185.315113 34.015776, 185.315113 34.015776, 180.8859755 42.874050999999994, 180.8859755 42.874050999999994, 169.9017145 34.015776, 169.9017145 34.015776, 165.472577 25.157501, 165.472577 25.157501, 169.9017145 21.25986, 169.9017145 21.25986, 148.81902 0, 148.81902 0, 106.2993 21.25986, 106.2993 21.25986, 85.2166055 25.157501, 85.2166055 25.157501, 89.645743 34.015776, 89.645743 34.015776, 85.2166055 42.874050999999994, 85.2166055 42.874050999999994, 74.2323445 34.015776, 74.2323445 34.015776, 69.803207 25.157501, 69.803207 25.157501, 74.2323445 21.25986, 74.2323445 21.25986, 53.14965 0, 53.14965 "/> 
</g>
<!-- Top--> 
<g transform="translate(22.5000185, 277.6183385) " > 
<polygon style="stroke:#000000; fill:none; stroke-width:0.90000074" points="0, 21.25986 54.921305, 21.25986 54.921305, 0 75.82683399999999, 0 75.82683399999999, 13.110247000000001 88.937081, 13.110247000000001 88.937081, 0 109.84261, 0 109.84261, 21.25986 152.36233, 21.25986 152.36233, 0 194.88205, 0 194.88205, 21.25986 237.40177, 21.25986 237.40177, 0 279.92149, 0 279.92149, 21.25986 322.44121, 21.25986 322.44121, 0 364.96092999999996, 0 364.96092999999996, 21.25986 407.48064999999997, 21.25986 407.48064999999997, 0 450.00037, 0 450.00037, 21.25986 492.52009, 21.25986 492.52009, 0 535.03981, 0 535.03981, 21.25986 577.55953, 21.25986 577.55953, 0 620.07925, 0 620.07925, 21.25986 662.59897, 21.25986 662.59897, 0 705.11869, 0 705.11869, 21.25986 747.63841, 21.25986 747.63841, 0 790.15813, 0 790.15813, 21.25986 832.67785, 21.25986 832.67785, 0 853.5833789999999, 0 853.5833789999999, 13.110247000000001 866.693626, 13.110247000000001 866.693626, 0 887.599155, 0 887.599155, 21.25986 942.52046, 21.25986 942.52046, 54.921305 921.2606, 54.921305 921.2606, 76.889827 917.3629589999999, 76.889827 917.3629589999999, 72.4606895 908.504684, 72.4606895 908.504684, 76.889827 899.646409, 76.889827 899.646409, 87.874088 908.504684, 87.874088 908.504684, 92.3032255 917.3629589999999, 92.3032255 917.3629589999999, 87.874088 921.2606, 87.874088 921.2606, 109.84261 942.52046, 109.84261 942.52046, 152.36233 921.2606, 152.36233 921.2606, 194.88205 942.52046, 194.88205 942.52046, 237.40177 921.2606, 237.40177 921.2606, 279.92149 942.52046, 279.92149 942.52046, 322.44121 921.2606, 322.44121 921.2606, 364.96092999999996 942.52046, 364.96092999999996 942.52046, 407.48064999999997 921.2606, 407.48064999999997 921.2606, 450.00037 942.52046, 450.00037 942.52046, 492.52009 921.2606, 492.52009 921.2606, 535.03981 942.52046, 535.03981 942.52046, 577.55953 921.2606, 577.55953 921.2606, 620.07925 942.52046, 620.07925 942.52046, 662.59897 921.2606, 662.59897 921.2606, 705.11869 942.52046, 705.11869 942.52046, 747.63841 921.2606, 747.63841 921.2606, 790.15813 942.52046, 790.15813 942.52046, 832.67785 921.2606, 832.67785 921.2606, 854.6463719999999 917.3629589999999, 854.6463719999999 917.3629589999999, 850.2172344999999 908.504684, 850.2172344999999 908.504684, 854.6463719999999 899.646409, 854.6463719999999 899.646409, 865.630633 908.504684, 865.630633 908.504684, 870.0597705 917.3629589999999, 870.0597705 917.3629589999999, 865.630633 921.2606, 865.630633 921.2606, 887.599155 942.52046, 887.599155 942.52046, 921.2606 887.599155, 921.2606 887.599155, 942.52046 866.693626, 942.52046 866.693626, 929.410213 853.5833789999999, 929.410213 853.5833789999999, 942.52046 832.67785, 942.52046 832.67785, 921.2606 790.15813, 921.2606 790.15813, 942.52046 747.63841, 942.52046 747.63841, 921.2606 705.11869, 921.2606 705.11869, 942.52046 662.59897, 942.52046 662.59897, 921.2606 620.07925, 921.2606 620.07925, 942.52046 577.55953, 942.52046 577.55953, 921.2606 535.03981, 921.2606 535.03981, 942.52046 492.52009, 942.52046 492.52009, 921.2606 450.00037, 921.2606 450.00037, 942.52046 407.48064999999997, 942.52046 407.48064999999997, 921.2606 364.96092999999996, 921.2606 364.96092999999996, 942.52046 322.44121, 942.52046 322.44121, 921.2606 279.92149, 921.2606 279.92149, 942.52046 237.40177, 942.52046 237.40177, 921.2606 194.88205, 921.2606 194.88205, 942.52046 152.36233, 942.52046 152.36233, 921.2606 109.84261, 921.2606 109.84261, 942.52046 88.937081, 942.52046 88.937081, 929.410213 75.82683399999999, 929.410213 75.82683399999999, 942.52046 54.921305, 942.52046 54.921305, 921.2606 0, 921.2606 0, 887.599155 21.25986, 887.599155 21.25986, 865.630633 25.157501, 865.630633 25.157501, 870.0597705 34.015776, 870.0597705 34.015776, 865.630633 42.874050999999994, 865.630633 42.874050999999994, 854.6463719999999 34.015776, 854.6463719999999 34.015776, 850.2172344999999 25.157501, 850.2172344999999 25.157501, 854.6463719999999 21.25986, 854.6463719999999 21.25986, 832.67785 0, 832.67785 0, 790.15813 21.25986, 790.15813 21.25986, 747.63841 0, 747.63841 0, 705.11869 21.25986, 705.11869 21.25986, 662.59897 0, 662.59897 0, 620.07925 21.25986, 620.07925 21.25986, 577.55953 0, 577.55953 0, 535.03981 21.25986, 535.03981 21.25986, 492.52009 0, 492.52009 0, 450.00037 21.25986, 450.00037 21.25986, 407.48064999999997 0, 407.48064999999997 0, 364.96092999999996 21.25986, 364.96092999999996 21.25986, 322.44121 0, 322.44121 0, 279.92149 21.25986, 279.92149 21.25986, 237.40177 0, 237.40177 0, 194.88205 21.25986, 194.88205 21.25986, 152.36233 0, 152.36233 0, 109.84261 21.25986, 109.84261 21.25986, 87.874088 25.157501, 87.874088 25.157501, 92.3032255 34.015776, 92.3032255 34.015776, 87.874088 42.874050999999994, 87.874088 42.874050999999994, 76.889827 34.015776, 76.889827 34.015776, 72.4606895 25.157501, 72.4606895 25.157501, 76.889827 21.25986, 76.889827 21.25986, 54.921305 0, 54.921305 "/> 
</g>
<!-- Bottom--> 
<g transform="translate(965.0204785000001, 277.6183385) " > 
<polygon style="stroke:#000000; fill:none; stroke-width:0.90000074" points="0, 21.25986 54.921305, 21.25986 54.921305, 0 75.82683399999999, 0 75.82683399999999, 13.110247000000001 88.937081, 13.110247000000001 88.937081, 0 109.84261, 0 109.84261, 21.25986 152.36233, 21.25986 152.36233, 0 194.88205, 0 194.88205, 21.25986 237.40177, 21.25986 237.40177, 0 279.92149, 0 279.92149, 21.25986 322.44121, 21.25986 322.44121, 0 364.96092999999996, 0 364.96092999999996, 21.25986 407.48064999999997, 21.25986 407.48064999999997, 0 450.00037, 0 450.00037, 21.25986 492.52009, 21.25986 492.52009, 0 535.03981, 0 535.03981, 21.25986 577.55953, 21.25986 577.55953, 0 620.07925, 0 620.07925, 21.25986 662.59897, 21.25986 662.59897, 0 705.11869, 0 705.11869, 21.25986 747.63841, 21.25986 747.63841, 0 790.15813, 0 790.15813, 21.25986 832.67785, 21.25986 832.67785, 0 853.5833789999999, 0 853.5833789999999, 13.110247000000001 866.693626, 13.110247000000001 866.693626, 0 887.599155, 0 887.599155, 21.25986 942.52046, 21.25986 942.52046, 54.921305 921.2606, 54.921305 921.2606, 76.889827 917.3629589999999, 76.889827 917.3629589999999, 72.4606895 908.504684, 72.4606895 908.504684, 76.889827 899.646409, 76.889827 899.646409, 87.874088 908.504684, 87.874088 908.504684, 92.3032255 917.3629589999999, 92.3032255 917.3629589999999, 87.874088 921.2606, 87.874088 921.2606, 109.84261 942.52046, 109.84261 942.52046, 152.36233 921.2606, 152.36233 921.2606, 194.88205 942.52046, 194.88205 942.52046, 237.40177 921.2606, 237.40177 921.2606, 279.92149 942.52046, 279.92149 942.52046, 322.44121 921.2606, 322.44121 921.2606, 364.96092999999996 942.52046, 364.96092999999996 942.52046, 407.48064999999997 921.2606, 407.48064999999997 921.2606, 450.00037 942.52046, 450.00037 942.52046, 492.52009 921.2606, 492.52009 921.2606, 535.03981 942.52046, 535.03981 942.52046, 577.55953 921.2606, 577.55953 921.2606, 620.07925 942.52046, 620.07925 942.52046, 662.59897 921.2606, 662.59897 921.2606, 705.11869 942.52046, 705.11869 942.52046, 747.63841 921.2606, 747.63841 921.2606, 790.15813 942.52046, 790.15813 942.52046, 832.67785 921.2606, 832.67785 921.2606, 854.6463719999999 917.3629589999999, 854.6463719999999 917.3629589999999, 850.2172344999999 908.504684, 850.2172344999999 908.504684, 854.6463719999999 899.646409, 854.6463719999999 899.646409, 865.630633 908.504684, 865.630633 908.504684, 870.0597705 917.3629589999999, 870.0597705 917.3629589999999, 865.630633 921.2606, 865.630633 921.2606, 887.599155 942.52046, 887.599155 942.52046, 921.2606 887.599155, 921.2606 887.599155, 942.52046 866.693626, 942.52046 866.693626, 929.410213 853.5833789999999, 929.410213 853.5833789999999, 942.52046 832.67785, 942.52046 832.67785, 921.2606 790.15813, 921.2606 790.15813, 942.52046 747.63841, 942.52046 747.63841, 921.2606 705.11869, 921.2606 705.11869, 942.52046 662.59897, 942.52046 662.59897, 921.2606 620.07925, 921.2606 620.07925, 942.52046 577.55953, 942.52046 577.55953, 921.2606 535.03981, 921.2606 535.03981, 942.52046 492.52009, 942.52046 492.52009, 921.2606 450.00037, 921.2606 450.00037, 942.52046 407.48064999999997, 942.52046 407.48064999999997, 921.2606 364.96092999999996, 921.2606 364.96092999999996, 942.52046 322.44121, 942.52046 322.44121, 921.2606 279.92149, 921.2606 279.92149, 942.52046 237.40177, 942.52046 237.40177, 921.2606 194.88205, 921.2606 194.88205, 942.52046 152.36233, 942.52046 152.36233, 921.2606 109.84261, 921.2606 109.84261, 942.52046 88.937081, 942.52046 88.937081, 929.410213 75.82683399999999, 929.410213 75.82683399999999, 942.52046 54.921305, 942.52046 54.921305, 921.2606 0, 921.2606 0, 887.599155 21.25986, 887.599155 21.25986, 865.630633 25.157501, 865.630633 25.157501, 870.0597705 34.015776, 870.0597705 34.015776, 865.630633 42.874050999999994, 865.630633 42.874050999999994, 854.6463719999999 34.015776, 854.6463719999999 34.015776, 850.2172344999999 25.157501, 850.2172344999999 25.157501, 854.6463719999999 21.25986, 854.6463719999999 21.25986, 832.67785 0, 832.67785 0, 790.15813 21.25986, 790.15813 21.25986, 747.63841 0, 747.63841 0, 705.11869 21.25986, 705.11869 21.25986, 662.59897 0, 662.59897 0, 620.07925 21.25986, 620.07925 21.25986, 577.55953 0, 577.55953 0, 535.03981 21.25986, 535.03981 21.25986, 492.52009 0, 492.52009 0, 450.00037 21.25986, 450.00037 21.25986, 407.48064999999997 0, 407.48064999999997 0, 364.96092999999996 21.25986, 364.96092999999996 21.25986, 322.44121 0, 322.44121 0, 279.92149 21.25986, 279.92149 21.25986, 237.40177 0, 237.40177 0, 194.88205 21.25986, 194.88205 21.25986, 152.36233 0, 152.36233 0, 109.84261 21.25986, 109.84261 21.25986, 87.874088 25.157501, 87.874088 25.157501, 92.3032255 34.015776, 92.3032255 34.015776, 87.874088 42.874050999999994, 87.874088 42.874050999999994, 76.889827 34.015776, 76.889827 34.015776, 72.4606895 25.157501, 72.4606895 25.157501, 76.889827 21.25986, 76.889827 21.25986, 54.921305 0, 54.921305 "/> 
</g></svg>