<svg xmlns="http://www.w3.org/2000/svg" version="1.1" width="774.7mm" height="326.7mm" viewBox = " 0 0 2745.002257 1157.599377" >
<!-- Front--> 
<g transform="translate(22.5000185, 22.5000185) " > 
<polygon style="stroke:#000000; fill:none; stroke-width:0.90000074" points="21.25986, 0 65.551235, 0 65.551235, 21.25986 92.834722, 21.25986 92.834722, 25.157501 88.4055845, 25.157501 88.4055845, 34.015776 92.834722, 34.015776 92.834722, 42.874050999999994 103.818983, 42.874050999999994 103.818983, 34.015776 108.2481205, 34.015776 108.2481205, 25.157501 103.818983, 25.157501 103.818983, 21.25986 131.10247, 21.25986 131.10247, 0 173.62219000000002, 0 173.62219000000002, 21.25986 216.14191, 21.25986 216.14191, 0 258.66163, 0 258.66163, 21.25986 301.18135, 21.25986 301.18135, 0 343.70107, 0 343.70107, 21.25986 386.22078999999997, 21.25986 386.22078999999997, 0 428.74051, 0 428.74051, 21.25986 471.26023, 21.25986 471.26023, 0 513.77995, 0 513.77995, 21.25986 556.29967, 21.25986 556.29967, 0 598.81939, 0 598.81939, 21.25986 641.33911, 21.25986 641.33911, 0 683.85883, 0 683.85883, 21.25986 726.37855, 21.25986 726.37855, 0 768.89827, 0 768.89827, 21.25986 796.181757, 21.25986 796.181757, 25.157501 791.7526194999999, 25.157501 791.7526194999999, 34.015776 796.181757, 34.015776 796.181757, 42.874050999999994 807.166018, 42.874050999999994 807.166018, 34.015776 811.5951555, 34.015776 811.5951555, 25.157501 807.166018, 25.157501 807.166018, 21.25986 834.449505, 21.25986 834.449505, 0 878.74088, 0 878.74088, 42.51972 900.00074, 42.51972 900.00074, 85.03944 878.74088, 85.03944 878.74088, 100.8071695 874.8432389999999, 100.8071695 874.8432389999999, 96.378032 865.984964, 96.378032 865.984964, 100.8071695 857.1266889999999, 100.8071695 857.1266889999999, 111.7914305 865.984964, 111.7914305 865.984964, 116.220568 874.8432389999999, 116.220568 874.8432389999999, 111.7914305 878.74088, 111.7914305 878.74088, 127.55915999999999 900.00074, 127.55915999999999 900.00074, 170.07888 878.74088, 170.07888 878.74088, 212.5986 834.449505, 212.5986 834.449505, 191.33874 807.166018, 191.33874 807.166018, 187.441099 811.5951555, 187.441099 811.5951555, 178.58282400000002 807.166018, 178.58282400000002 807.166018, 169.724549 796.181757, 169.724549 796.181757, 178.58282400000002 791.7526194999999, 178.58282400000002 791.7526194999999, 187.441099 796.181757, 187.441099 796.181757, 191.33874 768.89827, 191.33874 768.89827, 212.5986 726.37855, 212.5986 726.37855, 191.33874 683.85883, 191.33874 683.85883, 212.5986 641.33911, 212.5986 641.33911, 191.33874 598.81939, 191.33874 598.81939, 212.5986 556.29967, 212.5986 556.29967, 191.33874 513.77995, 191.33874 513.77995, 212.5986 471.26023, 212.5986 471.26023, 191.33874 428.74051, 191.33874 428.74051, 212.5986 386.22078999999997, 212.5986 386.22078999999997, 191.33874 343.70107, 191.33874 343.70107, 212.5986 301.18135, 212.5986 301.18135, 191.33874 258.66163, 191.33874 258.66163, 212.5986 216.14191, 212.5986 216.14191, 191.33874 173.62219000000002, 191.33874 173.62219000000002, 212.5986 131.10247, 212.5986 131.10247, 191.33874 103.818983, 191.33874 103.818983, 187.441099 108.2481205, 187.441099 108.2481205, 178.58282400000002 103.818983, 178.58282400000002 103.818983, 169.724549 92.834722, 169.724549 92.834722, 178.58282400000002 88.4055845, 178.58282400000002 88.4055845, 187.441099 92.834722, 187.441099 92.834722, 191.33874 65.551235, 191.33874 65.551235, 212.5986 21.25986, 212.5986 21.25986, 170.07888 0, 170.07888 0, 127.55915999999999 21.25986, 127.55915999999999 21.25986, 111.7914305 25.157501, 111.7914305 25.157501, 116.220568 34.015776, 116.220568 34.015776, 111.7914305 42.874050999999994, 111.7914305 42.874050999999994, 100.8071695 34.015776, 100.8071695 34.015776, 96.378032 25.157501, 96.378032 25.157501, 100.8071695 21.25986, 100.8071695 21.25986, 85.03944 0, 85.03944 0, 42.51972 21.25986, 42.51972 "/> 
</g>
<!-- Back--> 
<g transform="translate(922.5007585000001, 22.5000185) " > 
<polygon style="stroke:#000000; fill:none; stroke-width:0.90000074" points="21.25986, 0 65.551235, 0 65.551235, 21.25986 92.834722, 21.25986 92.834722, 25.157501 88.4055845, 25.157501 88.4055845, 34.015776 92.834722, 34.015776 92.834722, 42.874050999999994 103.818983, 42.874050999999994 103.818983, 34.015776 108.2481205, 34.015776 108.2481205, 25.157501 103.818983, 25.157501 103.818983, 21.25986 131.10247, 21.25986 131.10247, 0 173.62219000000002, 0 173.62219000000002, 21.25986 216.14191, 21.25986 216.14191, 0 258.66163, 0 258.66163, 21.25986 301.18135, 21.25986 301.18135, 0 343.70107, 0 343.70107, 21.25986 386.22078999999997, 21.25986 386.22078999999997, 0 428.74051, 0 428.74051, 21.25986 471.26023, 21.25986 471.26023, 0 513.77995, 0 513.77995, 21.25986 556.29967, 21.25986 556.29967, 0 598.81939, 0 598.81939, 21.25986 641.33911, 21.25986 641.33911, 0 683.85883, 0 683.85883, 21.25986 726.37855, 21.25986 726.37855, 0 768.89827, 0 768.89827, 21.25986 796.181757, 21.25986 796.181757, 25.157501 791.7526194999999, 25.157501 791.7526194999999, 34.015776 796.181757, 34.015776 796.181757, 42.874050999999994 807.166018, 42.874050999999994 807.166018, 34.015776 811.5951555, 34.015776 811.5951555, 25.157501 807.166018, 25.157501 807.166018, 21.25986 834.449505, 21.25986 834.449505, 0 878.74088, 0 878.74088, 42.51972 900.00074, 42.51972 900.00074, 85.03944 878.74088, 85.03944 878.74088, 100.8071695 874.8432389999999, 100.8071695 874.8432389999999, 96.378032 865.984964, 96.378032 865.984964, 100.8071695 857.1266889999999, 100.8071695 857.1266889999999, 111.7914305 865.984964, 111.7914305 865.984964, 116.220568 874.8432389999999, 116.220568 874.8432389999999, 111.7914305 878.74088, 111.7914305 878.74088, 127.55915999999999 900.00074, 127.55915999999999 900.00074, 170.07888 878.74088, 170.07888 878.74088, 212.5986 834.449505, 212.5986 834.449505, 191.33874 807.166018, 191.33874 807.166018, 187.441099 811.5951555, 187.441099 811.5951555, 178.58282400000002 807.166018, 178.58282400000002 807.166018, 169.724549 796.181757, 169.724549 796.181757, 178.58282400000002 791.7526194999999, 178.58282400000002 791.7526194999999, 187.441099 796.181757, 187.441099 796.181757, 191.33874 768.89827, 191.33874 768.89827, 212.5986 726.37855, 212.5986 726.37855, 191.33874 683.85883, 191.33874 683.85883, 212.5986 641.33911, 212.5986 641.33911, 191.33874 598.81939, 191.33874 598.81939, 212.5986 556.29967, 212.5986 556.29967, 191.33874 513.77995, 191.33874 513.77995, 212.5986 471.26023, 212.5986 471.26023, 191.33874 428.74051, 191.33874 428.74051, 212.5986 386.22078999999997, 212.5986 386.22078999999997, 191.33874 343.70107, 191.33874 343.70107, 212.5986 301.18135, 212.5986 301.18135, 191.33874 258.66163, 191.33874 258.66163, 212.5986 216.14191, 212.5986 216.14191, 191.33874 173.62219000000002, 191.33874 173.62219000000002, 212.5986 131.10247, 212.5986 131.10247, 191.33874 103.818983, 191.33874 103.818983, 187.441099 108.2481205, 187.441099 108.2481205, 178.58282400000002 103.818983, 178.58282400000002 103.818983, 169.724549 92.834722, 169.724549 92.834722, 178.58282400000002 88.4055845, 178.58282400000002 88.4055845, 187.441099 92.834722, 187.441099 92.834722, 191.33874 65.551235, 191.33874 65.551235, 212.5986 21.25986, 212.5986 21.25986, 170.07888 0, 170.07888 0, 127.55915999999999 21.25986, 127.55915999999999 21.25986, 111.7914305 25.157501, 111.7914305 25.157501, 116.220568 34.015776, 116.220568 34.015776, 111.7914305 42.874050999999994, 111.7914305 42.874050999999994, 100.8071695 34.015776, 100.8071695 34.015776, 96.378032 25.157501, 96.378032 25.157501, 100.8071695 21.25986, 100.8071695 21.25986, 85.03944 0, 85.03944 0, 42.51972 21.25986, 42.51972 "/> 
</g>
<!-- Left--> 
<g transform="translate(1822.5014985, 22.5000185) " > 
<polygon style="stroke:#000000; fill:none; stroke-width:0.90000074" points="0, 21.25986 65.551235, 21.25986 65.551235, 0 91.771729, 0 91.771729, 13.110247000000001 104.88197600000001, 13.110247000000001 104.88197600000001, 0 131.10247, 0 131.10247, 21.25986 173.62219000000002, 21.25986 173.62219000000002, 0 216.14191, 0 216.14191, 21.25986 258.66163, 21.25986 258.66163, 0 301.18135, 0 301.18135, 21.25986 343.70107, 21.25986 343.70107, 0 386.22078999999997, 0 386.22078999999997, 21.25986 428.74051, 21.25986 428.74051, 0 471.26023, 0 471.26023, 21.25986 513.77995, 21.25986 513.77995, 0 556.29967, 0 556.29967, 21.25986 598.81939, 21.25986 598.81939, 0 641.33911, 0 641.33911, 21.25986 683.85883, 21.25986 683.85883, 0 726.37855, 0 726.37855, 21.25986 768.89827, 21.25986 768.89827, 0 795.1187639999999, 0 795.1187639999999, 13.110247000000001 808.229011, 13.110247000000001 808.229011, 0 834.449505, 0 834.449505, 21.25986 900.00074, 21.25986 900.00074, 42.51972 878.74088, 42.51972 878.74088, 85.03944 900.00074, 85.03944 900.00074, 99.74417650000001 886.890493, 99.74417650000001 886.890493, 112.8544235 900.00074, 112.8544235 900.00074, 127.55915999999999 878.74088, 127.55915999999999 878.74088, 170.07888 900.00074, 170.07888 900.00074, 191.33874 834.449505, 191.33874 834.449505, 212.5986 808.229011, 212.5986 808.229011, 199.48835300000002 795.1187639999999, 199.48835300000002 795.1187639999999, 212.5986 768.89827, 212.5986 768.89827, 191.33874 726.37855, 191.33874 726.37855, 212.5986 683.85883, 212.5986 683.85883, 191.33874 641.33911, 191.33874 641.33911, 212.5986 598.81939, 212.5986 598.81939, 191.33874 556.29967, 191.33874 556.29967, 212.5986 513.77995, 212.5986 513.77995, 191.33874 471.26023, 191.33874 471.26023, 212.5986 428.74051, 212.5986 428.74051, 191.33874 386.22078999999997, 191.33874 386.22078999999997, 212.5986 343.70107, 212.5986 343.70107, 191.33874 301.18135, 191.33874 301.18135, 212.5986 258.66163, 212.5986 258.66163, 191.33874 216.14191, 191.33874 216.14191, 212.5986 173.62219000000002, 212.5986 173.62219000000002, 191.33874 131.10247, 191.33874 131.10247, 212.5986 104.88197600000001, 212.5986 104.88197600000001, 199.48835300000002 91.771729, 199.48835300000002 91.771729, 212.5986 65.551235, 212.5986 65.551235, 191.33874 0, 191.33874 0, 170.07888 21.25986, 170.07888 21.25986, 127.55915999999999 0, 127.55915999999999 0, 112.8544235 13.110247000000001, 112.8544235 13.110247000000001, 99.74417650000001 0, 99.74417650000001 0, 85.03944 21.25986, 85.03944 21.25986, 42.51972 0, 42.51972 "/> 
</g>
<!-- Right--> 
<g transform="translate(1822.5014985, 235.0986185) " > 
<polygon style="stroke:#000000; fill:none; stroke-width:0.90000074" points="0, 21.25986 65.551235, 21.25986 65.551235, 0 91.771729, 0 91.771729, 13.110247000000001 104.88197600000001, 13.110247000000001 104.88197600000001, 0 131.10247, 0 131.10247, 21.25986 173.62219000000002, 21.25986 173.62219000000002, 0 216.14191, 0 216.14191, 21.25986 258.66163, 21.25986 258.66163, 0 301.18135, 0 301.18135, 21.25986 343.70107, 21.25986 343.70107, 0 386.22078999999997, 0 386.22078999999997, 21.25986 428.74051, 21.25986 428.74051, 0 471.26023, 0 471.26023, 21.25986 513.77995, 21.25986 513.77995, 0 556.29967, 0 556.29967, 21.25986 598.81939, 21.25986 598.81939, 0 641.33911, 0 641.33911, 21.25986 683.85883, 21.25986 683.85883, 0 726.37855, 0 726.37855, 21.25986 768.89827, 21.25986 768.89827, 0 795.1187639999999, 0 795.1187639999999, 13.110247000000001 808.229011, 13.110247000000001 808.229011, 0 834.449505, 0 834.449505, 21.25986 900.00074, 21.25986 900.00074, 42.51972 878.74088, 42.51972 878.74088, 85.03944 900.00074, 85.03944 900.00074, 99.74417650000001 886.890493, 99.74417650000001 886.890493, 112.8544235 900.00074, 112.8544235 900.00074, 127.55915999999999 878.74088, 127.55915999999999 878.74088, 170.07888 900.00074, 170.07888 900.00074, 191.33874 834.449505, 191.33874 834.449505, 212.5986 808.229011, 212.5986 808.229011, 199.48835300000002 795.1187639999999, 199.48835300000002 795.1187639999999, 212.5986 768.89827, 212.5986 768.89827, 191.33874 726.37855, 191.33874 726.37855, 212.5986 683.85883, 212.5986 683.85883, 191.33874 641.33911, 191.33874 641.33911, 212.5986 598.81939, 212.5986 598.81939, 191.33874 556.29967, 191.33874 556.29967, 212.5986 513.77995, 212.5986 513.77995, 191.33874 471.26023, 191.33874 471.26023, 212.5986 428.74051, 212.5986 428.74051, 191.33874 386.22078999999997, 191.33874 386.22078999999997, 212.5986 343.70107, 212.5986 343.70107, 191.33874 301.18135, 191.33874 301.18135, 212.5986 258.66163, 212.5986 258.66163, 191.33874 216.14191, 191.33874 216.14191, 212.5986 173.62219000000002, 212.5986 173.62219000000002, 191.33874 131.10247, 191.33874 131.10247, 212.5986 104.88197600000001, 212.5986 104.88197600000001, 199.48835300000002 91.771729, 199.48835300000002 91.771729, 212.5986 65.551235, 212.5986 65.551235, 191.33874 0, 191.33874 0, 170.07888 21.25986, 170.07888 21.25986, 127.55915999999999 0, 127.55915999999999 0, 112.8544235 13.110247000000001, 112.8544235 13.110247000000001, 99.74417650000001 0, 99.74417650000001 0, 85.03944 21.25986, 85.03944 21.25986, 42.51972 0, 42.51972 "/> 
</g>
<!-- Top--> 
<g transform="translate(22.5000185, 235.0986185) " > 
<polygon style="stroke:#000000; fill:none; stroke-width:0.90000074" points="0, 21.25986 65.551235, 21.25986 65.551235, 0 91.771729, 0 91.771729, 13.110247000000001 104.88197600000001, 13.110247000000001 104.88197600000001, 0 131.10247, 0 131.10247, 21.25986 173.62219000000002, 21.25986 173.62219000000002, 0 216.14191, 0 216.14191, 21.25986 258.66163, 21.25986 258.66163, 0 301.18135, 0 301.18135, 21.25986 343.70107, 21.25986 343.70107, 0 386.22078999999997, 0 386.22078999999997, 21.25986 428.74051, 21.25986 428.74051, 0 471.26023, 0 471.26023, 21.25986 513.77995, 21.25986 513.77995, 0 556.29967, 0 556.29967, 21.25986 598.81939, 21.25986 598.81939, 0 641.33911, 0 641.33911, 21.25986 683.85883, 21.25986 683.85883, 0 726.37855, 0 726.37855, 21.25986 768.89827, 21.25986 768.89827, 0 795.1187639999999, 0 795.1187639999999, 13.110247000000001 808.229011, 13.110247000000001 808.229011, 0 834.449505, 0 834.449505, 21.25986 900.00074, 21.25986 900.00074, 65.551235 878.74088, 65.551235 878.74088, 92.834722 874.8432389999999, 92.834722 874.8432389999999, 88.4055845 865.984964, 88.4055845 865.984964, 92.834722 857.1266889999999, 92.834722 857.1266889999999, 103.818983 865.984964, 103.818983 865.984964, 108.2481205 874.8432389999999, 108.2481205 874.8432389999999, 103.818983 878.74088, 103.818983 878.74088, 131.10247 900.00074, 131.10247 900.00074, 173.62219000000002 878.74088, 173.62219000000002 878.74088, 216.14191 900.00074, 216.14191 900.00074, 258.66163 878.74088, 258.66163 878.74088, 301.18135 900.00074, 301.18135 900.00074, 343.70107 878.74088, 343.70107 878.74088, 386.22078999999997 900.00074, 386.22078999999997 900.00074, 428.74051 878.74088, 428.74051 878.74088, 471.26023 900.00074, 471.26023 900.00074, 513.77995 878.74088, 513.77995 878.74088, 556.29967 900.00074, 556.29967 900.00074, 598.81939 878.74088, 598.81939 878.74088, 641.33911 900.00074, 641.33911 900.00074, 683.85883 878.74088, 683.85883 878.74088, 726.37855 900.00074, 726.37855 900.00074, 768.89827 878.74088, 768.89827 878.74088, 796.181757 874.8432389999999, 796.181757 874.8432389999999, 791.7526194999999 865.984964, 791.7526194999999 865.984964, 796.181757 857.1266889999999, 796.181757 857.1266889999999, 807.166018 865.984964, 807.166018 865.984964, 811.5951555 874.8432389999999, 811.5951555 874.8432389999999, 807.166018 878.74088, 807.166018 878.74088, 834.449505 900.00074, 834.449505 900.00074, 878.74088 834.449505, 878.74088 834.449505, 900.00074 808.229011, 900.00074 808.229011, 886.890493 795.1187639999999, 886.890493 795.1187639999999, 900.00074 768.89827, 900.00074 768.89827, 878.74088 726.37855, 878.74088 726.37855, 900.00074 683.85883, 900.00074 683.85883, 878.74088 641.33911, 878.74088 641.33911, 900.00074 598.81939, 900.00074 598.81939, 878.74088 556.29967, 878.74088 556.29967, 900.00074 513.77995, 900.00074 513.77995, 878.74088 471.26023, 878.74088 471.26023, 900.00074 428.74051, 900.00074 428.74051, 878.74088 386.22078999999997, 878.74088 386.22078999999997, 900.00074 343.70107, 900.00074 343.70107, 878.74088 301.18135, 878.74088 301.18135, 900.00074 258.66163, 900.00074 258.66163, 878.74088 216.14191, 878.74088 216.14191, 900.00074 173.62219000000002, 900.00074 173.62219000000002, 878.74088 131.10247, 878.74088 131.10247, 900.00074 104.88197600000001, 900.00074 104.88197600000001, 886.890493 91.771729, 886.890493 91.771729, 900.00074 65.551235, 900.00074 65.551235, 878.74088 0, 878.74088 0, 834.449505 21.25986, 834.449505 21.25986, 807.166018 25.157501, 807.166018 25.157501, 811.5951555 34.015776, 811.5951555 34.015776, 807.166018 42.874050999999994, 807.166018 42.874050999999994, 796.181757 34.015776, 796.181757 34.015776, 791.7526194999999 25.157501, 791.7526194999999 25.157501, 796.181757 21.25986, 796.181757 21.25986, 768.89827 0, 768.89827 0, 726.37855 21.25986, 726.37855 21.25986, 683.85883 0, 683.85883 0, 641.33911 21.25986, 641.33911 21.25986, 598.81939 0, 598.81939 0, 556.29967 21.25986, 556.29967 21.25986, 513.77995 0, 513.77995 0, 471.26023 21.25986, 471.26023 21.25986, 428.74051 0, 428.74051 0, 386.22078999999997 21.25986, 386.22078999999997 21.25986, 343.70107 0, 343.70107 0, 301.18135 21.25986, 301.18135 21.25986, 258.66163 0, 258.66163 0, 216.14191 21.25986, 216.14191 21.25986, 173.62219000000002 0, 173.62219000000002 0, 131.10247 21.25986, 131.10247 21.25986, 103.818983 25.157501, 103.818983 25.157501, 108.2481205 34.015776, 108.2481205 34.015776, 103.818983 42.874050999999994, 103.818983 42.874050999999994, 92.834722 34.015776, 92.834722 34.015776, 88.4055845 25.157501, 88.4055845 25.157501, 92.834722 21.25986, 92.834722 21.25986, 65.551235 0, 65.551235 "/> 
</g>
<!-- Bottom--> 
<g transform="translate(922.5007585000001, 235.0986185) " > 
<polygon style="stroke:#000000; fill:none; stroke-width:0.90000074" points="0, 21.25986 65.551235, 21.25986 65.551235, 0 91.771729, 0 91.771729, 13.110247000000001 104.88197600000001, 13.110247000000001 104.88197600000001, 0 131.10247, 0 131.10247, 21.25986 173.62219000000002, 21.25986 173.62219000000002, 0 216.14191, 0 216.14191, 21.25986 258.66163, 21.25986 258.66163, 0 301.18135, 0 301.18135, 21.25986 343.70107, 21.25986 343.70107, 0 386.22078999999997, 0 386.22078999999997, 21.25986 428.74051, 21.25986 428.74051, 0 471.26023, 0 471.26023, 21.25986 513.77995, 21.25986 513.77995, 0 556.29967, 0 556.29967, 21.25986 598.81939, 21.25986 598.81939, 0 641.33911, 0 641.33911, 21.25986 683.85883, 21.25986 683.85883, 0 726.37855, 0 726.37855, 21.25986 768.89827, 21.25986 768.89827, 0 795.1187639999999, 0 795.1187639999999, 13.110247000000001 808.229011, 13.110247000000001 808.229011, 0 834.449505, 0 834.449505, 21.25986 900.00074, 21.25986 900.00074, 65.551235 878.74088, 65.551235 878.74088, 92.834722 874.8432389999999, 92.834722 874.8432389999999, 88.4055845 865.984964, 88.4055845 865.984964, 92.834722 857.1266889999999, 92.834722 857.1266889999999, 103.818983 865.984964, 103.818983 865.984964, 108.2481205 874.8432389999999, 108.2481205 874.8432389999999, 103.818983 878.74088, 103.818983 878.74088, 131.10247 900.00074, 131.10247 900.00074, 173.62219000000002 878.74088, 173.62219000000002 878.74088, 216.14191 900.00074, 216.14191 900.00074, 258.66163 878.74088, 258.66163 878.74088, 301.18135 900.00074, 301.18135 900.00074, 343.70107 878.74088, 343.70107 878.74088, 386.22078999999997 900.00074, 386.22078999999997 900.00074, 428.74051 878.74088, 428.74051 878.74088, 471.26023 900.00074, 471.26023 900.00074, 513.77995 878.74088, 513.77995 878.74088, 556.29967 900.00074, 556.29967 900.00074, 598.81939 878.74088, 598.81939 878.74088, 641.33911 900.00074, 641.33911 900.00074, 683.85883 878.74088, 683.85883 878.74088, 726.37855 900.00074, 726.37855 900.00074, 768.89827 878.74088, 768.89827 878.74088, 796.181757 874.8432389999999, 796.181757 874.8432389999999, 791.7526194999999 865.984964, 791.7526194999999 865.984964, 796.181757 857.1266889999999, 796.181757 857.1266889999999, 807.166018 865.984964, 807.166018 865.984964, 811.5951555 874.8432389999999, 811.5951555 874.8432389999999, 807.166018 878.74088, 807.166018 878.74088, 834.449505 900.00074, 834.449505 900.00074, 878.74088 834.449505, 878.74088 834.449505, 900.00074 808.229011, 900.00074 808.229011, 886.890493 795.1187639999999, 886.890493 795.1187639999999, 900.00074 768.89827, 900.00074 768.89827, 878.74088 726.37855, 878.74088 726.37855, 900.00074 683.85883, 900.00074 683.85883, 878.74088 641.33911, 878.74088 641.33911, 900.00074 598.81939, 900.00074 598.81939, 878.74088 556.29967, 878.74088 556.29967, 900.00074 513.77995, 900.00074 513.77995, 878.74088 471.26023, 878.74088 471.26023, 900.00074 428.74051, 900.00074 428.74051, 878.74088 386.22078999999997, 878.74088 386.22078999999997, 900.00074 343.70107, 900.00074 343.70107, 878.74088 301.18135, 878.74088 301.18135, 900.00074 258.66163, 900.00074 258.66163, 878.74088 216.14191, 878.74088 216.14191, 900.00074 173.62219000000002, 900.00074 173.62219000000002, 878.74088 131.10247, 878.74088 131.10247, 900.00074 104.88197600000001, 900.00074 104.88197600000001, 886.890493 91.771729, 886.890493 91.771729, 900.00074 65.551235, 900.00074 65.551235, 878.74088 0, 878.74088 0, 834.449505 21.25986, 834.449505 21.25986, 807.166018 25.157501, 807.166018 25.157501, 811.5951555 34.015776, 811.5951555 34.015776, 807.166018 42.874050999999994, 807.166018 42.874050999999994, 796.181757 34.015776, 796.181757 34.015776, 791.7526194999999 25.157501, 791.7526194999999 25.157501, 796.181757 21.25986, 796.181757 21.25986, 768.89827 0, 768.89827 0, 726.37855 21.25986, 726.37855 21.25986, 683.85883 0, 683.85883 0, 641.33911 21.25986, 641.33911 21.25986, 598.81939 0, 598.81939 0, 556.29967 21.25986, 556.29967 21.25986, 513.77995 0, 513.77995 0, 471.26023 21.25986, 471.26023 21.25986, 428.74051 0, 428.74051 0, 386.22078999999997 21.25986, 386.22078999999997 21.25986, 343.70107 0, 343.70107 0, 301.18135 21.25986, 301.18135 21.25986, 258.66163 0, 258.66163 0, 216.14191 21.25986, 216.14191 21.25986, 173.62219000000002 0, 173.62219000000002 0, 131.10247 21.25986, 131.10247 21.25986, 103.818983 25.157501, 103.818983 25.157501, 108.2481205 34.015776, 108.2481205 34.015776, 103.818983 42.874050999999994, 103.818983 42.874050999999994, 92.834722 34.015776, 92.834722 34.015776, 88.4055845 25.157501, 88.4055845 25.157501, 92.834722 21.25986, 92.834722 21.25986, 65.551235 0, 65.551235 "/> 
</g></svg>