<svg xmlns="http://www.w3.org/2000/svg" version="1.1" width="774.7mm" height="326.7mm" viewBox = " 0 0 2745.002257 1157.599377" >
<!-- Front--> 
<g transform="translate(22.5000185, 22.5000185) " > 
<polygon style="stroke:#000000; fill:none; stroke-width:0.90000074" points="0, 0 65.551235, 0 65.551235, 21.25986 131.10247, 21.25986 131.10247, 0 173.62219000000002, 0 173.62219000000002, 21.25986 216.14191, 21.25986 216.14191, 0 258.66163, 0 258.66163, 21.25986 301.18135, 21.25986 301.18135, 0 343.70107, 0 343.70107, 21.25986 386.22078999999997, 21.25986 386.22078999999997, 0 428.74051, 0 428.74051, 21.25986 471.26023, 21.25986 471.26023, 0 513.77995, 0 513.77995, 21.25986 556.29967, 21.25986 556.29967, 0 598.81939, 0 598.81939, 21.25986 641.33911, 21.25986 641.33911, 0 683.85883, 0 683.85883, 21.25986 726.37855, 21.25986 726.37855, 0 768.89827, 0 768.89827, 21.25986 834.449505, 21.25986 834.449505, 0 900.00074, 0 900.00074, 42.51972 878.74088, 42.51972 878.74088, 85.03944 900.00074, 85.03944 900.00074, 127.55915999999999 878.74088, 127.55915999999999 878.74088, 170.07888 900.00074, 170.07888 900.00074, 212.5986 834.449505, 212.5986 834.449505, 191.33874 768.89827, 191.33874 768.89827, 212.5986 726.37855, 212.5986 726.37855, 191.33874 683.85883, 191.33874 683.85883, 212.5986 641.33911, 212.5986 641.33911, 191.33874 598.81939, 191.33874 598.81939, 212.5986 556.29967, 212.5986 556.29967, 191.33874 513.77995, 191.33874 513.77995, 212.5986 471.26023, 212.5986 471.26023, 191.33874 428.74051, 191.33874 428.74051, 212.5986 386.22078999999997, 212.5986 386.22078999999997, 191.33874 343.70107, 191.33874 343.70107, 212.5986 301.18135, 212.5986 301.18135, 191.33874 258.66163, 191.33874 258.66163, 212.5986 216.14191, 212.5986 216.14191, 191.33874 173.62219000000002, 191.33874 173.62219000000002, 212.5986 131.10247, 212.5986 131.10247, 191.33874 65.551235, 191.33874 65.551235, 212.5986 0, 212.5986 0, 170.07888 21.25986, 170.07888 21.25986, 127.55915999999999 0, 127.55915999999999 0, 85.03944 21.25986, 85.03944 21.25986, 42.51972 0, 42.51972 "/> 
</g>
<!-- Back--> 
<g transform="translate(922.5007585000001, 22.5000185) " > 
<polygon style="stroke:#000000; fill:none; stroke-width:0.90000074" points="0, 0 65.551235, 0 65.551235, 21.25986 131.10247, 21.25986 131.10247, 0 173.62219000000002, 0 173.62219000000002, 21.25986 216.14191, 21.25986 216.14191, 0 258.66163, 0 258.66163, 21.25986 301.18135, 21.25986 301.18135, 0 343.70107, 0 343.70107, 21.25986 386.22078999999997, 21.25986 386.22078999999997, 0 428.74051, 0 428.74051, 21.25986 471.26023, 21.25986 471.26023, 0 513.77995, 0 513.77995, 21.25986 556.29967, 21.25986 556.29967, 0 598.81939, 0 598.81939, 21.25986 641.33911, 21.25986 641.33911, 0 683.85883, 0 683.85883, 21.25986 726.37855, 21.25986 726.37855, 0 768.89827, 0 768.89827, 21.25986 834.449505, 21.25986 834.449505, 0 900.00074, 0 900.00074, 42.51972 878.74088, 42.51972 878.74088, 85.03944 900.00074, 85.03944 900.00074, 127.55915999999999 878.74088, 127.55915999999999 878.74088, 170.07888 900.00074, 170.07888 900.00074, 212.5986 834.449505, 212.5986 834.449505, 191.33874 768.89827, 191.33874 768.89827, 212.5986 726.37855, 212.5986 726.37855, 191.33874 683.85883, 191.33874 683.85883, 212.5986 641.33911, 212.5986 641.33911, 191.33874 598.81939, 191.33874 598.81939, 212.5986 556.29967, 212.5986 556.29967, 191.33874 513.77995, 191.33874 513.77995, 212.5986 471.26023, 212.5986 471.26023, 191.33874 428.74051, 191.33874 428.74051, 212.5986 386.22078999999997, 212.5986 386.22078999999997, 191.33874 343.70107, 191.33874 343.70107, 212.5986 301.18135, 212.5986 301.18135, 191.33874 258.66163, 191.33874 258.66163, 212.5986 216.14191, 212.5986 216.14191, 191.33874 173.62219000000002, 191.33874 173.62219000000002, 212.5986 131.10247, 212.5986 131.10247, 191.33874 65.551235, 191.33874 65.551235, 212.5986 0, 212.5986 0, 170.07888 21.25986, 170.07888 21.25986, 127.55915999999999 0, 127.55915999999999 0, 85.03944 21.25986, 85.03944 21.25986, 42.51972 0, 42.51972 "/> 
</g>
<!-- Left--> 
<g transform="translate(1822.5014985, 22.5000185) " > 
<polygon style="stroke:#000000; fill:none; stroke-width:0.90000074" points="21.25986, 0 65.551235, 0 65.551235, 21.25986 131.10247, 21.25986 131.10247, 0 173.62219000000002, 0 173.62219000000002, 21.25986 216.14191, 21.25986 216.14191, 0 258.66163, 0 258.66163, 21.25986 301.18135, 21.25986 301.18135, 0 343.70107, 0 343.70107, 21.25986 386.22078999999997, 21.25986 386.22078999999997, 0 428.74051, 0 428.74051, 21.25986 471.26023, 21.25986 471.26023, 0 513.77995, 0 513.77995, 21.25986 556.29967, 21.25986 556.29967, 0 598.81939, 0 598.81939, 21.25986 641.33911, 21.25986 641.33911, 0 683.85883, 0 683.85883, 21.25986 726.37855, 21.25986 726.37855, 0 768.89827, 0 768.89827, 21.25986 834.449505, 21.25986 834.449505, 0 878.74088, 0 878.74088, 42.51972 900.00074, 42.51972 900.00074, 85.03944 878.74088, 85.03944 878.74088, 127.55915999999999 900.00074, 127.55915999999999 900.00074, 170.07888 878.74088, 170.07888 878.74088, 212.5986 834.449505, 212.5986 834.449505, 191.33874 768.89827, 191.33874 768.89827, 212.5986 726.37855, 212.5986 726.37855, 191.33874 683.85883, 191.33874 683.85883, 212.5986 641.33911, 212.5986 641.33911, 191.33874 598.81939, 191.33874 598.81939, 212.5986 556.29967, 212.5986 556.29967, 191.33874 513.77995, 191.33874 513.77995, 212.5986 471.26023, 212.5986 471.26023, 191.33874 428.74051, 191.33874 428.74051, 212.5986 386.22078999999997, 212.5986 386.22078999999997, 191.33874 343.70107, 191.33874 343.70107, 212.5986 301.18135, 212.5986 301.18135, 191.33874 258.66163, 191.33874 258.66163, 212.5986 216.14191, 212.5986 216.14191, 191.33874 173.62219000000002, 191.33874 173.62219000000002, 212.5986 131.10247, 212.5986 131.10247, 191.33874 65.551235, 191.33874 65.551235, 212.5986 21.25986, 212.5986 21.25986, 170.07888 0, 170.07888 0, 127.55915999999999 21.25986, 127.55915999999999 21.25986, 85.03944 0, 85.03944 0, 42.51972 21.25986, 42.51972 "/> 
</g>
<!-- Right--> 
<g transform="translate(1822.5014985, 235.0986185) " > 
<polygon style="stroke:#000000; fill:none; stroke-width:0.90000074" points="21.25986, 0 65.551235, 0 65.551235, 21.25986 131.10247, 21.25986 131.10247, 0 173.62219000000002, 0 173.62219000000002, 21.25986 216.14191, 21.25986 216.14191, 0 258.66163, 0 258.66163, 21.25986 301.18135, 21.25986 301.18135, 0 343.70107, 0 343.70107, 21.25986 386.22078999999997, 21.25986 386.22078999999997, 0 428.74051, 0 428.74051, 21.25986 471.26023, 21.25986 471.26023, 0 513.77995, 0 513.77995, 21.25986 556.29967, 21.25986 556.29967, 0 598.81939, 0 598.81939, 21.25986 641.33911, 21.25986 641.33911, 0 683.85883, 0 683.85883, 21.25986 726.37855, 21.25986 726.37855, 0 768.89827, 0 768.89827, 21.25986 834.449505, 21.25986 834.449505, 0 878.74088, 0 878.74088, 42.51972 900.00074, 42.51972 900.00074, 85.03944 878.74088, 85.03944 878.74088, 127.55915999999999 900.00074, 127.55915999999999 900.00074, 170.07888 878.74088, 170.07888 878.74088, 212.5986 834.449505, 212.5986 834.449505, 191.33874 768.89827, 191.33874 768.89827, 212.5986 726.37855, 212.5986 726.37855, 191.33874 683.85883, 191.33874 683.85883, 212.5986 641.33911, 212.5986 641.33911, 191.33874 598.81939, 191.33874 598.81939, 212.5986 556.29967, 212.5986 556.29967, 191.33874 513.77995, 191.33874 513.77995, 212.5986 471.26023, 212.5986 471.26023, 191.33874 428.74051, 191.33874 428.74051, 212.5986 386.22078999999997, 212.5986 386.22078999999997, 191.33874 343.70107, 191.33874 343.70107, 212.5986 301.18135, 212.5986 301.18135, 191.33874 258.66163, 191.33874 258.66163, 212.5986 216.14191, 212.5986 216.14191, 191.33874 173.62219000000002, 191.33874 173.62219000000002, 212.5986 131.10247, 212.5986 131.10247, 191.33874 65.551235, 191.33874 65.551235, 212.5986 21.25986, 212.5986 21.25986, 170.07888 0, 170.07888 0, 127.55915999999999 21.25986, 127.55915999999999 21.25986, 85.03944 0, 85.03944 0, 42.51972 21.25986, 42.51972 "/> 
</g>
<!-- Top--> 
<g transform="translate(22.5000185, 235.0986185) " > 
<polygon style="stroke:#000000; fill:none; stroke-width:0.90000074" points="21.25986, 21.25986 65.551235, 21.25986 65.551235, 0 131.10247, 0 131.10247, 21.25986 173.62219000000002, 21.25986 173.62219000000002, 0 216.14191, 0 216.14191, 21.25986 258.66163, 21.25986 258.66163, 0 301.18135, 0 301.18135, 21.25986 343.70107, 21.25986 343.70107, 0 386.22078999999997, 0 386.22078999999997, 21.25986 428.74051, 21.25986 428.74051, 0 471.26023, 0 471.26023, 21.25986 513.77995, 21.25986 513.77995, 0 556.29967, 0 556.29967, 21.25986 598.81939, 21.25986 598.81939, 0 641.33911, 0 641.33911, 21.25986 683.85883, 21.25986 683.85883, 0 726.37855, 0 726.37855, 21.25986 768.89827, 21.25986 768.89827, 0 834.449505, 0 834.449505, 21.25986 878.74088, 21.25986 878.74088, 65.551235 900.00074, 65.551235 900.00074, 131.10247 878.74088, 131.10247 878.74088, 173.62219000000002 900.00074, 173.62219000000002 900.00074, 216.14191 878.74088, 216.14191 878.74088, 258.66163 900.00074, 258.66163 900.00074, 301.18135 878.74088, 301.18135 878.74088, 343.70107 900.00074, 343.70107 900.00074, 386.22078999999997 878.74088, 386.22078999999997 878.74088, 428.74051 900.00074, 428.74051 900.00074, 471.26023 878.74088, 471.26023 878.74088, 513.77995 900.00074, 513.77995 900.00074, 556.29967 878.74088, 556.29967 878.74088, 598.81939 900.00074, 598.81939 900.00074, 641.33911 878.74088, 641.33911 878.74088, 683.85883 900.00074, 683.85883 900.00074, 726.37855 878.74088, 726.37855 878.74088, 768.89827 900.00074, 768.89827 900.00074, 834.449505 878.74088, 834.449505 878.74088, 878.74088 834.449505, 878.74088 834.449505, 900.00074 768.89827, 900.00074 768.89827, 878.74088 726.37855, 878.74088 726.37855, 900.00074 683.85883, 900.00074 683.85883, 878.74088 641.33911, 878.74088 641.33911, 900.00074 598.81939, 900.00074 598.81939, 878.74088 556.29967, 878.74088 556.29967, 900.00074 513.77995, 900.00074 513.77995, 878.74088 471.26023, 878.74088 471.26023, 900.00074 428.74051, 900.00074 428.74051, 878.74088 386.22078999999997, 878.74088 386.22078999999997, 900.00074 343.70107, 900.00074 343.70107, 878.74088 301.18135, 878.74088 301.18135, 900.00074 258.66163, 900.00074 258.66163, 878.74088 216.14191, 878.74088 216.14191, 900.00074 173.62219000000002, 900.00074 173.62219000000002, 878.74088 131.10247, 878.74088 131.10247, 900.00074 65.551235, 900.00074 65.551235, 878.74088 21.25986, 878.74088 21.25986, 834.449505 0, 834.449505 0, 768.89827 21.25986, 768.89827 21.25986, 726.37855 0, 726.37855 0, 683.85883 21.25986, 683.85883 21.25986, 641.33911 0, 641.33911 0, 598.81939 21.25986, 598.81939 21.25986, 556.29967 0, 556.29967 0, 513.77995 21.25986, 513.77995 21.25986, 471.26023 0, 471.26023 0, 428.74051 21.25986, 428.74051 21.25986, 386.22078999999997 0, 386.22078999999997 0, 343.70107 21.25986, 343.70107 21.25986, 301.18135 0, 301.18135 0, 258.66163 21.25986, 258.66163 21.25986, 216.14191 0, 216.14191 0, 173.62219000000002 21.25986, 173.62219000000002 21.25986, 131.10247 0, 131.10247 0, 65.551235 21.25986, 65.551235 "/> 
</g>
<!-- Bottom--> 
<g transform="translate(922.5007585000001, 235.0986185) " > 
<polygon style="stroke:#000000; fill:none; stroke-width:0.90000074" points="21.25986, 21.25986 65.551235, 21.25986 65.551235, 0 131.10247, 0 131.10247, 21.25986 173.62219000000002, 21.25986 173.62219000000002, 0 216.14191, 0 216.14191, 21.25986 258.66163, 21.25986 258.66163, 0 301.18135, 0 301.18135, 21.25986 343.70107, 21.25986 343.70107, 0 386.22078999999997, 0 386.22078999999997, 21.25986 428.74051, 21.25986 428.74051, 0 471.26023, 0 471.26023, 21.25986 513.77995, 21.25986 513.77995, 0 556.29967, 0 556.29967, 21.25986 598.81939, 21.25986 598.81939, 0 641.33911, 0 641.33911, 21.25986 683.85883, 21.25986 683.85883, 0 726.37855, 0 726.37855, 21.25986 768.89827, 21.25986 768.89827, 0 834.449505, 0 834.449505, 21.25986 878.74088, 21.25986 878.74088, 65.551235 900.00074, 65.551235 900.00074, 131.10247 878.74088, 131.10247 878.74088, 173.62219000000002 900.00074, 173.62219000000002 900.00074, 216.14191 878.74088, 216.14191 878.74088, 258.66163 900.00074, 258.66163 900.00074, 301.18135 878.74088, 301.18135 878.74088, 343.70107 900.00074, 343.70107 900.00074, 386.22078999999997 878.74088, 386.22078999999997 878.74088, 428.74051 900.00074, 428.74051 900.00074, 471.26023 878.74088, 471.26023 878.74088, 513.77995 900.00074, 513.77995 900.00074, 556.29967 878.74088, 556.29967 878.74088, 598.81939 900.00074, 598.81939 900.00074, 641.33911 878.74088, 641.33911 878.74088, 683.85883 900.00074, 683.85883 900.00074, 726.37855 878.74088, 726.37855 878.74088, 768.89827 900.00074, 768.89827 900.00074, 834.449505 878.74088, 834.449505 878.74088, 878.74088 834.449505, 878.74088 834.449505, 900.00074 768.89827, 900.00074 768.89827, 878.74088 726.37855, 878.74088 726.37855, 900.00074 683.85883, 900.00074 683.85883, 878.74088 641.33911, 878.74088 641.33911, 900.00074 598.81939, 900.00074 598.81939, 878.74088 556.29967, 878.74088 556.29967, 900.00074 513.77995, 900.00074 513.77995, 878.74088 471.26023, 878.74088 471.26023, 900.00074 428.74051, 900.00074 428.74051, 878.74088 386.22078999999997, 878.74088 386.22078999999997, 900.00074 343.70107, 900.00074 343.70107, 878.74088 301.18135, 878.74088 301.18135, 900.00074 258.66163, 900.00074 258.66163, 878.74088 216.14191, 878.74088 216.14191, 900.00074 173.62219000000002, 900.00074 173.62219000000002, 878.74088 131.10247, 878.74088 131.10247, 900.00074 65.551235, 900.00074 65.551235, 878.74088 21.25986, 878.74088 21.25986, 834.449505 0, 834.449505 0, 768.89827 21.25986, 768.89827 21.25986, 726.37855 0, 726.37855 0, 683.85883 21.25986, 683.85883 21.25986, 641.33911 0, 641.33911 0, 598.81939 21.25986, 598.81939 21.25986, 556.29967 0, 556.29967 0, 513.77995 21.25986, 513.77995 21.25986, 471.26023 0, 471.26023 0, 428.74051 21.25986, 428.74051 21.25986, 386.22078999999997 0, 386.22078999999997 0, 343.70107 21.25986, 343.70107 21.25986, 301.18135 0, 301.18135 0, 258.66163 21.25986, 258.66163 21.25986, 216.14191 0, 216.14191 0, 173.62219000000002 21.25986, 173.62219000000002 21.25986, 131.10247 0, 131.10247 0, 65.551235 21.25986, 65.551235 "/> 
</g></svg>