<?xml version="1.0" encoding="utf-8"?><!-- Generator: Iparigrafika Gear Generator by Abel Vincze http://geargenerator.com/ --><svg version="1.2" class="svggear" xmlns="http://www.w3.org/2000/svg" xmlns:xlink="http://www.w3.org/1999/xlink" x="0px" y="0px" width="334px" height="334px" viewBox="-167 -167 334 334" overflow="scroll" xml:space="preserve"><polygon id="gearpoly1" data-id="1" class="gear" fill="#ddd" stroke="#444" stroke-width="1" stroke-miterlimit="10" points="130.8333,0 140.9754,-0.0002 141.0495,-0.0023 141.1766,-0.0084 141.3564,-0.0203 141.5888,-0.0403 141.8735,-0.0703 142.2101,-0.1124 142.5983,-0.1685 143.0377,-0.2408 143.5277,-0.3313 144.0678,-0.4418 144.6573,-0.5744 145.2957,-0.731 145.9821,-0.9136 146.7159,-1.1241 147.496,-1.3643 148.3217,-1.6362 149.192,-1.9417 150.1059,-2.2824 151.0623,-2.6603 152.0601,-3.0771 153.0982,-3.5346 154.1752,-4.0344 155.29,-4.5782 156.4413,-5.1677 157.6276,-5.8045 158.8475,-6.4901 160.0996,-7.2261 161.3824,-8.014 162.6943,-8.8553 164.0337,-9.7513 165.3989,-10.7034 166.2572,-11.6756 165.2506,-21.68 164.2158,-22.4618 162.6882,-23.1228 161.1972,-23.734 159.744,-24.297 158.33,-24.8136 156.9564,-25.2854 155.6243,-25.7142 154.3349,-26.1019 153.0893,-26.4503 151.8885,-26.7611 150.7335,-27.0363 149.6251,-27.2778 148.5643,-27.4874 147.5517,-27.6672 146.5883,-27.8191 145.6746,-27.945 144.8113,-28.047 143.9989,-28.127 143.2379,-28.1871 142.5289,-28.2293 141.8721,-28.2556 141.268,-28.2681 140.7167,-28.2688 140.2185,-28.2598 139.7735,-28.2431 139.3819,-28.2208 139.0436,-28.195 138.7587,-28.1677 138.527,-28.141 138.3484,-28.1169 138.2227,-28.0974 138.1496,-28.0847 128.2108,-26.0645 122.9431,-44.7476 132.4734,-48.2166 132.5424,-48.244 132.6598,-48.2931 132.8247,-48.3658 133.0362,-48.4641 133.2934,-48.5896 133.5954,-48.7443 133.941,-48.9299 134.3291,-49.1481 134.7586,-49.4006 135.2283,-49.6892 135.737,-50.0155 136.2833,-50.381 136.8659,-50.7873 137.4834,-51.2361 138.1343,-51.7287 138.8172,-52.2666 139.5306,-52.8513 140.2728,-53.484 141.0422,-54.1663 141.8373,-54.8992 142.6563,-55.6841 143.4975,-56.5221 144.3591,-57.4144 145.2392,-58.3621 146.1362,-59.3662 147.0481,-60.4278 147.9729,-61.5476 148.9089,-62.7268 149.8539,-63.9659 150.8061,-65.266 151.7633,-66.6276 152.2374,-67.8348 147.8698,-76.8915 146.63,-77.2723 144.9685,-77.371 143.3583,-77.4354 141.8002,-77.4674 140.2948,-77.4692 138.8426,-77.4427 137.4442,-77.3901 136.1,-77.3134 134.8104,-77.2147 133.5757,-77.0961 132.3962,-76.9597 131.2721,-76.8075 130.2035,-76.6417 129.1905,-76.4644 128.2332,-76.2776 127.3316,-76.0834 126.4854,-75.8839 125.6947,-75.6813 124.9591,-75.4775 124.2784,-75.2746 123.6522,-75.0747 123.0802,-74.8798 122.5619,-74.6919 122.0969,-74.5131 121.6844,-74.3452 121.3241,-74.1903 121.015,-74.0504 120.7566,-73.9272 120.548,-73.8229 120.3884,-73.7391 120.2769,-73.6779 120.2126,-73.6409 111.5642,-68.3433 100.2241,-84.098 107.9932,-90.6174 108.0487,-90.6667 108.1422,-90.753 108.2723,-90.8777 108.4374,-91.0424 108.6362,-91.2484 108.867,-91.497 109.1283,-91.7896 109.4184,-92.1274 109.7357,-92.5116 110.0784,-92.9434 110.4448,-93.4239 110.8331,-93.9543 111.2416,-94.5354 111.6683,-95.1682 112.1115,-95.8538 112.5693,-96.5928 113.0396,-97.3862 113.5207,-98.2347 114.0104,-99.1389 114.5069,-100.0996 115.008,-101.1173 115.5118,-102.1924 116.0162,-103.3256 116.5192,-104.5172 117.0187,-105.7675 117.5125,-107.0769 117.9986,-108.4456 118.4748,-109.8737 118.939,-111.3614 119.3891,-112.9087 119.8229,-114.5156 119.8555,-115.8121 112.6537,-122.8289 111.3585,-122.7626 109.7634,-122.2871 108.2283,-121.7969 106.7532,-121.2941 105.338,-120.7809 103.9824,-120.2593 102.6863,-119.7316 101.4494,-119.1998 100.2713,-118.666 99.1517,-118.1322 98.0899,-117.6006 97.0857,-117.0731 96.1382,-116.5519 95.247,-116.0388 94.4114,-115.5358 93.6305,-115.045 92.9036,-114.5681 92.2298,-114.1073 91.6083,-113.6642 91.038,-113.2407 90.518,-112.8387 90.0472,-112.4599 89.6244,-112.1061 89.2486,-111.779 88.9184,-111.4802 88.6327,-111.2114 88.3902,-110.9742 88.1895,-110.7701 88.0292,-110.6007 87.9079,-110.4674 87.824,-110.3717 87.7762,-110.315 81.4612,-102.3788 65.4167,-113.305 70.4875,-122.0884 70.5227,-122.1537 70.5811,-122.2667 70.6606,-122.4284 70.7595,-122.6397 70.8759,-122.9012 71.0078,-123.2138 71.1532,-123.5781 71.3103,-123.9947 71.477,-124.4643 71.6513,-124.9872 71.8313,-125.5641 72.0148,-126.1953 72.1999,-126.881 72.3845,-127.6217 72.5665,-128.4175 72.7438,-129.2685 72.9145,-130.1749 73.0763,-131.1368 73.2272,-132.154 73.3652,-133.2265 73.488,-134.3542 73.5937,-135.5368 73.6802,-136.7742 73.7453,-138.066 73.787,-139.4117 73.8031,-140.811 73.7918,-142.2634 73.7508,-143.7683 73.6783,-145.325 73.572,-146.9329 73.4301,-148.5913 73.0172,-149.8208 63.8499,-153.9512 62.6554,-153.4459 61.3192,-152.4535 60.0444,-151.4679 58.8302,-150.4909 57.6758,-149.5246 56.5804,-148.5709 55.543,-147.6317 54.5625,-146.7089 53.6381,-145.8044 52.7685,-144.9198 51.9526,-144.0572 51.1893,-143.218 50.4773,-142.4041 49.8153,-141.6172 49.2021,-140.8587 48.6362,-140.1304 48.1162,-139.4337 47.6407,-138.7702 47.2082,-138.1413 46.8171,-137.5483 46.466,-136.9927 46.1531,-136.4757 45.8768,-135.9986 45.6356,-135.5627 45.4275,-135.169 45.251,-134.8187 45.1042,-134.5128 44.9854,-134.2524 44.8927,-134.0384 44.8243,-133.8717 44.7783,-133.7531 44.7527,-133.6834 41.5329,-124.066 22.719,-128.8457 24.4799,-138.8337 24.4907,-138.9071 24.5068,-139.0333 24.5263,-139.2125 24.547,-139.4448 24.5669,-139.7303 24.5839,-140.0691 24.596,-140.4612 24.601,-140.9065 24.5971,-141.4047 24.582,-141.9558 24.5538,-142.5594 24.5105,-143.2153 24.4498,-143.923 24.37,-144.6821 24.2688,-145.4921 24.1444,-146.3525 23.9947,-147.2626 23.8178,-148.2218 23.6118,-149.2293 23.3746,-150.2843 23.1043,-151.386 22.7991,-152.5335 22.4572,-153.7258 22.0765,-154.9619 21.6554,-156.2408 21.1921,-157.5613 20.6847,-158.9222 20.1315,-160.3223 19.5308,-161.7603 18.881,-163.2349 18.1805,-164.7447 17.372,-165.7588 7.3449,-166.5047 6.3953,-165.6214 5.479,-164.2319 4.6182,-162.8696 3.8114,-161.5363 3.0571,-160.2335 2.3539,-158.9626 1.7003,-157.7252 1.0946,-156.5228 0.5353,-155.3566 0.0206,-154.228 -0.451,-153.1383 -0.8812,-152.0887 -1.2719,-151.0804 -1.6248,-150.1145 -1.9417,-149.192 -2.2244,-148.3141 -2.4747,-147.4816 -2.6946,-146.6954 -2.8859,-145.9565 -3.0506,-145.2655 -3.1905,-144.6233 -3.3077,-144.0305 -3.4041,-143.4877 -3.4818,-142.9955 -3.5426,-142.5544 -3.5887,-142.1649 -3.622,-141.8273 -3.6446,-141.5419 -3.6585,-141.3091 -3.6657,-141.129 -3.6684,-141.0018 -3.6686,-140.9276 -3.4049,-130.789 -22.719,-128.8457 -24.4804,-138.8336 -24.4953,-138.9063 -24.5233,-139.0304 -24.5663,-139.2054 -24.6263,-139.4308 -24.7053,-139.7059 -24.8052,-140.0301 -24.9279,-140.4027 -25.0754,-140.8228 -25.2495,-141.2897 -25.4522,-141.8024 -25.6851,-142.3599 -25.9502,-142.9614 -26.2492,-143.6057 -26.5839,-144.2917 -26.956,-145.0183 -27.3672,-145.7843 -27.8191,-146.5883 -28.3134,-147.4291 -28.8516,-148.3054 -29.4354,-149.2156 -30.0661,-150.1585 -30.7453,-151.1324 -31.4745,-152.1358 -32.2549,-153.1672 -33.088,-154.2249 -33.9751,-155.3073 -34.9174,-156.4125 -35.916,-157.539 -36.9723,-158.6849 -38.0873,-159.8483 -39.262,-161.0275 -40.3685,-161.7039 -50.0461,-158.9754 -50.6363,-157.8205 -51.022,-156.2014 -51.365,-154.6269 -51.6672,-153.098 -51.9303,-151.6158 -52.1564,-150.1811 -52.3475,-148.7948 -52.5054,-147.4577 -52.6321,-146.1705 -52.7297,-144.934 -52.8001,-143.7487 -52.8455,-142.6152 -52.8678,-141.5341 -52.869,-140.5057 -52.8513,-139.5306 -52.8166,-138.6089 -52.7671,-137.741 -52.7049,-136.927 -52.6319,-136.1672 -52.5503,-135.4616 -52.4622,-134.8102 -52.3696,-134.2131 -52.2745,-133.67 -52.1791,-133.181 -52.0854,-132.7457 -51.9955,-132.3639 -51.9113,-132.0352 -51.835,-131.7594 -51.7684,-131.5358 -51.7136,-131.3641 -51.6727,-131.2437 -51.6475,-131.1739 -47.9321,-121.7369 -65.4167,-113.305 -70.4879,-122.0881 -70.5268,-122.1513 -70.5955,-122.2584 -70.6958,-122.4081 -70.8293,-122.5994 -70.9976,-122.8309 -71.2024,-123.1014 -71.4451,-123.4095 -71.7274,-123.7539 -72.0507,-124.133 -72.4165,-124.5455 -72.8261,-124.9898 -73.2809,-125.4643 -73.7823,-125.9675 -74.3314,-126.4976 -74.9296,-127.0531 -75.5779,-127.6323 -76.2776,-128.2332 -77.0296,-128.8543 -77.8351,-129.4936 -78.6949,-130.1493 -79.6101,-130.8196 -80.5815,-131.5025 -81.6099,-132.196 -82.696,-132.8983 -83.8406,-133.6072 -85.0444,-134.3209 -86.3078,-135.0373 -87.6316,-135.7542 -89.016,-136.4697 -90.4617,-137.1817 -91.9688,-137.888 -93.24,-138.1451 -101.4007,-132.2712 -101.5603,-130.9842 -101.3691,-129.3307 -101.1529,-127.7339 -100.9139,-126.1939 -100.6542,-124.711 -100.376,-123.2855 -100.0813,-121.9175 -99.7724,-120.607 -99.4512,-119.3541 -99.12,-118.1588 -98.7809,-117.0209 -98.4358,-115.9402 -98.0869,-114.9167 -97.7364,-113.9499 -97.3862,-113.0396 -97.0384,-112.1854 -96.6951,-111.3867 -96.3582,-110.6432 -96.0297,-109.9541 -95.7117,-109.319 -95.4061,-108.7371 -95.1149,-108.2076 -94.8398,-107.7298 -94.5829,-107.3029 -94.346,-106.9259 -94.1309,-106.5979 -93.9394,-106.3178 -93.7733,-106.0847 -93.6343,-105.8974 -93.5241,-105.7548 -93.4444,-105.6556 -93.3968,-105.5987 -86.6779,-98.0016 -100.2241,-84.098 -107.9936,-90.617 -108.0517,-90.6631 -108.1529,-90.7402 -108.2984,-90.8466 -108.4892,-90.9807 -108.7266,-91.1407 -109.0115,-91.3248 -109.345,-91.5313 -109.728,-91.7584 -110.1615,-92.0041 -110.6463,-92.2666 -111.1832,-92.544 -111.7728,-92.8343 -112.416,-93.1357 -113.1134,-93.4461 -113.8655,-93.7635 -114.6728,-94.0859 -115.5358,-94.4114 -116.4549,-94.7378 -117.4305,-95.063 -118.4628,-95.3851 -119.552,-95.7019 -120.6983,-96.0114 -121.9019,-96.3114 -123.1627,-96.5998 -124.4808,-96.8746 -125.856,-97.1335 -127.2883,-97.3745 -128.7774,-97.5955 -130.3231,-97.7943 -131.9251,-97.9689 -133.5829,-98.1171 -134.8654,-97.924 -140.5249,-89.6132 -140.2347,-88.3492 -139.4895,-86.8609 -138.7401,-85.4343 -137.9889,-84.0689 -137.2377,-82.7643 -136.4887,-81.5199 -135.7439,-80.3351 -135.0054,-79.2093 -134.2751,-78.1418 -133.555,-77.1319 -132.8471,-76.1786 -132.1533,-75.2812 -131.4754,-74.4387 -130.8153,-73.6501 -130.1749,-72.9145 -129.5559,-72.2307 -128.9601,-71.5976 -128.3893,-71.0141 -127.845,-70.479 -127.3289,-69.9909 -126.8427,-69.5486 -126.3879,-69.1507 -125.9661,-68.7958 -125.5786,-68.4825 -125.2271,-68.2092 -124.9127,-67.9746 -124.637,-67.7769 -124.4012,-67.6147 -124.2065,-67.4862 -124.0542,-67.3899 -123.9454,-67.3239 -123.8812,-67.2867 -114.9691,-62.4458 -122.9431,-44.7476 -132.4736,-48.2162 -132.544,-48.2396 -132.6655,-48.2774 -132.8386,-48.3277 -133.0638,-48.3884 -133.3415,-48.4575 -133.6722,-48.5331 -134.0562,-48.6131 -134.4938,-48.6955 -134.9852,-48.7781 -135.5305,-48.859 -136.1299,-48.936 -136.7833,-49.0072 -137.4908,-49.0704 -138.2523,-49.1235 -139.0676,-49.1646 -139.9365,-49.1915 -140.8587,-49.2021 -141.8341,-49.1944 -142.862,-49.1664 -143.9422,-49.116 -145.0741,-49.0412 -146.2572,-48.9399 -147.4907,-48.8102 -148.7742,-48.65 -150.1067,-48.4574 -151.4876,-48.2303 -152.9159,-47.967 -154.3908,-47.6653 -155.9113,-47.3235 -157.4763,-46.9396 -159.0849,-46.5119 -160.224,-45.8918 -162.6997,-36.1465 -161.9947,-35.058 -160.7854,-33.9143 -159.5933,-32.83 -158.4204,-31.8039 -157.2683,-30.8349 -156.1389,-29.9217 -155.0338,-29.0632 -153.9548,-28.2579 -152.9034,-27.5045 -151.8813,-26.8017 -150.8901,-26.1481 -149.9311,-25.5421 -149.006,-24.9822 -148.116,-24.467 -147.2626,-23.9947 -146.4471,-23.5639 -145.6707,-23.1728 -144.9347,-22.8198 -144.2402,-22.503 -143.5883,-22.2209 -142.9802,-21.9715 -142.4167,-21.7532 -141.8989,-21.564 -141.4277,-21.402 -141.0039,-21.2655 -140.6282,-21.1525 -140.3015,-21.0611 -140.0244,-20.9893 -139.7976,-20.9352 -139.6215,-20.8967 -139.4967,-20.872 -139.4237,-20.8589 -129.3933,-19.3581 -130.8333,0 -140.9754,0.0002 -141.0495,0.0023 -141.1766,0.0084 -141.3564,0.0203 -141.5888,0.0403 -141.8735,0.0703 -142.2101,0.1124 -142.5983,0.1685 -143.0377,0.2408 -143.5277,0.3313 -144.0678,0.4418 -144.6573,0.5744 -145.2957,0.731 -145.9821,0.9136 -146.7159,1.1241 -147.496,1.3643 -148.3217,1.6362 -149.192,1.9417 -150.1059,2.2824 -151.0623,2.6603 -152.0601,3.0771 -153.0982,3.5346 -154.1752,4.0344 -155.29,4.5782 -156.4413,5.1677 -157.6276,5.8045 -158.8475,6.4901 -160.0996,7.2261 -161.3824,8.014 -162.6943,8.8553 -164.0337,9.7513 -165.3989,10.7034 -166.2572,11.6756 -165.2506,21.68 -164.2158,22.4618 -162.6882,23.1228 -161.1972,23.734 -159.744,24.297 -158.33,24.8136 -156.9564,25.2854 -155.6243,25.7142 -154.3349,26.1019 -153.0893,26.4503 -151.8885,26.7611 -150.7335,27.0363 -149.6251,27.2778 -148.5643,27.4874 -147.5517,27.6672 -146.5883,27.8191 -145.6746,27.945 -144.8113,28.047 -143.9989,28.127 -143.2379,28.1871 -142.5289,28.2293 -141.8721,28.2556 -141.268,28.2681 -140.7167,28.2688 -140.2185,28.2598 -139.7735,28.2431 -139.3819,28.2208 -139.0436,28.195 -138.7587,28.1677 -138.527,28.141 -138.3484,28.1169 -138.2227,28.0974 -138.1496,28.0847 -128.2108,26.0645 -122.9431,44.7476 -132.4734,48.2166 -132.5424,48.244 -132.6598,48.2931 -132.8247,48.3658 -133.0362,48.4641 -133.2934,48.5896 -133.5954,48.7443 -133.941,48.9299 -134.3291,49.1481 -134.7586,49.4006 -135.2283,49.6892 -135.737,50.0155 -136.2833,50.381 -136.8659,50.7873 -137.4834,51.2361 -138.1343,51.7287 -138.8172,52.2666 -139.5306,52.8513 -140.2728,53.484 -141.0422,54.1663 -141.8373,54.8992 -142.6563,55.6841 -143.4975,56.5221 -144.3591,57.4144 -145.2392,58.3621 -146.1362,59.3662 -147.0481,60.4278 -147.9729,61.5476 -148.9089,62.7268 -149.8539,63.9659 -150.8061,65.266 -151.7633,66.6276 -152.2374,67.8348 -147.8698,76.8915 -146.63,77.2723 -144.9685,77.371 -143.3583,77.4354 -141.8002,77.4674 -140.2948,77.4692 -138.8426,77.4427 -137.4442,77.3901 -136.1,77.3134 -134.8104,77.2147 -133.5757,77.0961 -132.3962,76.9597 -131.2721,76.8075 -130.2035,76.6417 -129.1905,76.4644 -128.2332,76.2776 -127.3316,76.0834 -126.4854,75.8839 -125.6947,75.6813 -124.9591,75.4775 -124.2784,75.2746 -123.6522,75.0747 -123.0802,74.8798 -122.5619,74.6919 -122.0969,74.5131 -121.6844,74.3452 -121.3241,74.1903 -121.015,74.0504 -120.7566,73.9272 -120.548,73.8229 -120.3884,73.7391 -120.2769,73.6779 -120.2126,73.6409 -111.5642,68.3433 -100.2241,84.098 -107.9932,90.6174 -108.0487,90.6667 -108.1422,90.753 -108.2723,90.8777 -108.4374,91.0424 -108.6362,91.2484 -108.867,91.497 -109.1283,91.7896 -109.4184,92.1274 -109.7357,92.5116 -110.0784,92.9434 -110.4448,93.4239 -110.8331,93.9543 -111.2416,94.5354 -111.6683,95.1682 -112.1115,95.8538 -112.5693,96.5928 -113.0396,97.3862 -113.5207,98.2347 -114.0104,99.1389 -114.5069,100.0996 -115.008,101.1173 -115.5118,102.1924 -116.0162,103.3256 -116.5192,104.5172 -117.0187,105.7675 -117.5125,107.0769 -117.9986,108.4456 -118.4748,109.8737 -118.939,111.3614 -119.3891,112.9087 -119.8229,114.5156 -119.8555,115.8121 -112.6537,122.8289 -111.3585,122.7626 -109.7634,122.2871 -108.2283,121.7969 -106.7532,121.2941 -105.338,120.7809 -103.9824,120.2593 -102.6863,119.7316 -101.4494,119.1998 -100.2713,118.666 -99.1517,118.1322 -98.0899,117.6006 -97.0857,117.0731 -96.1382,116.5519 -95.247,116.0388 -94.4114,115.5358 -93.6305,115.045 -92.9036,114.5681 -92.2298,114.1073 -91.6083,113.6642 -91.038,113.2407 -90.518,112.8387 -90.0472,112.4599 -89.6244,112.1061 -89.2486,111.779 -88.9184,111.4802 -88.6327,111.2114 -88.3902,110.9742 -88.1895,110.7701 -88.0292,110.6007 -87.9079,110.4674 -87.824,110.3717 -87.7762,110.315 -81.4612,102.3788 -65.4167,113.305 -70.4875,122.0884 -70.5227,122.1537 -70.5811,122.2667 -70.6606,122.4284 -70.7595,122.6397 -70.8759,122.9012 -71.0078,123.2138 -71.1532,123.5781 -71.3103,123.9947 -71.477,124.4643 -71.6513,124.9872 -71.8313,125.5641 -72.0148,126.1953 -72.1999,126.881 -72.3845,127.6217 -72.5665,128.4175 -72.7438,129.2685 -72.9145,130.1749 -73.0763,131.1368 -73.2272,132.154 -73.3652,133.2265 -73.488,134.3542 -73.5937,135.5368 -73.6802,136.7742 -73.7453,138.066 -73.787,139.4117 -73.8031,140.811 -73.7918,142.2634 -73.7508,143.7683 -73.6783,145.325 -73.572,146.9329 -73.4301,148.5913 -73.0172,149.8208 -63.8499,153.9512 -62.6554,153.4459 -61.3192,152.4535 -60.0444,151.4679 -58.8302,150.4909 -57.6758,149.5246 -56.5804,148.5709 -55.543,147.6317 -54.5625,146.7089 -53.6381,145.8044 -52.7685,144.9198 -51.9526,144.0572 -51.1893,143.218 -50.4773,142.4041 -49.8153,141.6172 -49.2021,140.8587 -48.6362,140.1304 -48.1162,139.4337 -47.6407,138.7702 -47.2082,138.1413 -46.8171,137.5483 -46.466,136.9927 -46.1531,136.4757 -45.8768,135.9986 -45.6356,135.5627 -45.4275,135.169 -45.251,134.8187 -45.1042,134.5128 -44.9854,134.2524 -44.8927,134.0384 -44.8243,133.8717 -44.7783,133.7531 -44.7527,133.6834 -41.5329,124.066 -22.719,128.8457 -24.4799,138.8337 -24.4907,138.9071 -24.5068,139.0333 -24.5263,139.2125 -24.547,139.4448 -24.5669,139.7303 -24.5839,140.0691 -24.596,140.4612 -24.601,140.9065 -24.5971,141.4047 -24.582,141.9558 -24.5538,142.5594 -24.5105,143.2153 -24.4498,143.923 -24.37,144.6821 -24.2688,145.4921 -24.1444,146.3525 -23.9947,147.2626 -23.8178,148.2218 -23.6118,149.2293 -23.3746,150.2843 -23.1043,151.386 -22.7991,152.5335 -22.4572,153.7258 -22.0765,154.9619 -21.6554,156.2408 -21.1921,157.5613 -20.6847,158.9222 -20.1315,160.3223 -19.5308,161.7603 -18.881,163.2349 -18.1805,164.7447 -17.372,165.7588 -7.3449,166.5047 -6.3953,165.6214 -5.479,164.2319 -4.6182,162.8696 -3.8114,161.5363 -3.0571,160.2335 -2.3539,158.9626 -1.7003,157.7252 -1.0946,156.5228 -0.5353,155.3566 -0.0206,154.228 0.451,153.1383 0.8812,152.0887 1.2719,151.0804 1.6248,150.1145 1.9417,149.192 2.2244,148.3141 2.4747,147.4816 2.6946,146.6954 2.8859,145.9565 3.0506,145.2655 3.1905,144.6233 3.3077,144.0305 3.4041,143.4877 3.4818,142.9955 3.5426,142.5544 3.5887,142.1649 3.622,141.8273 3.6446,141.5419 3.6585,141.3091 3.6657,141.129 3.6684,141.0018 3.6686,140.9276 3.4049,130.789 22.719,128.8457 24.4804,138.8336 24.4953,138.9063 24.5233,139.0304 24.5663,139.2054 24.6263,139.4308 24.7053,139.7059 24.8052,140.0301 24.9279,140.4027 25.0754,140.8228 25.2495,141.2897 25.4522,141.8024 25.6851,142.3599 25.9502,142.9614 26.2492,143.6057 26.5839,144.2917 26.956,145.0183 27.3672,145.7843 27.8191,146.5883 28.3134,147.4291 28.8516,148.3054 29.4354,149.2156 30.0661,150.1585 30.7453,151.1324 31.4745,152.1358 32.2549,153.1672 33.088,154.2249 33.9751,155.3073 34.9174,156.4125 35.916,157.539 36.9723,158.6849 38.0873,159.8483 39.262,161.0275 40.3685,161.7039 50.0461,158.9754 50.6363,157.8205 51.022,156.2014 51.365,154.6269 51.6672,153.098 51.9303,151.6158 52.1564,150.1811 52.3475,148.7948 52.5054,147.4577 52.6321,146.1705 52.7297,144.934 52.8001,143.7487 52.8455,142.6152 52.8678,141.5341 52.869,140.5057 52.8513,139.5306 52.8166,138.6089 52.7671,137.741 52.7049,136.927 52.6319,136.1672 52.5503,135.4616 52.4622,134.8102 52.3696,134.2131 52.2745,133.67 52.1791,133.181 52.0854,132.7457 51.9955,132.3639 51.9113,132.0352 51.835,131.7594 51.7684,131.5358 51.7136,131.3641 51.6727,131.2437 51.6475,131.1739 47.9321,121.7369 65.4167,113.305 70.4879,122.0881 70.5268,122.1513 70.5955,122.2584 70.6958,122.4081 70.8293,122.5994 70.9976,122.8309 71.2024,123.1014 71.4451,123.4095 71.7274,123.7539 72.0507,124.133 72.4165,124.5455 72.8261,124.9898 73.2809,125.4643 73.7823,125.9675 74.3314,126.4976 74.9296,127.0531 75.5779,127.6323 76.2776,128.2332 77.0296,128.8543 77.8351,129.4936 78.6949,130.1493 79.6101,130.8196 80.5815,131.5025 81.6099,132.196 82.696,132.8983 83.8406,133.6072 85.0444,134.3209 86.3078,135.0373 87.6316,135.7542 89.016,136.4697 90.4617,137.1817 91.9688,137.888 93.24,138.1451 101.4007,132.2712 101.5603,130.9842 101.3691,129.3307 101.1529,127.7339 100.9139,126.1939 100.6542,124.711 100.376,123.2855 100.0813,121.9175 99.7724,120.607 99.4512,119.3541 99.12,118.1588 98.7809,117.0209 98.4358,115.9402 98.0869,114.9167 97.7364,113.9499 97.3862,113.0396 97.0384,112.1854 96.6951,111.3867 96.3582,110.6432 96.0297,109.9541 95.7117,109.319 95.4061,108.7371 95.1149,108.2076 94.8398,107.7298 94.5829,107.3029 94.346,106.9259 94.1309,106.5979 93.9394,106.3178 93.7733,106.0847 93.6343,105.8974 93.5241,105.7548 93.4444,105.6556 93.3968,105.5987 86.6779,98.0016 100.2241,84.098 107.9936,90.617 108.0517,90.6631 108.1529,90.7402 108.2984,90.8466 108.4892,90.9807 108.7266,91.1407 109.0115,91.3248 109.345,91.5313 109.728,91.7584 110.1615,92.0041 110.6463,92.2666 111.1832,92.544 111.7728,92.8343 112.416,93.1357 113.1134,93.4461 113.8655,93.7635 114.6728,94.0859 115.5358,94.4114 116.4549,94.7378 117.4305,95.063 118.4628,95.3851 119.552,95.7019 120.6983,96.0114 121.9019,96.3114 123.1627,96.5998 124.4808,96.8746 125.856,97.1335 127.2883,97.3745 128.7774,97.5955 130.3231,97.7943 131.9251,97.9689 133.5829,98.1171 134.8654,97.924 140.5249,89.6132 140.2347,88.3492 139.4895,86.8609 138.7401,85.4343 137.9889,84.0689 137.2377,82.7643 136.4887,81.5199 135.7439,80.3351 135.0054,79.2093 134.2751,78.1418 133.555,77.1319 132.8471,76.1786 132.1533,75.2812 131.4754,74.4387 130.8153,73.6501 130.1749,72.9145 129.5559,72.2307 128.9601,71.5976 128.3893,71.0141 127.845,70.479 127.3289,69.9909 126.8427,69.5486 126.3879,69.1507 125.9661,68.7958 125.5786,68.4825 125.2271,68.2092 124.9127,67.9746 124.637,67.7769 124.4012,67.6147 124.2065,67.4862 124.0542,67.3899 123.9454,67.3239 123.8812,67.2867 114.9691,62.4458 122.9431,44.7476 132.4736,48.2162 132.544,48.2396 132.6655,48.2774 132.8386,48.3277 133.0638,48.3884 133.3415,48.4575 133.6722,48.5331 134.0562,48.6131 134.4938,48.6955 134.9852,48.7781 135.5305,48.859 136.1299,48.936 136.7833,49.0072 137.4908,49.0704 138.2523,49.1235 139.0676,49.1646 139.9365,49.1915 140.8587,49.2021 141.8341,49.1944 142.862,49.1664 143.9422,49.116 145.0741,49.0412 146.2572,48.9399 147.4907,48.8102 148.7742,48.65 150.1067,48.4574 151.4876,48.2303 152.9159,47.967 154.3908,47.6653 155.9113,47.3235 157.4763,46.9396 159.0849,46.5119 160.224,45.8918 162.6997,36.1465 161.9947,35.058 160.7854,33.9143 159.5933,32.83 158.4204,31.8039 157.2683,30.8349 156.1389,29.9217 155.0338,29.0632 153.9548,28.2579 152.9034,27.5045 151.8813,26.8017 150.8901,26.1481 149.9311,25.5421 149.006,24.9822 148.116,24.467 147.2626,23.9947 146.4471,23.5639 145.6707,23.1728 144.9347,22.8198 144.2402,22.503 143.5883,22.2209 142.9802,21.9715 142.4167,21.7532 141.8989,21.564 141.4277,21.402 141.0039,21.2655 140.6282,21.1525 140.3015,21.0611 140.0244,20.9893 139.7976,20.9352 139.6215,20.8967 139.4967,20.872 139.4237,20.8589 129.3933,19.3581 "/><g class="guides"><polyline fill="none" stroke="#444" stroke-width="0.5" stroke-miterlimit="10" points="10,0 -10,0"/><polyline fill="none" stroke="#444" stroke-width="0.5" stroke-miterlimit="10" points="0,10 0,-10"/></g><circle fill="#c00" class="firstmarker" stroke="none" stroke-miterlimit="10" cx="149.2464" cy="-15.0169" r="6.5417"/><g class="geartext"><g class="text"><polyline fill="none" stroke="#444" stroke-width="0.5" stroke-linecap="square" stroke-miterlimit="1"  points="-48.07 -88.64 -50.69 -87.17 -53.26 -85.62 -55.78 -84 -58.26 -82.3 "/><polyline fill="none" stroke="#444" stroke-width="0.5" stroke-linecap="square" stroke-miterlimit="1"  points="-50.09 -80.53 -56.43 -90.71 "/><polyline fill="none" stroke="#444" stroke-width="0.5" stroke-linecap="square" stroke-miterlimit="1"  points="-50.93 -93.91 -52.2 -89.76 -53.26 -85.62 -54.12 -81.5 -54.79 -77.4 "/><polyline fill="none" stroke="#444" stroke-width="0.5" stroke-linecap="square" stroke-miterlimit="1"  points="-45.21 -83.36 -49.18 -84.57 -53.26 -85.62 -57.44 -86.5 -61.72 -87.2 "/><polyline fill="none" stroke="#444" stroke-width="0.5" stroke-linecap="square" stroke-miterlimit="1"  points="-45.26 -96.77 -43.55 -100.83 -36.41 -84.31 "/><polyline fill="none" stroke="#444" stroke-width="0.5" stroke-linecap="square" stroke-miterlimit="1"  points="-33.89 -85.35 -36.41 -84.31 -38.9 -83.19 "/><polyline fill="none" stroke="#444" stroke-width="0.5" stroke-linecap="square" stroke-miterlimit="1"  points="-5.57 -109.69 -4.65 -91.72 -7.74 -96.02 -11.09 -100.22 -14.69 -104.3 -18.55 -108.26 -15.51 -90.51 "/><polyline fill="none" stroke="#444" stroke-width="0.5" stroke-linecap="square" stroke-miterlimit="1"  points="13.24 -102.99 10.17 -103.33 7.09 -103.59 4 -103.76 0.92 -103.83 "/><polyline fill="none" stroke="#444" stroke-width="0.5" stroke-linecap="square" stroke-miterlimit="1"  points="12.47 -97.04 9.58 -97.36 6.68 -97.61 3.77 -97.76 0.86 -97.83 "/><polyline fill="none" stroke="#444" stroke-width="0.5" stroke-linecap="square" stroke-miterlimit="1"  points="19.9 -104.96 23.66 -107.26 19.78 -89.68 "/><polyline fill="none" stroke="#444" stroke-width="0.5" stroke-linecap="square" stroke-miterlimit="1"  points="22.44 -89.05 19.78 -89.68 17.1 -90.23 "/><polyline fill="none" stroke="#444" stroke-width="0.5" stroke-linecap="square" stroke-miterlimit="1"  points="33.25 -95.19 29.5 -93.28 28.6 -90.42 30.29 -86.7 32.85 -85.76 35.39 -84.74 39.13 -86.38 40.37 -89.12 38.86 -93.05 36.07 -94.16 33.25 -95.19 31.31 -99 32.22 -101.86 36.22 -103.69 39.29 -102.57 42.32 -101.35 44.08 -97.31 42.84 -94.58 38.86 -93.05 "/><polyline fill="none" stroke="#444" stroke-width="0.5" stroke-linecap="square" stroke-miterlimit="1"  points="59.7 -81.26 62.09 -79.45 64.43 -77.57 66.7 -75.62 70.98 -75.79 73.03 -77.98 72.66 -82.37 70.18 -84.49 67.63 -86.54 65.03 -88.51 54.37 -74.01 "/><polyline fill="none" stroke="#444" stroke-width="0.5" stroke-linecap="square" stroke-miterlimit="1"  points="66.65 -63.18 75.36 -71.43 "/><polyline fill="none" stroke="#444" stroke-width="0.5" stroke-linecap="square" stroke-miterlimit="1"  points="77.53 -73.5 79.71 -75.56 "/><polyline fill="none" stroke="#444" stroke-width="0.5" stroke-linecap="square" stroke-miterlimit="1"  points="79.32 -51.98 75.28 -52.6 76.08 -56.61 88.12 -65.56 "/><polyline fill="none" stroke="#444" stroke-width="0.5" stroke-linecap="square" stroke-miterlimit="1"  points="86.84 -56.92 85.11 -59.48 83.3 -61.98 81.42 -64.43 79.47 -66.83 "/><polyline fill="none" stroke="#444" stroke-width="0.5" stroke-linecap="square" stroke-miterlimit="1"  points="84.52 -35.9 83.42 -38.4 82.24 -40.86 80.99 -43.29 82.27 -47.18 87.47 -50.16 91.57 -48.95 92.99 -46.2 94.32 -43.42 95.57 -40.59 "/><polyline fill="none" stroke="#444" stroke-width="0.5" stroke-linecap="square" stroke-miterlimit="1"  points="92.16 -32.82 95.95 -30.99 99.71 -28.96 100.53 -25.98 98.33 -22.31 89.56 -20.32 "/><polyline fill="none" stroke="#444" stroke-width="0.5" stroke-linecap="square" stroke-miterlimit="1"  points="86.51 -30.81 103.47 -36.85 "/><polyline fill="none" stroke="#444" stroke-width="0.5" stroke-linecap="square" stroke-miterlimit="1"  points="91.82 -1.37 91.82 1.37 91.74 4.1 91.58 6.82 94.32 9.86 106.25 11.1 109.53 8.16 109.72 4.9 109.82 1.63 109.82 -1.63 "/><polyline fill="none" stroke="#444" stroke-width="0.5" stroke-linecap="square" stroke-miterlimit="1"  points="109.82 1.63 91.82 1.37 "/><polyline fill="none" stroke="#444" stroke-width="0.5" stroke-linecap="square" stroke-miterlimit="1"  points="99.71 28.96 100.53 25.98 101.26 22.98 101.9 19.96 102.45 16.92 "/><polyline fill="none" stroke="#444" stroke-width="0.5" stroke-linecap="square" stroke-miterlimit="1"  points="93.95 27.29 94.72 24.48 95.41 21.65 96.01 18.8 96.53 15.94 "/><polyline fill="none" stroke="#444" stroke-width="0.5" stroke-linecap="square" stroke-miterlimit="1"  points="100.64 35.84 102.32 39.91 101.09 42.94 99.77 45.93 95.67 47.54 92.99 46.2 91.59 42.16 87.61 43.53 84.93 42.2 83.42 38.4 84.52 35.9 85.56 33.37 89.34 31.82 "/><polyline fill="none" stroke="#444" stroke-width="0.5" stroke-linecap="square" stroke-miterlimit="1"  points="92.81 39.42 91.59 42.16 "/><polyline fill="none" stroke="#444" stroke-width="0.5" stroke-linecap="square" stroke-miterlimit="1"  points="79.07 62.57 77.18 64.89 75.21 67.16 73.18 69.37 73.2 73.64 75.31 75.77 79.71 75.56 81.92 73.16 84.06 70.69 86.13 68.16 72.01 56.99 "/><polyline fill="none" stroke="#444" stroke-width="0.5" stroke-linecap="square" stroke-miterlimit="1"  points="58.96 85.47 61.48 83.68 63.94 81.81 66.34 79.88 68.69 77.87 "/><polyline fill="none" stroke="#444" stroke-width="0.5" stroke-linecap="square" stroke-miterlimit="1"  points="55.55 80.53 57.92 78.84 60.24 77.09 62.51 75.26 64.72 73.37 "/><polyline fill="none" stroke="#444" stroke-width="0.5" stroke-linecap="square" stroke-miterlimit="1"  points="52.22 86.26 49.63 87.77 47 89.21 44.32 90.57 40.37 89.12 39.13 86.38 40.37 82.49 42.8 81.25 45.2 79.94 49.11 81.13 53.77 88.83 52.58 93 51.19 97.17 48.28 98.65 "/><polyline fill="none" stroke="#444" stroke-width="0.5" stroke-linecap="square" stroke-miterlimit="1"  points="21.72 98.47 18.78 99.07 15.82 99.58 12.85 100.01 10.17 103.33 10.46 106.32 14 108.94 17.24 108.47 20.45 107.91 23.66 107.26 19.78 89.68 "/><polyline fill="none" stroke="#444" stroke-width="0.5" stroke-linecap="square" stroke-miterlimit="1"  points="3.54 91.77 3.77 97.76 0.92 103.83 -2.3 109.81 -5.26 103.7 -7.86 97.52 -7.38 91.54 "/><polyline fill="none" stroke="#444" stroke-width="0.5" stroke-linecap="square" stroke-miterlimit="1"  points="3.77 97.76 0.86 97.83 -2.05 97.81 -4.96 97.71 -7.86 97.52 "/><polyline fill="none" stroke="#444" stroke-width="0.5" stroke-linecap="square" stroke-miterlimit="1"  points="-26.59 100.37 -23.59 101.12 -20.57 101.77 -17.54 102.34 -14.48 102.82 "/><polyline fill="none" stroke="#444" stroke-width="0.5" stroke-linecap="square" stroke-miterlimit="1"  points="-25.05 94.57 -22.23 95.27 -19.38 95.89 -16.52 96.43 -13.65 96.88 "/><polyline fill="none" stroke="#444" stroke-width="0.5" stroke-linecap="square" stroke-miterlimit="1"  points="-38.9 83.19 -36.41 84.31 -33.89 85.35 -31.34 86.32 -28.75 87.22 -30.63 92.91 -34.41 94.78 -37.21 93.72 -39.98 92.57 -43.99 94.06 -45.26 96.77 -43.55 100.83 -40.53 102.08 -37.48 103.24 -33.45 101.46 "/><polyline fill="none" stroke="#444" stroke-width="0.5" stroke-linecap="square" stroke-miterlimit="1"  points="-52.46 79 -48.51 77.98 -46.17 79.39 -45.21 83.36 -50.93 93.91 -55.21 94.95 -58.01 93.26 -59.1 89 -52.46 79 "/></g></g><g class="guides gearguides" opacity="0.2"><circle class="pitch" fill="none" stroke="#f00" stroke-miterlimit="10" cx="0" cy="0" r="150"/><circle class="outer" fill="none" stroke="#ccc" stroke-miterlimit="10" stroke-dasharray="2,2" cx="0" cy="0" r="166.67"/><circle class="base" fill="none" stroke="#00f" stroke-miterlimit="10" stroke-dasharray="2,2" cx="0" cy="0" r="140.95"/></g></svg>