<?xml version="1.0" encoding="utf-8"?><!-- Generator: Iparigrafika Gear Generator by Abel Vincze http://geargenerator.com/ --><svg version="1.2" class="svggear" xmlns="http://www.w3.org/2000/svg" xmlns:xlink="http://www.w3.org/1999/xlink" x="0px" y="0px" width="634px" height="634px" viewBox="-317 -317 634 634" overflow="scroll" xml:space="preserve"><polygon id="gearpoly0" data-id="0" class="gear" fill="#ddd" stroke="#444" stroke-width="1" stroke-miterlimit="10" points="280.8333,0 281.9507,-0.0005 282.0117,-0.0019 282.0991,-0.0047 282.213,-0.0095 282.3532,-0.0167 282.5199,-0.0269 282.7129,-0.0406 282.9322,-0.0583 283.1777,-0.0806 283.4493,-0.1078 283.747,-0.1406 284.0707,-0.1794 284.4202,-0.2247 284.7956,-0.2771 285.1967,-0.3371 285.6233,-0.4051 286.0754,-0.4817 286.5528,-0.5673 287.0554,-0.6625 287.583,-0.7678 288.1356,-0.8835 288.7128,-1.0104 289.3147,-1.1487 289.9409,-1.2991 290.5914,-1.462 291.2659,-1.6378 291.9643,-1.8272 292.6863,-2.0304 293.4317,-2.2481 294.2004,-2.4807 294.9921,-2.7286 295.8065,-2.9924 296.6435,-3.2725 297.5027,-3.5693 298.3841,-3.8834 299.2872,-4.2151 300.2118,-4.5649 301.1577,-4.9333 302.1246,-5.3207 303.1122,-5.7275 304.1202,-6.1543 305.1484,-6.6014 306.1963,-7.0692 307.2638,-7.5582 308.3504,-8.0688 309.456,-8.6014 310.5801,-9.1564 311.7224,-9.7343 312.8825,-10.3354 314.0602,-10.9602 315.2551,-11.609 316.4284,-12.2807 315.7371,-24.2459 314.4942,-24.778 313.2326,-25.2849 311.9907,-25.7699 310.769,-26.2333 309.5678,-26.6758 308.3873,-27.0977 307.2277,-27.4994 306.0895,-27.8815 304.9728,-28.2443 303.878,-28.5883 302.8052,-28.9139 301.7547,-29.2218 300.7268,-29.5122 299.7218,-29.7856 298.7397,-30.0426 297.7809,-30.2836 296.8456,-30.5091 295.934,-30.7195 295.0463,-30.9154 294.1826,-31.0972 293.3432,-31.2655 292.5282,-31.4206 291.7379,-31.5631 290.9724,-31.6935 290.2318,-31.8122 289.5162,-31.9199 288.826,-32.0169 288.1611,-32.1037 287.5216,-32.181 286.9079,-32.2491 286.3198,-32.3086 285.7576,-32.36 285.2214,-32.4037 284.7112,-32.4404 284.2271,-32.4705 283.7692,-32.4945 283.3375,-32.5129 282.9323,-32.5263 282.5533,-32.5351 282.2009,-32.5399 281.8749,-32.5412 281.5754,-32.5394 281.3024,-32.5352 281.056,-32.529 280.8362,-32.5213 280.6429,-32.5127 280.4761,-32.5037 280.336,-32.4947 280.2223,-32.4863 280.1351,-32.479 280.0744,-32.4734 278.9644,-32.3452 276.5668,-48.7662 277.6672,-48.9607 277.7269,-48.9727 277.8125,-48.9906 277.9239,-49.0151 278.0608,-49.0466 278.2231,-49.0856 278.4108,-49.1326 278.6237,-49.1881 278.8616,-49.2526 279.1243,-49.3266 279.4118,-49.4106 279.7238,-49.505 280.0602,-49.6104 280.4208,-49.7272 280.8054,-49.8559 281.2137,-49.9969 281.6456,-50.1508 282.1009,-50.3181 282.5793,-50.4991 283.0807,-50.6944 283.6047,-50.9043 284.1512,-51.1295 284.7199,-51.3702 285.3105,-51.6271 285.9228,-51.9004 286.5565,-52.1907 287.2114,-52.4985 287.8872,-52.824 288.5835,-53.1678 289.3001,-53.5304 290.0366,-53.912 290.7929,-54.3132 291.5685,-54.7344 292.3632,-55.1759 293.1766,-55.6382 294.0084,-56.1217 294.8582,-56.6268 295.7258,-57.1538 296.6107,-57.7032 297.5127,-58.2754 298.4313,-58.8707 299.3662,-59.4895 300.317,-60.1322 301.2833,-60.7991 302.2648,-61.4907 303.261,-62.2072 304.2717,-62.949 305.2963,-63.7164 306.3344,-64.5099 307.3858,-65.3297 308.4498,-66.1761 309.4887,-67.0414 306.7301,-78.7047 305.4137,-79.013 304.0832,-79.293 302.776,-79.555 301.4924,-79.7993 300.2326,-80.0264 298.9967,-80.2369 297.785,-80.4312 296.5977,-80.6098 295.435,-80.7731 294.2971,-80.9218 293.184,-81.0562 292.0961,-81.177 291.0334,-81.2845 289.9961,-81.3792 288.9843,-81.4618 287.9983,-81.5327 287.038,-81.5923 286.1037,-81.6412 285.1954,-81.68 284.3133,-81.7091 283.4575,-81.729 282.628,-81.7402 281.8249,-81.7433 281.0483,-81.7388 280.2983,-81.7271 279.575,-81.7089 278.8784,-81.6845 278.2085,-81.6546 277.5654,-81.6197 276.9491,-81.5802 276.3597,-81.5367 275.7971,-81.4896 275.2614,-81.4396 274.7525,-81.3871 274.2706,-81.3327 273.8155,-81.2768 273.3872,-81.22 272.9857,-81.1628 272.6111,-81.1057 272.2631,-81.0492 271.9418,-80.9938 271.6472,-80.9401 271.3791,-80.8886 271.1375,-80.8397 270.9224,-80.7939 270.7335,-80.7519 270.5709,-80.714 270.4344,-80.6808 270.3239,-80.6529 270.2393,-80.6306 270.1805,-80.6145 269.1096,-80.2955 263.897,-96.0507 264.9468,-96.4333 265.0036,-96.4554 265.0848,-96.488 265.1902,-96.5314 265.3195,-96.5862 265.4727,-96.6528 265.6493,-96.7317 265.8493,-96.8233 266.0724,-96.9282 266.3183,-97.0467 266.5869,-97.1793 266.8778,-97.3264 267.1907,-97.4886 267.5256,-97.6663 267.8819,-97.8598 268.2596,-98.0696 268.6582,-98.2962 269.0775,-98.5399 269.5172,-98.8013 269.9771,-99.0806 270.4567,-99.3784 270.9558,-99.695 271.474,-100.0309 272.0111,-100.3864 272.5666,-100.7619 273.1403,-101.1579 273.7318,-101.5746 274.3407,-102.0126 274.9667,-102.4721 275.6095,-102.9536 276.2686,-103.4573 276.9437,-103.9837 277.6344,-104.5332 278.3404,-105.106 279.0611,-105.7025 279.7963,-106.3231 280.5455,-106.9681 281.3084,-107.6378 282.0845,-108.3325 282.8734,-109.0526 283.6746,-109.7984 284.4879,-110.5701 285.3126,-111.3682 286.1485,-112.1928 286.9949,-113.0442 287.8516,-113.9228 288.7181,-114.8289 289.5939,-115.7626 290.4785,-116.7242 291.3715,-117.7141 292.2724,-118.7325 293.1452,-119.765 288.4032,-130.7722 287.0533,-130.8471 285.6944,-130.8919 284.3616,-130.9229 283.055,-130.9406 281.7749,-130.9455 280.5213,-130.9382 279.2943,-130.9191 278.094,-130.8888 276.9206,-130.8478 275.7741,-130.7966 274.6546,-130.7357 273.5622,-130.6657 272.497,-130.587 271.459,-130.5002 270.4483,-130.4058 269.4649,-130.3044 268.5089,-130.1964 267.5803,-130.0823 266.6791,-129.9628 265.8053,-129.8382 264.959,-129.7092 264.1402,-129.5762 263.3488,-129.4398 262.5848,-129.3005 261.8482,-129.1588 261.139,-129.0152 260.4572,-128.8703 259.8027,-128.7245 259.1754,-128.5784 258.5754,-128.4325 258.0024,-128.2873 257.4566,-128.1433 256.9377,-128.001 256.4457,-127.861 255.9805,-127.7236 255.542,-127.5896 255.1301,-127.4593 254.7447,-127.3332 254.3856,-127.2119 254.0528,-127.0959 253.746,-126.9856 253.4652,-126.8815 253.2101,-126.7842 252.9807,-126.6941 252.7767,-126.6117 252.598,-126.5375 252.4444,-126.4719 252.3158,-126.4156 252.2118,-126.3688 252.1324,-126.3322 252.0773,-126.3061 251.0781,-125.806 243.2088,-140.4167 244.1762,-140.9758 244.2283,-141.0075 244.3026,-141.0536 244.3988,-141.1147 244.5167,-141.1911 244.6559,-141.2833 244.8162,-141.3916 244.9973,-141.5166 245.1988,-141.6586 245.4204,-141.818 245.6618,-141.9952 245.9227,-142.1907 246.2028,-142.4047 246.5017,-142.6378 246.819,-142.8903 247.1545,-143.1625 247.5077,-143.4548 247.8783,-143.7677 248.266,-144.1014 248.6703,-144.4564 249.091,-144.833 249.5275,-145.2314 249.9795,-145.6522 250.4467,-146.0955 250.9286,-146.5618 251.4248,-147.0514 251.9349,-147.5645 252.4586,-148.1015 252.9953,-148.6628 253.5447,-149.2485 254.1063,-149.8591 254.6797,-150.4948 255.2645,-151.1558 255.8603,-151.8425 256.4665,-152.5551 257.0828,-153.2939 257.7086,-154.0592 258.3436,-154.8512 258.9872,-155.6702 259.6391,-156.5163 260.2987,-157.3899 260.9655,-158.2911 261.6392,-159.2202 262.3191,-160.1775 263.0049,-161.163 263.696,-162.177 264.392,-163.2197 265.0923,-164.2913 265.7965,-165.392 266.5041,-166.5219 267.2145,-167.6812 267.8947,-168.8496 261.3134,-178.8661 259.971,-178.7055 258.6249,-178.5136 257.307,-178.3127 256.0172,-178.1033 254.7557,-177.8858 253.5224,-177.6609 252.3173,-177.4291 251.1405,-177.1908 249.9921,-176.9467 248.8719,-176.6971 247.78,-176.4428 246.7164,-176.1841 245.681,-175.9217 244.6738,-175.656 243.6949,-175.3875 242.744,-175.1168 241.8213,-174.8445 240.9266,-174.5709 240.0598,-174.2967 239.221,-174.0223 238.4099,-173.7483 237.6266,-173.4751 236.8709,-173.2034 236.1427,-172.9335 235.442,-172.6661 234.7685,-172.4015 234.1222,-172.1404 233.5029,-171.8832 232.9106,-171.6304 232.345,-171.3825 231.806,-171.14 231.2934,-170.9034 230.8071,-170.6731 230.3469,-170.4498 229.9126,-170.2338 229.5041,-170.0256 229.1211,-169.8258 228.7634,-169.6347 228.4308,-169.4529 228.1232,-169.2808 227.8402,-169.1189 227.5817,-168.9677 227.3474,-168.8275 227.1371,-168.6989 226.9506,-168.5824 226.7875,-168.4783 226.6476,-168.3871 226.5307,-168.3092 226.4365,-168.2451 226.3646,-168.1952 226.3149,-168.16 225.4177,-167.494 215.1308,-180.5162 215.9865,-181.2348 216.0323,-181.275 216.0974,-181.3334 216.1816,-181.4102 216.2844,-181.506 216.4055,-181.6209 216.5445,-181.7555 216.7011,-181.91 216.8749,-182.0848 217.0655,-182.2803 217.2724,-182.4967 217.4955,-182.7345 217.7341,-182.994 217.988,-183.2754 218.2566,-183.5791 218.5397,-183.9055 218.8368,-184.2547 219.1475,-184.6272 219.4713,-185.0232 219.8079,-185.4429 220.1567,-185.8868 220.5174,-186.355 220.8895,-186.8479 221.2726,-187.3656 221.6662,-187.9085 222.0699,-188.4768 222.4832,-189.0707 222.9056,-189.6905 223.3367,-190.3364 223.776,-191.0087 224.2231,-191.7075 224.6774,-192.4331 225.1386,-193.1856 225.606,-193.9653 226.0793,-194.7724 226.5579,-195.607 227.0413,-196.4693 227.5291,-197.3596 228.0208,-198.2778 228.5158,-199.2243 229.0137,-200.1992 229.5139,-201.2025 230.016,-202.2345 230.5194,-203.2952 231.0236,-204.3849 231.5282,-205.5035 232.0325,-206.6512 232.5361,-207.8282 233.0385,-209.0344 233.539,-210.27 234.0373,-211.5351 234.5044,-212.8039 226.2837,-221.5253 224.9895,-221.1341 223.6972,-220.7114 222.4342,-220.2846 221.2004,-219.8544 219.9958,-219.4212 218.8203,-218.9855 217.6738,-218.548 216.5563,-218.109 215.4677,-217.6691 214.4078,-217.2289 213.3767,-216.7888 212.3741,-216.3494 211.4001,-215.9111 210.4544,-215.4745 209.5369,-215.0402 208.6475,-214.6085 207.7861,-214.18 206.9524,-213.7552 206.1465,-213.3347 205.368,-212.9188 204.6169,-212.5081 203.8929,-212.1031 203.1959,-211.7042 202.5256,-211.312 201.8819,-210.9269 201.2646,-210.5495 200.6735,-210.1801 200.1083,-209.8192 199.5688,-209.4674 199.0549,-209.1251 198.5662,-208.7926 198.1025,-208.4706 197.6635,-208.1595 197.2491,-207.8596 196.8589,-207.5715 196.4928,-207.2955 196.1503,-207.0322 195.8312,-206.7819 195.5353,-206.5451 195.2622,-206.3222 195.0116,-206.1136 194.7833,-205.9198 194.5769,-205.7411 194.3922,-205.578 194.2287,-205.4308 194.0861,-205.2999 193.9642,-205.1858 193.8626,-205.0889 193.7809,-205.0094 193.7188,-204.9478 193.676,-204.9044 192.9081,-204.0927 180.5162,-215.1308 181.234,-215.9871 181.2722,-216.0347 181.3262,-216.1035 181.3957,-216.1938 181.4804,-216.3059 181.5797,-216.4401 181.6932,-216.5968 181.8206,-216.7761 181.9614,-216.9784 182.1151,-217.204 182.2814,-217.4532 182.4597,-217.7261 182.6497,-218.023 182.8508,-218.3442 183.0627,-218.69 183.2848,-219.0605 183.5167,-219.4561 183.758,-219.8768 184.0081,-220.323 184.2667,-220.7949 184.5331,-221.2926 184.8071,-221.8163 185.0879,-222.3663 185.3753,-222.9427 185.6686,-223.5457 185.9675,-224.1754 186.2713,-224.8321 186.5797,-225.5158 186.8921,-226.2268 187.208,-226.9651 187.527,-227.731 187.8484,-228.5244 188.1719,-229.3456 188.4968,-230.1946 188.8228,-231.0716 189.1492,-231.9767 189.4755,-232.9098 189.8013,-233.8713 190.1261,-234.861 190.4492,-235.879 190.7703,-236.9255 191.0886,-238.0005 191.4039,-239.104 191.7154,-240.236 192.0228,-241.3966 192.3254,-242.5859 192.6228,-243.8038 192.9144,-245.0503 193.1996,-246.3254 193.4781,-247.6292 193.7491,-248.9616 193.9887,-250.2921 184.3784,-257.4536 183.1719,-256.8436 181.9727,-256.2029 180.8029,-255.5633 179.6626,-254.9254 178.5515,-254.2896 177.4695,-253.6564 176.4164,-253.0264 175.3921,-252.4 174.3964,-251.7778 173.4291,-251.1602 172.49,-250.5477 171.579,-249.9409 170.6959,-249.3402 169.8403,-248.746 169.0122,-248.1589 168.2113,-247.5794 167.4374,-247.0078 166.6902,-246.4447 165.9695,-245.8906 165.2751,-245.3459 164.6066,-244.811 163.964,-244.2864 163.3468,-243.7726 162.7548,-243.2699 162.1878,-242.7789 161.6454,-242.3 161.1274,-241.8336 160.6335,-241.38 160.1633,-240.9399 159.7166,-240.5135 159.293,-240.1013 158.8923,-239.7036 158.5141,-239.321 158.158,-238.9537 157.8238,-238.6022 157.5111,-238.2668 157.2195,-237.948 156.9488,-237.6462 156.6985,-237.3616 156.4682,-237.0946 156.2577,-236.8457 156.0665,-236.6152 155.8943,-236.4034 155.7407,-236.2106 155.6052,-236.0373 155.4876,-235.8837 155.3873,-235.7501 155.3041,-235.637 155.2375,-235.5445 155.187,-235.4731 155.1523,-235.423 154.537,-234.4902 140.4167,-243.2088 140.9749,-244.1767 141.0042,-244.2302 141.0455,-244.3073 141.0983,-244.4083 141.1621,-244.5334 141.2366,-244.6829 141.3213,-244.8569 141.4156,-245.0556 141.5191,-245.2793 141.6313,-245.5282 141.7518,-245.8024 141.88,-246.1021 142.0155,-246.4275 142.1578,-246.7788 142.3064,-247.1561 142.4608,-247.5596 142.6205,-247.9894 142.7851,-248.4457 142.9539,-248.9285 143.1266,-249.4381 143.3026,-249.9745 143.4814,-250.5378 143.6625,-251.1282 143.8454,-251.7458 144.0296,-252.3905 144.2146,-253.0626 144.3998,-253.7621 144.5847,-254.489 144.7689,-255.2434 144.9518,-256.0254 145.133,-256.8349 145.3117,-257.6721 145.4877,-258.537 145.6602,-259.4296 145.8289,-260.3499 145.9932,-261.2978 146.1526,-262.2735 146.3065,-263.2769 146.4545,-264.3079 146.5959,-265.3666 146.7303,-266.453 146.8572,-267.5669 146.9761,-268.7084 147.0863,-269.8773 147.1875,-271.0737 147.279,-272.2974 147.3603,-273.5484 147.431,-274.8266 147.4905,-276.1319 147.5383,-277.4642 147.5739,-278.8234 147.5788,-280.1754 136.871,-285.5593 135.7887,-284.749 134.7189,-283.9098 133.678,-283.0768 132.6658,-282.2506 131.682,-281.4315 130.7263,-280.62 129.7987,-279.8167 128.8987,-279.022 128.0262,-278.2363 127.1808,-277.4602 126.3624,-276.6939 125.5706,-275.9381 124.8051,-275.1932 124.0658,-274.4595 123.3522,-273.7375 122.6641,-273.0277 122.0012,-272.3304 121.3631,-271.6461 120.7496,-270.9753 120.1603,-270.3182 119.5949,-269.6754 119.0531,-269.0472 118.5345,-268.434 118.0388,-267.8362 117.5657,-267.2542 117.1147,-266.6883 116.6856,-266.139 116.2779,-265.6067 115.8913,-265.0915 115.5254,-264.594 115.1799,-264.1145 114.8543,-263.6533 114.5482,-263.2108 114.2614,-262.7873 113.9933,-262.3831 113.7435,-261.9985 113.5118,-261.634 113.2976,-261.2897 113.1005,-260.9659 112.9201,-260.6631 112.756,-260.3814 112.6077,-260.1211 112.4749,-259.8826 112.3571,-259.6661 112.2538,-259.4719 112.1646,-259.3002 112.0891,-259.1513 112.0267,-259.0254 111.9772,-258.9228 111.9399,-258.8437 111.9144,-258.7883 111.4704,-257.7629 96.0507,-263.897 96.4324,-264.9472 96.4519,-265.0049 96.4792,-265.088 96.5136,-265.1967 96.5548,-265.331 96.6022,-265.4911 96.6553,-265.6771 96.7137,-265.8892 96.7768,-266.1275 96.8441,-266.3921 96.9151,-266.683 96.9893,-267.0005 97.0663,-267.3445 97.1454,-267.7151 97.2262,-268.1125 97.3082,-268.5367 97.3909,-268.9877 97.4737,-269.4656 97.5562,-269.9704 97.6377,-270.5022 97.7179,-271.0611 97.7962,-271.6469 97.872,-272.2598 97.9449,-272.8997 98.0143,-273.5666 98.0798,-274.2606 98.1407,-274.9816 98.1966,-275.7296 98.247,-276.5045 98.2914,-277.3064 98.3291,-278.1351 98.3598,-278.9906 98.3829,-279.8729 98.3979,-280.7819 98.4042,-281.7175 98.4014,-282.6796 98.3889,-283.6681 98.3662,-284.683 98.3329,-285.7241 98.2883,-286.7912 98.2321,-287.8844 98.1636,-289.0035 98.0824,-290.1482 97.988,-291.3186 97.8799,-292.5143 97.7575,-293.7353 97.6204,-294.9815 97.4681,-296.2525 97.3,-297.5483 97.1157,-298.8687 96.9147,-300.2134 96.6848,-301.5457 85.2047,-304.9884 84.2796,-304.0025 83.3718,-302.9903 82.4914,-301.9892 81.638,-300.9997 80.8114,-300.0222 80.0112,-299.0572 79.2371,-298.105 78.4888,-297.1661 77.7659,-296.2408 77.0682,-295.3296 76.3952,-294.4329 75.7467,-293.5511 75.1223,-292.6845 74.5215,-291.8336 73.9442,-290.9987 73.3898,-290.1801 72.858,-289.3784 72.3485,-288.5937 71.8608,-287.8265 71.3945,-287.0771 70.9494,-286.3459 70.5249,-285.6331 70.1207,-284.9392 69.7363,-284.2644 69.3714,-283.6091 69.0255,-282.9735 68.6983,-282.358 68.3893,-281.7629 68.098,-281.1885 67.824,-280.635 67.567,-280.1028 67.3265,-279.5921 67.1019,-279.1031 66.893,-278.6362 66.6991,-278.1916 66.52,-277.7696 66.355,-277.3703 66.2038,-276.994 66.066,-276.6409 65.9409,-276.3114 65.8282,-276.0055 65.7274,-275.7234 65.638,-275.4655 65.5596,-275.2318 65.4916,-275.0226 65.4336,-274.838 65.385,-274.6783 65.3455,-274.5435 65.3145,-274.4338 65.2915,-274.3494 65.2761,-274.2904 65.0169,-273.2035 48.7662,-276.5668 48.9597,-277.6673 48.969,-277.7276 48.9814,-277.8142 48.9964,-277.9271 49.0137,-278.0666 49.0326,-278.2325 49.0526,-278.4249 49.0732,-278.6439 49.094,-278.8895 49.1143,-279.1618 49.1337,-279.4606 49.1517,-279.7861 49.1677,-280.1383 49.1813,-280.5171 49.1919,-280.9224 49.199,-281.3544 49.2021,-281.8129 49.2007,-282.2979 49.1942,-282.8094 49.1822,-283.3473 49.1641,-283.9116 49.1394,-284.5021 49.1077,-285.1188 49.0684,-285.7617 49.0209,-286.4306 48.9648,-287.1254 48.8997,-287.846 48.8249,-288.5923 48.7399,-289.3642 48.6444,-290.1616 48.5376,-290.9843 48.4193,-291.8322 48.2888,-292.705 48.1457,-293.6028 47.9895,-294.5253 47.8196,-295.4723 47.6357,-296.4436 47.4372,-297.4391 47.2235,-298.4586 46.9944,-299.5018 46.7491,-300.5686 46.4874,-301.6588 46.2086,-302.7721 45.9124,-303.9082 45.5983,-305.067 45.2658,-306.2483 44.9143,-307.4516 44.5436,-308.6769 44.1531,-309.9239 43.7423,-311.1922 43.3109,-312.4816 42.8531,-313.7537 30.9496,-315.1506 30.2097,-314.019 29.4915,-312.8645 28.7983,-311.7258 28.1297,-310.6031 27.4853,-309.497 26.8649,-308.4076 26.2679,-307.3355 25.694,-306.2809 25.1428,-305.2442 24.6139,-304.2257 24.1069,-303.2257 23.6213,-302.2447 23.1569,-301.2828 22.713,-300.3405 22.2894,-299.418 21.8856,-298.5157 21.5011,-297.6337 21.1356,-296.7725 20.7885,-295.9322 20.4595,-295.1133 20.148,-294.3158 19.8538,-293.5402 19.5762,-292.7866 19.3149,-292.0553 19.0693,-291.3466 18.8391,-290.6607 18.6237,-289.9977 18.4226,-289.358 18.2355,-288.7417 18.0619,-288.1491 17.9012,-287.5803 17.753,-287.0356 17.6167,-286.5151 17.492,-286.019 17.3783,-285.5475 17.2752,-285.1007 17.1821,-284.6788 17.0986,-284.282 17.0241,-283.9104 16.9581,-283.5641 16.9003,-283.2433 16.85,-282.948 16.8067,-282.6785 16.7701,-282.4347 16.7394,-282.2169 16.7144,-282.025 16.6943,-281.8593 16.6788,-281.7197 16.6673,-281.6063 16.6593,-281.5192 16.6544,-281.4584 16.5879,-280.343 0,-280.8333 -0.0005,-281.9507 -0.0019,-282.0117 -0.0047,-282.0991 -0.0095,-282.213 -0.0167,-282.3532 -0.0269,-282.5199 -0.0406,-282.7129 -0.0583,-282.9322 -0.0806,-283.1777 -0.1078,-283.4493 -0.1406,-283.747 -0.1794,-284.0707 -0.2247,-284.4202 -0.2771,-284.7956 -0.3371,-285.1967 -0.4051,-285.6233 -0.4817,-286.0754 -0.5673,-286.5528 -0.6625,-287.0554 -0.7678,-287.583 -0.8835,-288.1356 -1.0104,-288.7128 -1.1487,-289.3147 -1.2991,-289.9409 -1.462,-290.5914 -1.6378,-291.2659 -1.8272,-291.9643 -2.0304,-292.6863 -2.2481,-293.4317 -2.4807,-294.2004 -2.7286,-294.9921 -2.9924,-295.8065 -3.2725,-296.6435 -3.5693,-297.5027 -3.8834,-298.3841 -4.2151,-299.2872 -4.5649,-300.2118 -4.9333,-301.1577 -5.3207,-302.1246 -5.7275,-303.1122 -6.1543,-304.1202 -6.6014,-305.1484 -7.0692,-306.1963 -7.5582,-307.2638 -8.0688,-308.3504 -8.6014,-309.456 -9.1564,-310.5801 -9.7343,-311.7224 -10.3354,-312.8825 -10.9602,-314.0602 -11.609,-315.2551 -12.2807,-316.4284 -24.2459,-315.7371 -24.778,-314.4942 -25.2849,-313.2326 -25.7699,-311.9907 -26.2333,-310.769 -26.6758,-309.5678 -27.0977,-308.3873 -27.4994,-307.2277 -27.8815,-306.0895 -28.2443,-304.9728 -28.5883,-303.878 -28.9139,-302.8052 -29.2218,-301.7547 -29.5122,-300.7268 -29.7856,-299.7218 -30.0426,-298.7397 -30.2836,-297.7809 -30.5091,-296.8456 -30.7195,-295.934 -30.9154,-295.0463 -31.0972,-294.1826 -31.2655,-293.3432 -31.4206,-292.5282 -31.5631,-291.7379 -31.6935,-290.9724 -31.8122,-290.2318 -31.9199,-289.5162 -32.0169,-288.826 -32.1037,-288.1611 -32.181,-287.5216 -32.2491,-286.9079 -32.3086,-286.3198 -32.36,-285.7576 -32.4037,-285.2214 -32.4404,-284.7112 -32.4705,-284.2271 -32.4945,-283.7692 -32.5129,-283.3375 -32.5263,-282.9323 -32.5351,-282.5533 -32.5399,-282.2009 -32.5412,-281.8749 -32.5394,-281.5754 -32.5352,-281.3024 -32.529,-281.056 -32.5213,-280.8362 -32.5127,-280.6429 -32.5037,-280.4761 -32.4947,-280.336 -32.4863,-280.2223 -32.479,-280.1351 -32.4734,-280.0744 -32.3452,-278.9644 -48.7662,-276.5668 -48.9607,-277.6672 -48.9727,-277.7269 -48.9906,-277.8125 -49.0151,-277.9239 -49.0466,-278.0608 -49.0856,-278.2231 -49.1326,-278.4108 -49.1881,-278.6237 -49.2526,-278.8616 -49.3266,-279.1243 -49.4106,-279.4118 -49.505,-279.7238 -49.6104,-280.0602 -49.7272,-280.4208 -49.8559,-280.8054 -49.9969,-281.2137 -50.1508,-281.6456 -50.3181,-282.1009 -50.4991,-282.5793 -50.6944,-283.0807 -50.9043,-283.6047 -51.1295,-284.1512 -51.3702,-284.7199 -51.6271,-285.3105 -51.9004,-285.9228 -52.1907,-286.5565 -52.4985,-287.2114 -52.824,-287.8872 -53.1678,-288.5835 -53.5304,-289.3001 -53.912,-290.0366 -54.3132,-290.7929 -54.7344,-291.5685 -55.1759,-292.3632 -55.6382,-293.1766 -56.1217,-294.0084 -56.6268,-294.8582 -57.1538,-295.7258 -57.7032,-296.6107 -58.2754,-297.5127 -58.8707,-298.4313 -59.4895,-299.3662 -60.1322,-300.317 -60.7991,-301.2833 -61.4907,-302.2648 -62.2072,-303.261 -62.949,-304.2717 -63.7164,-305.2963 -64.5099,-306.3344 -65.3297,-307.3858 -66.1761,-308.4498 -67.0414,-309.4887 -78.7047,-306.7301 -79.013,-305.4137 -79.293,-304.0832 -79.555,-302.776 -79.7993,-301.4924 -80.0264,-300.2326 -80.2369,-298.9967 -80.4312,-297.785 -80.6098,-296.5977 -80.7731,-295.435 -80.9218,-294.2971 -81.0562,-293.184 -81.177,-292.0961 -81.2845,-291.0334 -81.3792,-289.9961 -81.4618,-288.9843 -81.5327,-287.9983 -81.5923,-287.038 -81.6412,-286.1037 -81.68,-285.1954 -81.7091,-284.3133 -81.729,-283.4575 -81.7402,-282.628 -81.7433,-281.8249 -81.7388,-281.0483 -81.7271,-280.2983 -81.7089,-279.575 -81.6845,-278.8784 -81.6546,-278.2085 -81.6197,-277.5654 -81.5802,-276.9491 -81.5367,-276.3597 -81.4896,-275.7971 -81.4396,-275.2614 -81.3871,-274.7525 -81.3327,-274.2706 -81.2768,-273.8155 -81.22,-273.3872 -81.1628,-272.9857 -81.1057,-272.6111 -81.0492,-272.2631 -80.9938,-271.9418 -80.9401,-271.6472 -80.8886,-271.3791 -80.8397,-271.1375 -80.7939,-270.9224 -80.7519,-270.7335 -80.714,-270.5709 -80.6808,-270.4344 -80.6529,-270.3239 -80.6306,-270.2393 -80.6145,-270.1805 -80.2955,-269.1096 -96.0507,-263.897 -96.4333,-264.9468 -96.4554,-265.0036 -96.488,-265.0848 -96.5314,-265.1902 -96.5862,-265.3195 -96.6528,-265.4727 -96.7317,-265.6493 -96.8233,-265.8493 -96.9282,-266.0724 -97.0467,-266.3183 -97.1793,-266.5869 -97.3264,-266.8778 -97.4886,-267.1907 -97.6663,-267.5256 -97.8598,-267.8819 -98.0696,-268.2596 -98.2962,-268.6582 -98.5399,-269.0775 -98.8013,-269.5172 -99.0806,-269.9771 -99.3784,-270.4567 -99.695,-270.9558 -100.0309,-271.474 -100.3864,-272.0111 -100.7619,-272.5666 -101.1579,-273.1403 -101.5746,-273.7318 -102.0126,-274.3407 -102.4721,-274.9667 -102.9536,-275.6095 -103.4573,-276.2686 -103.9837,-276.9437 -104.5332,-277.6344 -105.106,-278.3404 -105.7025,-279.0611 -106.3231,-279.7963 -106.9681,-280.5455 -107.6378,-281.3084 -108.3325,-282.0845 -109.0526,-282.8734 -109.7984,-283.6746 -110.5701,-284.4879 -111.3682,-285.3126 -112.1928,-286.1485 -113.0442,-286.9949 -113.9228,-287.8516 -114.8289,-288.7181 -115.7626,-289.5939 -116.7242,-290.4785 -117.7141,-291.3715 -118.7325,-292.2724 -119.765,-293.1452 -130.7722,-288.4032 -130.8471,-287.0533 -130.8919,-285.6944 -130.9229,-284.3616 -130.9406,-283.055 -130.9455,-281.7749 -130.9382,-280.5213 -130.9191,-279.2943 -130.8888,-278.094 -130.8478,-276.9206 -130.7966,-275.7741 -130.7357,-274.6546 -130.6657,-273.5622 -130.587,-272.497 -130.5002,-271.459 -130.4058,-270.4483 -130.3044,-269.4649 -130.1964,-268.5089 -130.0823,-267.5803 -129.9628,-266.6791 -129.8382,-265.8053 -129.7092,-264.959 -129.5762,-264.1402 -129.4398,-263.3488 -129.3005,-262.5848 -129.1588,-261.8482 -129.0152,-261.139 -128.8703,-260.4572 -128.7245,-259.8027 -128.5784,-259.1754 -128.4325,-258.5754 -128.2873,-258.0024 -128.1433,-257.4566 -128.001,-256.9377 -127.861,-256.4457 -127.7236,-255.9805 -127.5896,-255.542 -127.4593,-255.1301 -127.3332,-254.7447 -127.2119,-254.3856 -127.0959,-254.0528 -126.9856,-253.746 -126.8815,-253.4652 -126.7842,-253.2101 -126.6941,-252.9807 -126.6117,-252.7767 -126.5375,-252.598 -126.4719,-252.4444 -126.4156,-252.3158 -126.3688,-252.2118 -126.3322,-252.1324 -126.3061,-252.0773 -125.806,-251.0781 -140.4167,-243.2088 -140.9758,-244.1762 -141.0075,-244.2283 -141.0536,-244.3026 -141.1147,-244.3988 -141.1911,-244.5167 -141.2833,-244.6559 -141.3916,-244.8162 -141.5166,-244.9973 -141.6586,-245.1988 -141.818,-245.4204 -141.9952,-245.6618 -142.1907,-245.9227 -142.4047,-246.2028 -142.6378,-246.5017 -142.8903,-246.819 -143.1625,-247.1545 -143.4548,-247.5077 -143.7677,-247.8783 -144.1014,-248.266 -144.4564,-248.6703 -144.833,-249.091 -145.2314,-249.5275 -145.6522,-249.9795 -146.0955,-250.4467 -146.5618,-250.9286 -147.0514,-251.4248 -147.5645,-251.9349 -148.1015,-252.4586 -148.6628,-252.9953 -149.2485,-253.5447 -149.8591,-254.1063 -150.4948,-254.6797 -151.1558,-255.2645 -151.8425,-255.8603 -152.5551,-256.4665 -153.2939,-257.0828 -154.0592,-257.7086 -154.8512,-258.3436 -155.6702,-258.9872 -156.5163,-259.6391 -157.3899,-260.2987 -158.2911,-260.9655 -159.2202,-261.6392 -160.1775,-262.3191 -161.163,-263.0049 -162.177,-263.696 -163.2197,-264.392 -164.2913,-265.0923 -165.392,-265.7965 -166.5219,-266.5041 -167.6812,-267.2145 -168.8496,-267.8947 -178.8661,-261.3134 -178.7055,-259.971 -178.5136,-258.6249 -178.3127,-257.307 -178.1033,-256.0172 -177.8858,-254.7557 -177.6609,-253.5224 -177.4291,-252.3173 -177.1908,-251.1405 -176.9467,-249.9921 -176.6971,-248.8719 -176.4428,-247.78 -176.1841,-246.7164 -175.9217,-245.681 -175.656,-244.6738 -175.3875,-243.6949 -175.1168,-242.744 -174.8445,-241.8213 -174.5709,-240.9266 -174.2967,-240.0598 -174.0223,-239.221 -173.7483,-238.4099 -173.4751,-237.6266 -173.2034,-236.8709 -172.9335,-236.1427 -172.6661,-235.442 -172.4015,-234.7685 -172.1404,-234.1222 -171.8832,-233.5029 -171.6304,-232.9106 -171.3825,-232.345 -171.14,-231.806 -170.9034,-231.2934 -170.6731,-230.8071 -170.4498,-230.3469 -170.2338,-229.9126 -170.0256,-229.5041 -169.8258,-229.1211 -169.6347,-228.7634 -169.4529,-228.4308 -169.2808,-228.1232 -169.1189,-227.8402 -168.9677,-227.5817 -168.8275,-227.3474 -168.6989,-227.1371 -168.5824,-226.9506 -168.4783,-226.7875 -168.3871,-226.6476 -168.3092,-226.5307 -168.2451,-226.4365 -168.1952,-226.3646 -168.16,-226.3149 -167.494,-225.4177 -180.5162,-215.1308 -181.2348,-215.9865 -181.275,-216.0323 -181.3334,-216.0974 -181.4102,-216.1816 -181.506,-216.2844 -181.6209,-216.4055 -181.7555,-216.5445 -181.91,-216.7011 -182.0848,-216.8749 -182.2803,-217.0655 -182.4967,-217.2724 -182.7345,-217.4955 -182.994,-217.7341 -183.2754,-217.988 -183.5791,-218.2566 -183.9055,-218.5397 -184.2547,-218.8368 -184.6272,-219.1475 -185.0232,-219.4713 -185.4429,-219.8079 -185.8868,-220.1567 -186.355,-220.5174 -186.8479,-220.8895 -187.3656,-221.2726 -187.9085,-221.6662 -188.4768,-222.0699 -189.0707,-222.4832 -189.6905,-222.9056 -190.3364,-223.3367 -191.0087,-223.776 -191.7075,-224.2231 -192.4331,-224.6774 -193.1856,-225.1386 -193.9653,-225.606 -194.7724,-226.0793 -195.607,-226.5579 -196.4693,-227.0413 -197.3596,-227.5291 -198.2778,-228.0208 -199.2243,-228.5158 -200.1992,-229.0137 -201.2025,-229.5139 -202.2345,-230.016 -203.2952,-230.5194 -204.3849,-231.0236 -205.5035,-231.5282 -206.6512,-232.0325 -207.8282,-232.5361 -209.0344,-233.0385 -210.27,-233.539 -211.5351,-234.0373 -212.8039,-234.5044 -221.5253,-226.2837 -221.1341,-224.9895 -220.7114,-223.6972 -220.2846,-222.4342 -219.8544,-221.2004 -219.4212,-219.9958 -218.9855,-218.8203 -218.548,-217.6738 -218.109,-216.5563 -217.6691,-215.4677 -217.2289,-214.4078 -216.7888,-213.3767 -216.3494,-212.3741 -215.9111,-211.4001 -215.4745,-210.4544 -215.0402,-209.5369 -214.6085,-208.6475 -214.18,-207.7861 -213.7552,-206.9524 -213.3347,-206.1465 -212.9188,-205.368 -212.5081,-204.6169 -212.1031,-203.8929 -211.7042,-203.1959 -211.312,-202.5256 -210.9269,-201.8819 -210.5495,-201.2646 -210.1801,-200.6735 -209.8192,-200.1083 -209.4674,-199.5688 -209.1251,-199.0549 -208.7926,-198.5662 -208.4706,-198.1025 -208.1595,-197.6635 -207.8596,-197.2491 -207.5715,-196.8589 -207.2955,-196.4928 -207.0322,-196.1503 -206.7819,-195.8312 -206.5451,-195.5353 -206.3222,-195.2622 -206.1136,-195.0116 -205.9198,-194.7833 -205.7411,-194.5769 -205.578,-194.3922 -205.4308,-194.2287 -205.2999,-194.0861 -205.1858,-193.9642 -205.0889,-193.8626 -205.0094,-193.7809 -204.9478,-193.7188 -204.9044,-193.676 -204.0927,-192.9081 -215.1308,-180.5162 -215.9871,-181.234 -216.0347,-181.2722 -216.1035,-181.3262 -216.1938,-181.3957 -216.3059,-181.4804 -216.4401,-181.5797 -216.5968,-181.6932 -216.7761,-181.8206 -216.9784,-181.9614 -217.204,-182.1151 -217.4532,-182.2814 -217.7261,-182.4597 -218.023,-182.6497 -218.3442,-182.8508 -218.69,-183.0627 -219.0605,-183.2848 -219.4561,-183.5167 -219.8768,-183.758 -220.323,-184.0081 -220.7949,-184.2667 -221.2926,-184.5331 -221.8163,-184.8071 -222.3663,-185.0879 -222.9427,-185.3753 -223.5457,-185.6686 -224.1754,-185.9675 -224.8321,-186.2713 -225.5158,-186.5797 -226.2268,-186.8921 -226.9651,-187.208 -227.731,-187.527 -228.5244,-187.8484 -229.3456,-188.1719 -230.1946,-188.4968 -231.0716,-188.8228 -231.9767,-189.1492 -232.9098,-189.4755 -233.8713,-189.8013 -234.861,-190.1261 -235.879,-190.4492 -236.9255,-190.7703 -238.0005,-191.0886 -239.104,-191.4039 -240.236,-191.7154 -241.3966,-192.0228 -242.5859,-192.3254 -243.8038,-192.6228 -245.0503,-192.9144 -246.3254,-193.1996 -247.6292,-193.4781 -248.9616,-193.7491 -250.2921,-193.9887 -257.4536,-184.3784 -256.8436,-183.1719 -256.2029,-181.9727 -255.5633,-180.8029 -254.9254,-179.6626 -254.2896,-178.5515 -253.6564,-177.4695 -253.0264,-176.4164 -252.4,-175.3921 -251.7778,-174.3964 -251.1602,-173.4291 -250.5477,-172.49 -249.9409,-171.579 -249.3402,-170.6959 -248.746,-169.8403 -248.1589,-169.0122 -247.5794,-168.2113 -247.0078,-167.4374 -246.4447,-166.6902 -245.8906,-165.9695 -245.3459,-165.2751 -244.811,-164.6066 -244.2864,-163.964 -243.7726,-163.3468 -243.2699,-162.7548 -242.7789,-162.1878 -242.3,-161.6454 -241.8336,-161.1274 -241.38,-160.6335 -240.9399,-160.1633 -240.5135,-159.7166 -240.1013,-159.293 -239.7036,-158.8923 -239.321,-158.5141 -238.9537,-158.158 -238.6022,-157.8238 -238.2668,-157.5111 -237.948,-157.2195 -237.6462,-156.9488 -237.3616,-156.6985 -237.0946,-156.4682 -236.8457,-156.2577 -236.6152,-156.0665 -236.4034,-155.8943 -236.2106,-155.7407 -236.0373,-155.6052 -235.8837,-155.4876 -235.7501,-155.3873 -235.637,-155.3041 -235.5445,-155.2375 -235.4731,-155.187 -235.423,-155.1523 -234.4902,-154.537 -243.2088,-140.4167 -244.1767,-140.9749 -244.2302,-141.0042 -244.3073,-141.0455 -244.4083,-141.0983 -244.5334,-141.1621 -244.6829,-141.2366 -244.8569,-141.3213 -245.0556,-141.4156 -245.2793,-141.5191 -245.5282,-141.6313 -245.8024,-141.7518 -246.1021,-141.88 -246.4275,-142.0155 -246.7788,-142.1578 -247.1561,-142.3064 -247.5596,-142.4608 -247.9894,-142.6205 -248.4457,-142.7851 -248.9285,-142.9539 -249.4381,-143.1266 -249.9745,-143.3026 -250.5378,-143.4814 -251.1282,-143.6625 -251.7458,-143.8454 -252.3905,-144.0296 -253.0626,-144.2146 -253.7621,-144.3998 -254.489,-144.5847 -255.2434,-144.7689 -256.0254,-144.9518 -256.8349,-145.133 -257.6721,-145.3117 -258.537,-145.4877 -259.4296,-145.6602 -260.3499,-145.8289 -261.2978,-145.9932 -262.2735,-146.1526 -263.2769,-146.3065 -264.3079,-146.4545 -265.3666,-146.5959 -266.453,-146.7303 -267.5669,-146.8572 -268.7084,-146.9761 -269.8773,-147.0863 -271.0737,-147.1875 -272.2974,-147.279 -273.5484,-147.3603 -274.8266,-147.431 -276.1319,-147.4905 -277.4642,-147.5383 -278.8234,-147.5739 -280.1754,-147.5788 -285.5593,-136.871 -284.749,-135.7887 -283.9098,-134.7189 -283.0768,-133.678 -282.2506,-132.6658 -281.4315,-131.682 -280.62,-130.7263 -279.8167,-129.7987 -279.022,-128.8987 -278.2363,-128.0262 -277.4602,-127.1808 -276.6939,-126.3624 -275.9381,-125.5706 -275.1932,-124.8051 -274.4595,-124.0658 -273.7375,-123.3522 -273.0277,-122.6641 -272.3304,-122.0012 -271.6461,-121.3631 -270.9753,-120.7496 -270.3182,-120.1603 -269.6754,-119.5949 -269.0472,-119.0531 -268.434,-118.5345 -267.8362,-118.0388 -267.2542,-117.5657 -266.6883,-117.1147 -266.139,-116.6856 -265.6067,-116.2779 -265.0915,-115.8913 -264.594,-115.5254 -264.1145,-115.1799 -263.6533,-114.8543 -263.2108,-114.5482 -262.7873,-114.2614 -262.3831,-113.9933 -261.9985,-113.7435 -261.634,-113.5118 -261.2897,-113.2976 -260.9659,-113.1005 -260.6631,-112.9201 -260.3814,-112.756 -260.1211,-112.6077 -259.8826,-112.4749 -259.6661,-112.3571 -259.4719,-112.2538 -259.3002,-112.1646 -259.1513,-112.0891 -259.0254,-112.0267 -258.9228,-111.9772 -258.8437,-111.9399 -258.7883,-111.9144 -257.7629,-111.4704 -263.897,-96.0507 -264.9472,-96.4324 -265.0049,-96.4519 -265.088,-96.4792 -265.1967,-96.5136 -265.331,-96.5548 -265.4911,-96.6022 -265.6771,-96.6553 -265.8892,-96.7137 -266.1275,-96.7768 -266.3921,-96.8441 -266.683,-96.9151 -267.0005,-96.9893 -267.3445,-97.0663 -267.7151,-97.1454 -268.1125,-97.2262 -268.5367,-97.3082 -268.9877,-97.3909 -269.4656,-97.4737 -269.9704,-97.5562 -270.5022,-97.6377 -271.0611,-97.7179 -271.6469,-97.7962 -272.2598,-97.872 -272.8997,-97.9449 -273.5666,-98.0143 -274.2606,-98.0798 -274.9816,-98.1407 -275.7296,-98.1966 -276.5045,-98.247 -277.3064,-98.2914 -278.1351,-98.3291 -278.9906,-98.3598 -279.8729,-98.3829 -280.7819,-98.3979 -281.7175,-98.4042 -282.6796,-98.4014 -283.6681,-98.3889 -284.683,-98.3662 -285.7241,-98.3329 -286.7912,-98.2883 -287.8844,-98.2321 -289.0035,-98.1636 -290.1482,-98.0824 -291.3186,-97.988 -292.5143,-97.8799 -293.7353,-97.7575 -294.9815,-97.6204 -296.2525,-97.4681 -297.5483,-97.3 -298.8687,-97.1157 -300.2134,-96.9147 -301.5457,-96.6848 -304.9884,-85.2047 -304.0025,-84.2796 -302.9903,-83.3718 -301.9892,-82.4914 -300.9997,-81.638 -300.0222,-80.8114 -299.0572,-80.0112 -298.105,-79.2371 -297.1661,-78.4888 -296.2408,-77.7659 -295.3296,-77.0682 -294.4329,-76.3952 -293.5511,-75.7467 -292.6845,-75.1223 -291.8336,-74.5215 -290.9987,-73.9442 -290.1801,-73.3898 -289.3784,-72.858 -288.5937,-72.3485 -287.8265,-71.8608 -287.0771,-71.3945 -286.3459,-70.9494 -285.6331,-70.5249 -284.9392,-70.1207 -284.2644,-69.7363 -283.6091,-69.3714 -282.9735,-69.0255 -282.358,-68.6983 -281.7629,-68.3893 -281.1885,-68.098 -280.635,-67.824 -280.1028,-67.567 -279.5921,-67.3265 -279.1031,-67.1019 -278.6362,-66.893 -278.1916,-66.6991 -277.7696,-66.52 -277.3703,-66.355 -276.994,-66.2038 -276.6409,-66.066 -276.3114,-65.9409 -276.0055,-65.8282 -275.7234,-65.7274 -275.4655,-65.638 -275.2318,-65.5596 -275.0226,-65.4916 -274.838,-65.4336 -274.6783,-65.385 -274.5435,-65.3455 -274.4338,-65.3145 -274.3494,-65.2915 -274.2904,-65.2761 -273.2035,-65.0169 -276.5668,-48.7662 -277.6673,-48.9597 -277.7276,-48.969 -277.8142,-48.9814 -277.9271,-48.9964 -278.0666,-49.0137 -278.2325,-49.0326 -278.4249,-49.0526 -278.6439,-49.0732 -278.8895,-49.094 -279.1618,-49.1143 -279.4606,-49.1337 -279.7861,-49.1517 -280.1383,-49.1677 -280.5171,-49.1813 -280.9224,-49.1919 -281.3544,-49.199 -281.8129,-49.2021 -282.2979,-49.2007 -282.8094,-49.1942 -283.3473,-49.1822 -283.9116,-49.1641 -284.5021,-49.1394 -285.1188,-49.1077 -285.7617,-49.0684 -286.4306,-49.0209 -287.1254,-48.9648 -287.846,-48.8997 -288.5923,-48.8249 -289.3642,-48.7399 -290.1616,-48.6444 -290.9843,-48.5376 -291.8322,-48.4193 -292.705,-48.2888 -293.6028,-48.1457 -294.5253,-47.9895 -295.4723,-47.8196 -296.4436,-47.6357 -297.4391,-47.4372 -298.4586,-47.2235 -299.5018,-46.9944 -300.5686,-46.7491 -301.6588,-46.4874 -302.7721,-46.2086 -303.9082,-45.9124 -305.067,-45.5983 -306.2483,-45.2658 -307.4516,-44.9143 -308.6769,-44.5436 -309.9239,-44.1531 -311.1922,-43.7423 -312.4816,-43.3109 -313.7537,-42.8531 -315.1506,-30.9496 -314.019,-30.2097 -312.8645,-29.4915 -311.7258,-28.7983 -310.6031,-28.1297 -309.497,-27.4853 -308.4076,-26.8649 -307.3355,-26.2679 -306.2809,-25.694 -305.2442,-25.1428 -304.2257,-24.6139 -303.2257,-24.1069 -302.2447,-23.6213 -301.2828,-23.1569 -300.3405,-22.713 -299.418,-22.2894 -298.5157,-21.8856 -297.6337,-21.5011 -296.7725,-21.1356 -295.9322,-20.7885 -295.1133,-20.4595 -294.3158,-20.148 -293.5402,-19.8538 -292.7866,-19.5762 -292.0553,-19.3149 -291.3466,-19.0693 -290.6607,-18.8391 -289.9977,-18.6237 -289.358,-18.4226 -288.7417,-18.2355 -288.1491,-18.0619 -287.5803,-17.9012 -287.0356,-17.753 -286.5151,-17.6167 -286.019,-17.492 -285.5475,-17.3783 -285.1007,-17.2752 -284.6788,-17.1821 -284.282,-17.0986 -283.9104,-17.0241 -283.5641,-16.9581 -283.2433,-16.9003 -282.948,-16.85 -282.6785,-16.8067 -282.4347,-16.7701 -282.2169,-16.7394 -282.025,-16.7144 -281.8593,-16.6943 -281.7197,-16.6788 -281.6063,-16.6673 -281.5192,-16.6593 -281.4584,-16.6544 -280.343,-16.5879 -280.8333,0 -281.9507,0.0005 -282.0117,0.0019 -282.0991,0.0047 -282.213,0.0095 -282.3532,0.0167 -282.5199,0.0269 -282.7129,0.0406 -282.9322,0.0583 -283.1777,0.0806 -283.4493,0.1078 -283.747,0.1406 -284.0707,0.1794 -284.4202,0.2247 -284.7956,0.2771 -285.1967,0.3371 -285.6233,0.4051 -286.0754,0.4817 -286.5528,0.5673 -287.0554,0.6625 -287.583,0.7678 -288.1356,0.8835 -288.7128,1.0104 -289.3147,1.1487 -289.9409,1.2991 -290.5914,1.462 -291.2659,1.6378 -291.9643,1.8272 -292.6863,2.0304 -293.4317,2.2481 -294.2004,2.4807 -294.9921,2.7286 -295.8065,2.9924 -296.6435,3.2725 -297.5027,3.5693 -298.3841,3.8834 -299.2872,4.2151 -300.2118,4.5649 -301.1577,4.9333 -302.1246,5.3207 -303.1122,5.7275 -304.1202,6.1543 -305.1484,6.6014 -306.1963,7.0692 -307.2638,7.5582 -308.3504,8.0688 -309.456,8.6014 -310.5801,9.1564 -311.7224,9.7343 -312.8825,10.3354 -314.0602,10.9602 -315.2551,11.609 -316.4284,12.2807 -315.7371,24.2459 -314.4942,24.778 -313.2326,25.2849 -311.9907,25.7699 -310.769,26.2333 -309.5678,26.6758 -308.3873,27.0977 -307.2277,27.4994 -306.0895,27.8815 -304.9728,28.2443 -303.878,28.5883 -302.8052,28.9139 -301.7547,29.2218 -300.7268,29.5122 -299.7218,29.7856 -298.7397,30.0426 -297.7809,30.2836 -296.8456,30.5091 -295.934,30.7195 -295.0463,30.9154 -294.1826,31.0972 -293.3432,31.2655 -292.5282,31.4206 -291.7379,31.5631 -290.9724,31.6935 -290.2318,31.8122 -289.5162,31.9199 -288.826,32.0169 -288.1611,32.1037 -287.5216,32.181 -286.9079,32.2491 -286.3198,32.3086 -285.7576,32.36 -285.2214,32.4037 -284.7112,32.4404 -284.2271,32.4705 -283.7692,32.4945 -283.3375,32.5129 -282.9323,32.5263 -282.5533,32.5351 -282.2009,32.5399 -281.8749,32.5412 -281.5754,32.5394 -281.3024,32.5352 -281.056,32.529 -280.8362,32.5213 -280.6429,32.5127 -280.4761,32.5037 -280.336,32.4947 -280.2223,32.4863 -280.1351,32.479 -280.0744,32.4734 -278.9644,32.3452 -276.5668,48.7662 -277.6672,48.9607 -277.7269,48.9727 -277.8125,48.9906 -277.9239,49.0151 -278.0608,49.0466 -278.2231,49.0856 -278.4108,49.1326 -278.6237,49.1881 -278.8616,49.2526 -279.1243,49.3266 -279.4118,49.4106 -279.7238,49.505 -280.0602,49.6104 -280.4208,49.7272 -280.8054,49.8559 -281.2137,49.9969 -281.6456,50.1508 -282.1009,50.3181 -282.5793,50.4991 -283.0807,50.6944 -283.6047,50.9043 -284.1512,51.1295 -284.7199,51.3702 -285.3105,51.6271 -285.9228,51.9004 -286.5565,52.1907 -287.2114,52.4985 -287.8872,52.824 -288.5835,53.1678 -289.3001,53.5304 -290.0366,53.912 -290.7929,54.3132 -291.5685,54.7344 -292.3632,55.1759 -293.1766,55.6382 -294.0084,56.1217 -294.8582,56.6268 -295.7258,57.1538 -296.6107,57.7032 -297.5127,58.2754 -298.4313,58.8707 -299.3662,59.4895 -300.317,60.1322 -301.2833,60.7991 -302.2648,61.4907 -303.261,62.2072 -304.2717,62.949 -305.2963,63.7164 -306.3344,64.5099 -307.3858,65.3297 -308.4498,66.1761 -309.4887,67.0414 -306.7301,78.7047 -305.4137,79.013 -304.0832,79.293 -302.776,79.555 -301.4924,79.7993 -300.2326,80.0264 -298.9967,80.2369 -297.785,80.4312 -296.5977,80.6098 -295.435,80.7731 -294.2971,80.9218 -293.184,81.0562 -292.0961,81.177 -291.0334,81.2845 -289.9961,81.3792 -288.9843,81.4618 -287.9983,81.5327 -287.038,81.5923 -286.1037,81.6412 -285.1954,81.68 -284.3133,81.7091 -283.4575,81.729 -282.628,81.7402 -281.8249,81.7433 -281.0483,81.7388 -280.2983,81.7271 -279.575,81.7089 -278.8784,81.6845 -278.2085,81.6546 -277.5654,81.6197 -276.9491,81.5802 -276.3597,81.5367 -275.7971,81.4896 -275.2614,81.4396 -274.7525,81.3871 -274.2706,81.3327 -273.8155,81.2768 -273.3872,81.22 -272.9857,81.1628 -272.6111,81.1057 -272.2631,81.0492 -271.9418,80.9938 -271.6472,80.9401 -271.3791,80.8886 -271.1375,80.8397 -270.9224,80.7939 -270.7335,80.7519 -270.5709,80.714 -270.4344,80.6808 -270.3239,80.6529 -270.2393,80.6306 -270.1805,80.6145 -269.1096,80.2955 -263.897,96.0507 -264.9468,96.4333 -265.0036,96.4554 -265.0848,96.488 -265.1902,96.5314 -265.3195,96.5862 -265.4727,96.6528 -265.6493,96.7317 -265.8493,96.8233 -266.0724,96.9282 -266.3183,97.0467 -266.5869,97.1793 -266.8778,97.3264 -267.1907,97.4886 -267.5256,97.6663 -267.8819,97.8598 -268.2596,98.0696 -268.6582,98.2962 -269.0775,98.5399 -269.5172,98.8013 -269.9771,99.0806 -270.4567,99.3784 -270.9558,99.695 -271.474,100.0309 -272.0111,100.3864 -272.5666,100.7619 -273.1403,101.1579 -273.7318,101.5746 -274.3407,102.0126 -274.9667,102.4721 -275.6095,102.9536 -276.2686,103.4573 -276.9437,103.9837 -277.6344,104.5332 -278.3404,105.106 -279.0611,105.7025 -279.7963,106.3231 -280.5455,106.9681 -281.3084,107.6378 -282.0845,108.3325 -282.8734,109.0526 -283.6746,109.7984 -284.4879,110.5701 -285.3126,111.3682 -286.1485,112.1928 -286.9949,113.0442 -287.8516,113.9228 -288.7181,114.8289 -289.5939,115.7626 -290.4785,116.7242 -291.3715,117.7141 -292.2724,118.7325 -293.1452,119.765 -288.4032,130.7722 -287.0533,130.8471 -285.6944,130.8919 -284.3616,130.9229 -283.055,130.9406 -281.7749,130.9455 -280.5213,130.9382 -279.2943,130.9191 -278.094,130.8888 -276.9206,130.8478 -275.7741,130.7966 -274.6546,130.7357 -273.5622,130.6657 -272.497,130.587 -271.459,130.5002 -270.4483,130.4058 -269.4649,130.3044 -268.5089,130.1964 -267.5803,130.0823 -266.6791,129.9628 -265.8053,129.8382 -264.959,129.7092 -264.1402,129.5762 -263.3488,129.4398 -262.5848,129.3005 -261.8482,129.1588 -261.139,129.0152 -260.4572,128.8703 -259.8027,128.7245 -259.1754,128.5784 -258.5754,128.4325 -258.0024,128.2873 -257.4566,128.1433 -256.9377,128.001 -256.4457,127.861 -255.9805,127.7236 -255.542,127.5896 -255.1301,127.4593 -254.7447,127.3332 -254.3856,127.2119 -254.0528,127.0959 -253.746,126.9856 -253.4652,126.8815 -253.2101,126.7842 -252.9807,126.6941 -252.7767,126.6117 -252.598,126.5375 -252.4444,126.4719 -252.3158,126.4156 -252.2118,126.3688 -252.1324,126.3322 -252.0773,126.3061 -251.0781,125.806 -243.2088,140.4167 -244.1762,140.9758 -244.2283,141.0075 -244.3026,141.0536 -244.3988,141.1147 -244.5167,141.1911 -244.6559,141.2833 -244.8162,141.3916 -244.9973,141.5166 -245.1988,141.6586 -245.4204,141.818 -245.6618,141.9952 -245.9227,142.1907 -246.2028,142.4047 -246.5017,142.6378 -246.819,142.8903 -247.1545,143.1625 -247.5077,143.4548 -247.8783,143.7677 -248.266,144.1014 -248.6703,144.4564 -249.091,144.833 -249.5275,145.2314 -249.9795,145.6522 -250.4467,146.0955 -250.9286,146.5618 -251.4248,147.0514 -251.9349,147.5645 -252.4586,148.1015 -252.9953,148.6628 -253.5447,149.2485 -254.1063,149.8591 -254.6797,150.4948 -255.2645,151.1558 -255.8603,151.8425 -256.4665,152.5551 -257.0828,153.2939 -257.7086,154.0592 -258.3436,154.8512 -258.9872,155.6702 -259.6391,156.5163 -260.2987,157.3899 -260.9655,158.2911 -261.6392,159.2202 -262.3191,160.1775 -263.0049,161.163 -263.696,162.177 -264.392,163.2197 -265.0923,164.2913 -265.7965,165.392 -266.5041,166.5219 -267.2145,167.6812 -267.8947,168.8496 -261.3134,178.8661 -259.971,178.7055 -258.6249,178.5136 -257.307,178.3127 -256.0172,178.1033 -254.7557,177.8858 -253.5224,177.6609 -252.3173,177.4291 -251.1405,177.1908 -249.9921,176.9467 -248.8719,176.6971 -247.78,176.4428 -246.7164,176.1841 -245.681,175.9217 -244.6738,175.656 -243.6949,175.3875 -242.744,175.1168 -241.8213,174.8445 -240.9266,174.5709 -240.0598,174.2967 -239.221,174.0223 -238.4099,173.7483 -237.6266,173.4751 -236.8709,173.2034 -236.1427,172.9335 -235.442,172.6661 -234.7685,172.4015 -234.1222,172.1404 -233.5029,171.8832 -232.9106,171.6304 -232.345,171.3825 -231.806,171.14 -231.2934,170.9034 -230.8071,170.6731 -230.3469,170.4498 -229.9126,170.2338 -229.5041,170.0256 -229.1211,169.8258 -228.7634,169.6347 -228.4308,169.4529 -228.1232,169.2808 -227.8402,169.1189 -227.5817,168.9677 -227.3474,168.8275 -227.1371,168.6989 -226.9506,168.5824 -226.7875,168.4783 -226.6476,168.3871 -226.5307,168.3092 -226.4365,168.2451 -226.3646,168.1952 -226.3149,168.16 -225.4177,167.494 -215.1308,180.5162 -215.9865,181.2348 -216.0323,181.275 -216.0974,181.3334 -216.1816,181.4102 -216.2844,181.506 -216.4055,181.6209 -216.5445,181.7555 -216.7011,181.91 -216.8749,182.0848 -217.0655,182.2803 -217.2724,182.4967 -217.4955,182.7345 -217.7341,182.994 -217.988,183.2754 -218.2566,183.5791 -218.5397,183.9055 -218.8368,184.2547 -219.1475,184.6272 -219.4713,185.0232 -219.8079,185.4429 -220.1567,185.8868 -220.5174,186.355 -220.8895,186.8479 -221.2726,187.3656 -221.6662,187.9085 -222.0699,188.4768 -222.4832,189.0707 -222.9056,189.6905 -223.3367,190.3364 -223.776,191.0087 -224.2231,191.7075 -224.6774,192.4331 -225.1386,193.1856 -225.606,193.9653 -226.0793,194.7724 -226.5579,195.607 -227.0413,196.4693 -227.5291,197.3596 -228.0208,198.2778 -228.5158,199.2243 -229.0137,200.1992 -229.5139,201.2025 -230.016,202.2345 -230.5194,203.2952 -231.0236,204.3849 -231.5282,205.5035 -232.0325,206.6512 -232.5361,207.8282 -233.0385,209.0344 -233.539,210.27 -234.0373,211.5351 -234.5044,212.8039 -226.2837,221.5253 -224.9895,221.1341 -223.6972,220.7114 -222.4342,220.2846 -221.2004,219.8544 -219.9958,219.4212 -218.8203,218.9855 -217.6738,218.548 -216.5563,218.109 -215.4677,217.6691 -214.4078,217.2289 -213.3767,216.7888 -212.3741,216.3494 -211.4001,215.9111 -210.4544,215.4745 -209.5369,215.0402 -208.6475,214.6085 -207.7861,214.18 -206.9524,213.7552 -206.1465,213.3347 -205.368,212.9188 -204.6169,212.5081 -203.8929,212.1031 -203.1959,211.7042 -202.5256,211.312 -201.8819,210.9269 -201.2646,210.5495 -200.6735,210.1801 -200.1083,209.8192 -199.5688,209.4674 -199.0549,209.1251 -198.5662,208.7926 -198.1025,208.4706 -197.6635,208.1595 -197.2491,207.8596 -196.8589,207.5715 -196.4928,207.2955 -196.1503,207.0322 -195.8312,206.7819 -195.5353,206.5451 -195.2622,206.3222 -195.0116,206.1136 -194.7833,205.9198 -194.5769,205.7411 -194.3922,205.578 -194.2287,205.4308 -194.0861,205.2999 -193.9642,205.1858 -193.8626,205.0889 -193.7809,205.0094 -193.7188,204.9478 -193.676,204.9044 -192.9081,204.0927 -180.5162,215.1308 -181.234,215.9871 -181.2722,216.0347 -181.3262,216.1035 -181.3957,216.1938 -181.4804,216.3059 -181.5797,216.4401 -181.6932,216.5968 -181.8206,216.7761 -181.9614,216.9784 -182.1151,217.204 -182.2814,217.4532 -182.4597,217.7261 -182.6497,218.023 -182.8508,218.3442 -183.0627,218.69 -183.2848,219.0605 -183.5167,219.4561 -183.758,219.8768 -184.0081,220.323 -184.2667,220.7949 -184.5331,221.2926 -184.8071,221.8163 -185.0879,222.3663 -185.3753,222.9427 -185.6686,223.5457 -185.9675,224.1754 -186.2713,224.8321 -186.5797,225.5158 -186.8921,226.2268 -187.208,226.9651 -187.527,227.731 -187.8484,228.5244 -188.1719,229.3456 -188.4968,230.1946 -188.8228,231.0716 -189.1492,231.9767 -189.4755,232.9098 -189.8013,233.8713 -190.1261,234.861 -190.4492,235.879 -190.7703,236.9255 -191.0886,238.0005 -191.4039,239.104 -191.7154,240.236 -192.0228,241.3966 -192.3254,242.5859 -192.6228,243.8038 -192.9144,245.0503 -193.1996,246.3254 -193.4781,247.6292 -193.7491,248.9616 -193.9887,250.2921 -184.3784,257.4536 -183.1719,256.8436 -181.9727,256.2029 -180.8029,255.5633 -179.6626,254.9254 -178.5515,254.2896 -177.4695,253.6564 -176.4164,253.0264 -175.3921,252.4 -174.3964,251.7778 -173.4291,251.1602 -172.49,250.5477 -171.579,249.9409 -170.6959,249.3402 -169.8403,248.746 -169.0122,248.1589 -168.2113,247.5794 -167.4374,247.0078 -166.6902,246.4447 -165.9695,245.8906 -165.2751,245.3459 -164.6066,244.811 -163.964,244.2864 -163.3468,243.7726 -162.7548,243.2699 -162.1878,242.7789 -161.6454,242.3 -161.1274,241.8336 -160.6335,241.38 -160.1633,240.9399 -159.7166,240.5135 -159.293,240.1013 -158.8923,239.7036 -158.5141,239.321 -158.158,238.9537 -157.8238,238.6022 -157.5111,238.2668 -157.2195,237.948 -156.9488,237.6462 -156.6985,237.3616 -156.4682,237.0946 -156.2577,236.8457 -156.0665,236.6152 -155.8943,236.4034 -155.7407,236.2106 -155.6052,236.0373 -155.4876,235.8837 -155.3873,235.7501 -155.3041,235.637 -155.2375,235.5445 -155.187,235.4731 -155.1523,235.423 -154.537,234.4902 -140.4167,243.2088 -140.9749,244.1767 -141.0042,244.2302 -141.0455,244.3073 -141.0983,244.4083 -141.1621,244.5334 -141.2366,244.6829 -141.3213,244.8569 -141.4156,245.0556 -141.5191,245.2793 -141.6313,245.5282 -141.7518,245.8024 -141.88,246.1021 -142.0155,246.4275 -142.1578,246.7788 -142.3064,247.1561 -142.4608,247.5596 -142.6205,247.9894 -142.7851,248.4457 -142.9539,248.9285 -143.1266,249.4381 -143.3026,249.9745 -143.4814,250.5378 -143.6625,251.1282 -143.8454,251.7458 -144.0296,252.3905 -144.2146,253.0626 -144.3998,253.7621 -144.5847,254.489 -144.7689,255.2434 -144.9518,256.0254 -145.133,256.8349 -145.3117,257.6721 -145.4877,258.537 -145.6602,259.4296 -145.8289,260.3499 -145.9932,261.2978 -146.1526,262.2735 -146.3065,263.2769 -146.4545,264.3079 -146.5959,265.3666 -146.7303,266.453 -146.8572,267.5669 -146.9761,268.7084 -147.0863,269.8773 -147.1875,271.0737 -147.279,272.2974 -147.3603,273.5484 -147.431,274.8266 -147.4905,276.1319 -147.5383,277.4642 -147.5739,278.8234 -147.5788,280.1754 -136.871,285.5593 -135.7887,284.749 -134.7189,283.9098 -133.678,283.0768 -132.6658,282.2506 -131.682,281.4315 -130.7263,280.62 -129.7987,279.8167 -128.8987,279.022 -128.0262,278.2363 -127.1808,277.4602 -126.3624,276.6939 -125.5706,275.9381 -124.8051,275.1932 -124.0658,274.4595 -123.3522,273.7375 -122.6641,273.0277 -122.0012,272.3304 -121.3631,271.6461 -120.7496,270.9753 -120.1603,270.3182 -119.5949,269.6754 -119.0531,269.0472 -118.5345,268.434 -118.0388,267.8362 -117.5657,267.2542 -117.1147,266.6883 -116.6856,266.139 -116.2779,265.6067 -115.8913,265.0915 -115.5254,264.594 -115.1799,264.1145 -114.8543,263.6533 -114.5482,263.2108 -114.2614,262.7873 -113.9933,262.3831 -113.7435,261.9985 -113.5118,261.634 -113.2976,261.2897 -113.1005,260.9659 -112.9201,260.6631 -112.756,260.3814 -112.6077,260.1211 -112.4749,259.8826 -112.3571,259.6661 -112.2538,259.4719 -112.1646,259.3002 -112.0891,259.1513 -112.0267,259.0254 -111.9772,258.9228 -111.9399,258.8437 -111.9144,258.7883 -111.4704,257.7629 -96.0507,263.897 -96.4324,264.9472 -96.4519,265.0049 -96.4792,265.088 -96.5136,265.1967 -96.5548,265.331 -96.6022,265.4911 -96.6553,265.6771 -96.7137,265.8892 -96.7768,266.1275 -96.8441,266.3921 -96.9151,266.683 -96.9893,267.0005 -97.0663,267.3445 -97.1454,267.7151 -97.2262,268.1125 -97.3082,268.5367 -97.3909,268.9877 -97.4737,269.4656 -97.5562,269.9704 -97.6377,270.5022 -97.7179,271.0611 -97.7962,271.6469 -97.872,272.2598 -97.9449,272.8997 -98.0143,273.5666 -98.0798,274.2606 -98.1407,274.9816 -98.1966,275.7296 -98.247,276.5045 -98.2914,277.3064 -98.3291,278.1351 -98.3598,278.9906 -98.3829,279.8729 -98.3979,280.7819 -98.4042,281.7175 -98.4014,282.6796 -98.3889,283.6681 -98.3662,284.683 -98.3329,285.7241 -98.2883,286.7912 -98.2321,287.8844 -98.1636,289.0035 -98.0824,290.1482 -97.988,291.3186 -97.8799,292.5143 -97.7575,293.7353 -97.6204,294.9815 -97.4681,296.2525 -97.3,297.5483 -97.1157,298.8687 -96.9147,300.2134 -96.6848,301.5457 -85.2047,304.9884 -84.2796,304.0025 -83.3718,302.9903 -82.4914,301.9892 -81.638,300.9997 -80.8114,300.0222 -80.0112,299.0572 -79.2371,298.105 -78.4888,297.1661 -77.7659,296.2408 -77.0682,295.3296 -76.3952,294.4329 -75.7467,293.5511 -75.1223,292.6845 -74.5215,291.8336 -73.9442,290.9987 -73.3898,290.1801 -72.858,289.3784 -72.3485,288.5937 -71.8608,287.8265 -71.3945,287.0771 -70.9494,286.3459 -70.5249,285.6331 -70.1207,284.9392 -69.7363,284.2644 -69.3714,283.6091 -69.0255,282.9735 -68.6983,282.358 -68.3893,281.7629 -68.098,281.1885 -67.824,280.635 -67.567,280.1028 -67.3265,279.5921 -67.1019,279.1031 -66.893,278.6362 -66.6991,278.1916 -66.52,277.7696 -66.355,277.3703 -66.2038,276.994 -66.066,276.6409 -65.9409,276.3114 -65.8282,276.0055 -65.7274,275.7234 -65.638,275.4655 -65.5596,275.2318 -65.4916,275.0226 -65.4336,274.838 -65.385,274.6783 -65.3455,274.5435 -65.3145,274.4338 -65.2915,274.3494 -65.2761,274.2904 -65.0169,273.2035 -48.7662,276.5668 -48.9597,277.6673 -48.969,277.7276 -48.9814,277.8142 -48.9964,277.9271 -49.0137,278.0666 -49.0326,278.2325 -49.0526,278.4249 -49.0732,278.6439 -49.094,278.8895 -49.1143,279.1618 -49.1337,279.4606 -49.1517,279.7861 -49.1677,280.1383 -49.1813,280.5171 -49.1919,280.9224 -49.199,281.3544 -49.2021,281.8129 -49.2007,282.2979 -49.1942,282.8094 -49.1822,283.3473 -49.1641,283.9116 -49.1394,284.5021 -49.1077,285.1188 -49.0684,285.7617 -49.0209,286.4306 -48.9648,287.1254 -48.8997,287.846 -48.8249,288.5923 -48.7399,289.3642 -48.6444,290.1616 -48.5376,290.9843 -48.4193,291.8322 -48.2888,292.705 -48.1457,293.6028 -47.9895,294.5253 -47.8196,295.4723 -47.6357,296.4436 -47.4372,297.4391 -47.2235,298.4586 -46.9944,299.5018 -46.7491,300.5686 -46.4874,301.6588 -46.2086,302.7721 -45.9124,303.9082 -45.5983,305.067 -45.2658,306.2483 -44.9143,307.4516 -44.5436,308.6769 -44.1531,309.9239 -43.7423,311.1922 -43.3109,312.4816 -42.8531,313.7537 -30.9496,315.1506 -30.2097,314.019 -29.4915,312.8645 -28.7983,311.7258 -28.1297,310.6031 -27.4853,309.497 -26.8649,308.4076 -26.2679,307.3355 -25.694,306.2809 -25.1428,305.2442 -24.6139,304.2257 -24.1069,303.2257 -23.6213,302.2447 -23.1569,301.2828 -22.713,300.3405 -22.2894,299.418 -21.8856,298.5157 -21.5011,297.6337 -21.1356,296.7725 -20.7885,295.9322 -20.4595,295.1133 -20.148,294.3158 -19.8538,293.5402 -19.5762,292.7866 -19.3149,292.0553 -19.0693,291.3466 -18.8391,290.6607 -18.6237,289.9977 -18.4226,289.358 -18.2355,288.7417 -18.0619,288.1491 -17.9012,287.5803 -17.753,287.0356 -17.6167,286.5151 -17.492,286.019 -17.3783,285.5475 -17.2752,285.1007 -17.1821,284.6788 -17.0986,284.282 -17.0241,283.9104 -16.9581,283.5641 -16.9003,283.2433 -16.85,282.948 -16.8067,282.6785 -16.7701,282.4347 -16.7394,282.2169 -16.7144,282.025 -16.6943,281.8593 -16.6788,281.7197 -16.6673,281.6063 -16.6593,281.5192 -16.6544,281.4584 -16.5879,280.343 0,280.8333 0.0005,281.9507 0.0019,282.0117 0.0047,282.0991 0.0095,282.213 0.0167,282.3532 0.0269,282.5199 0.0406,282.7129 0.0583,282.9322 0.0806,283.1777 0.1078,283.4493 0.1406,283.747 0.1794,284.0707 0.2247,284.4202 0.2771,284.7956 0.3371,285.1967 0.4051,285.6233 0.4817,286.0754 0.5673,286.5528 0.6625,287.0554 0.7678,287.583 0.8835,288.1356 1.0104,288.7128 1.1487,289.3147 1.2991,289.9409 1.462,290.5914 1.6378,291.2659 1.8272,291.9643 2.0304,292.6863 2.2481,293.4317 2.4807,294.2004 2.7286,294.9921 2.9924,295.8065 3.2725,296.6435 3.5693,297.5027 3.8834,298.3841 4.2151,299.2872 4.5649,300.2118 4.9333,301.1577 5.3207,302.1246 5.7275,303.1122 6.1543,304.1202 6.6014,305.1484 7.0692,306.1963 7.5582,307.2638 8.0688,308.3504 8.6014,309.456 9.1564,310.5801 9.7343,311.7224 10.3354,312.8825 10.9602,314.0602 11.609,315.2551 12.2807,316.4284 24.2459,315.7371 24.778,314.4942 25.2849,313.2326 25.7699,311.9907 26.2333,310.769 26.6758,309.5678 27.0977,308.3873 27.4994,307.2277 27.8815,306.0895 28.2443,304.9728 28.5883,303.878 28.9139,302.8052 29.2218,301.7547 29.5122,300.7268 29.7856,299.7218 30.0426,298.7397 30.2836,297.7809 30.5091,296.8456 30.7195,295.934 30.9154,295.0463 31.0972,294.1826 31.2655,293.3432 31.4206,292.5282 31.5631,291.7379 31.6935,290.9724 31.8122,290.2318 31.9199,289.5162 32.0169,288.826 32.1037,288.1611 32.181,287.5216 32.2491,286.9079 32.3086,286.3198 32.36,285.7576 32.4037,285.2214 32.4404,284.7112 32.4705,284.2271 32.4945,283.7692 32.5129,283.3375 32.5263,282.9323 32.5351,282.5533 32.5399,282.2009 32.5412,281.8749 32.5394,281.5754 32.5352,281.3024 32.529,281.056 32.5213,280.8362 32.5127,280.6429 32.5037,280.4761 32.4947,280.336 32.4863,280.2223 32.479,280.1351 32.4734,280.0744 32.3452,278.9644 48.7662,276.5668 48.9607,277.6672 48.9727,277.7269 48.9906,277.8125 49.0151,277.9239 49.0466,278.0608 49.0856,278.2231 49.1326,278.4108 49.1881,278.6237 49.2526,278.8616 49.3266,279.1243 49.4106,279.4118 49.505,279.7238 49.6104,280.0602 49.7272,280.4208 49.8559,280.8054 49.9969,281.2137 50.1508,281.6456 50.3181,282.1009 50.4991,282.5793 50.6944,283.0807 50.9043,283.6047 51.1295,284.1512 51.3702,284.7199 51.6271,285.3105 51.9004,285.9228 52.1907,286.5565 52.4985,287.2114 52.824,287.8872 53.1678,288.5835 53.5304,289.3001 53.912,290.0366 54.3132,290.7929 54.7344,291.5685 55.1759,292.3632 55.6382,293.1766 56.1217,294.0084 56.6268,294.8582 57.1538,295.7258 57.7032,296.6107 58.2754,297.5127 58.8707,298.4313 59.4895,299.3662 60.1322,300.317 60.7991,301.2833 61.4907,302.2648 62.2072,303.261 62.949,304.2717 63.7164,305.2963 64.5099,306.3344 65.3297,307.3858 66.1761,308.4498 67.0414,309.4887 78.7047,306.7301 79.013,305.4137 79.293,304.0832 79.555,302.776 79.7993,301.4924 80.0264,300.2326 80.2369,298.9967 80.4312,297.785 80.6098,296.5977 80.7731,295.435 80.9218,294.2971 81.0562,293.184 81.177,292.0961 81.2845,291.0334 81.3792,289.9961 81.4618,288.9843 81.5327,287.9983 81.5923,287.038 81.6412,286.1037 81.68,285.1954 81.7091,284.3133 81.729,283.4575 81.7402,282.628 81.7433,281.8249 81.7388,281.0483 81.7271,280.2983 81.7089,279.575 81.6845,278.8784 81.6546,278.2085 81.6197,277.5654 81.5802,276.9491 81.5367,276.3597 81.4896,275.7971 81.4396,275.2614 81.3871,274.7525 81.3327,274.2706 81.2768,273.8155 81.22,273.3872 81.1628,272.9857 81.1057,272.6111 81.0492,272.2631 80.9938,271.9418 80.9401,271.6472 80.8886,271.3791 80.8397,271.1375 80.7939,270.9224 80.7519,270.7335 80.714,270.5709 80.6808,270.4344 80.6529,270.3239 80.6306,270.2393 80.6145,270.1805 80.2955,269.1096 96.0507,263.897 96.4333,264.9468 96.4554,265.0036 96.488,265.0848 96.5314,265.1902 96.5862,265.3195 96.6528,265.4727 96.7317,265.6493 96.8233,265.8493 96.9282,266.0724 97.0467,266.3183 97.1793,266.5869 97.3264,266.8778 97.4886,267.1907 97.6663,267.5256 97.8598,267.8819 98.0696,268.2596 98.2962,268.6582 98.5399,269.0775 98.8013,269.5172 99.0806,269.9771 99.3784,270.4567 99.695,270.9558 100.0309,271.474 100.3864,272.0111 100.7619,272.5666 101.1579,273.1403 101.5746,273.7318 102.0126,274.3407 102.4721,274.9667 102.9536,275.6095 103.4573,276.2686 103.9837,276.9437 104.5332,277.6344 105.106,278.3404 105.7025,279.0611 106.3231,279.7963 106.9681,280.5455 107.6378,281.3084 108.3325,282.0845 109.0526,282.8734 109.7984,283.6746 110.5701,284.4879 111.3682,285.3126 112.1928,286.1485 113.0442,286.9949 113.9228,287.8516 114.8289,288.7181 115.7626,289.5939 116.7242,290.4785 117.7141,291.3715 118.7325,292.2724 119.765,293.1452 130.7722,288.4032 130.8471,287.0533 130.8919,285.6944 130.9229,284.3616 130.9406,283.055 130.9455,281.7749 130.9382,280.5213 130.9191,279.2943 130.8888,278.094 130.8478,276.9206 130.7966,275.7741 130.7357,274.6546 130.6657,273.5622 130.587,272.497 130.5002,271.459 130.4058,270.4483 130.3044,269.4649 130.1964,268.5089 130.0823,267.5803 129.9628,266.6791 129.8382,265.8053 129.7092,264.959 129.5762,264.1402 129.4398,263.3488 129.3005,262.5848 129.1588,261.8482 129.0152,261.139 128.8703,260.4572 128.7245,259.8027 128.5784,259.1754 128.4325,258.5754 128.2873,258.0024 128.1433,257.4566 128.001,256.9377 127.861,256.4457 127.7236,255.9805 127.5896,255.542 127.4593,255.1301 127.3332,254.7447 127.2119,254.3856 127.0959,254.0528 126.9856,253.746 126.8815,253.4652 126.7842,253.2101 126.6941,252.9807 126.6117,252.7767 126.5375,252.598 126.4719,252.4444 126.4156,252.3158 126.3688,252.2118 126.3322,252.1324 126.3061,252.0773 125.806,251.0781 140.4167,243.2088 140.9758,244.1762 141.0075,244.2283 141.0536,244.3026 141.1147,244.3988 141.1911,244.5167 141.2833,244.6559 141.3916,244.8162 141.5166,244.9973 141.6586,245.1988 141.818,245.4204 141.9952,245.6618 142.1907,245.9227 142.4047,246.2028 142.6378,246.5017 142.8903,246.819 143.1625,247.1545 143.4548,247.5077 143.7677,247.8783 144.1014,248.266 144.4564,248.6703 144.833,249.091 145.2314,249.5275 145.6522,249.9795 146.0955,250.4467 146.5618,250.9286 147.0514,251.4248 147.5645,251.9349 148.1015,252.4586 148.6628,252.9953 149.2485,253.5447 149.8591,254.1063 150.4948,254.6797 151.1558,255.2645 151.8425,255.8603 152.5551,256.4665 153.2939,257.0828 154.0592,257.7086 154.8512,258.3436 155.6702,258.9872 156.5163,259.6391 157.3899,260.2987 158.2911,260.9655 159.2202,261.6392 160.1775,262.3191 161.163,263.0049 162.177,263.696 163.2197,264.392 164.2913,265.0923 165.392,265.7965 166.5219,266.5041 167.6812,267.2145 168.8496,267.8947 178.8661,261.3134 178.7055,259.971 178.5136,258.6249 178.3127,257.307 178.1033,256.0172 177.8858,254.7557 177.6609,253.5224 177.4291,252.3173 177.1908,251.1405 176.9467,249.9921 176.6971,248.8719 176.4428,247.78 176.1841,246.7164 175.9217,245.681 175.656,244.6738 175.3875,243.6949 175.1168,242.744 174.8445,241.8213 174.5709,240.9266 174.2967,240.0598 174.0223,239.221 173.7483,238.4099 173.4751,237.6266 173.2034,236.8709 172.9335,236.1427 172.6661,235.442 172.4015,234.7685 172.1404,234.1222 171.8832,233.5029 171.6304,232.9106 171.3825,232.345 171.14,231.806 170.9034,231.2934 170.6731,230.8071 170.4498,230.3469 170.2338,229.9126 170.0256,229.5041 169.8258,229.1211 169.6347,228.7634 169.4529,228.4308 169.2808,228.1232 169.1189,227.8402 168.9677,227.5817 168.8275,227.3474 168.6989,227.1371 168.5824,226.9506 168.4783,226.7875 168.3871,226.6476 168.3092,226.5307 168.2451,226.4365 168.1952,226.3646 168.16,226.3149 167.494,225.4177 180.5162,215.1308 181.2348,215.9865 181.275,216.0323 181.3334,216.0974 181.4102,216.1816 181.506,216.2844 181.6209,216.4055 181.7555,216.5445 181.91,216.7011 182.0848,216.8749 182.2803,217.0655 182.4967,217.2724 182.7345,217.4955 182.994,217.7341 183.2754,217.988 183.5791,218.2566 183.9055,218.5397 184.2547,218.8368 184.6272,219.1475 185.0232,219.4713 185.4429,219.8079 185.8868,220.1567 186.355,220.5174 186.8479,220.8895 187.3656,221.2726 187.9085,221.6662 188.4768,222.0699 189.0707,222.4832 189.6905,222.9056 190.3364,223.3367 191.0087,223.776 191.7075,224.2231 192.4331,224.6774 193.1856,225.1386 193.9653,225.606 194.7724,226.0793 195.607,226.5579 196.4693,227.0413 197.3596,227.5291 198.2778,228.0208 199.2243,228.5158 200.1992,229.0137 201.2025,229.5139 202.2345,230.016 203.2952,230.5194 204.3849,231.0236 205.5035,231.5282 206.6512,232.0325 207.8282,232.5361 209.0344,233.0385 210.27,233.539 211.5351,234.0373 212.8039,234.5044 221.5253,226.2837 221.1341,224.9895 220.7114,223.6972 220.2846,222.4342 219.8544,221.2004 219.4212,219.9958 218.9855,218.8203 218.548,217.6738 218.109,216.5563 217.6691,215.4677 217.2289,214.4078 216.7888,213.3767 216.3494,212.3741 215.9111,211.4001 215.4745,210.4544 215.0402,209.5369 214.6085,208.6475 214.18,207.7861 213.7552,206.9524 213.3347,206.1465 212.9188,205.368 212.5081,204.6169 212.1031,203.8929 211.7042,203.1959 211.312,202.5256 210.9269,201.8819 210.5495,201.2646 210.1801,200.6735 209.8192,200.1083 209.4674,199.5688 209.1251,199.0549 208.7926,198.5662 208.4706,198.1025 208.1595,197.6635 207.8596,197.2491 207.5715,196.8589 207.2955,196.4928 207.0322,196.1503 206.7819,195.8312 206.5451,195.5353 206.3222,195.2622 206.1136,195.0116 205.9198,194.7833 205.7411,194.5769 205.578,194.3922 205.4308,194.2287 205.2999,194.0861 205.1858,193.9642 205.0889,193.8626 205.0094,193.7809 204.9478,193.7188 204.9044,193.676 204.0927,192.9081 215.1308,180.5162 215.9871,181.234 216.0347,181.2722 216.1035,181.3262 216.1938,181.3957 216.3059,181.4804 216.4401,181.5797 216.5968,181.6932 216.7761,181.8206 216.9784,181.9614 217.204,182.1151 217.4532,182.2814 217.7261,182.4597 218.023,182.6497 218.3442,182.8508 218.69,183.0627 219.0605,183.2848 219.4561,183.5167 219.8768,183.758 220.323,184.0081 220.7949,184.2667 221.2926,184.5331 221.8163,184.8071 222.3663,185.0879 222.9427,185.3753 223.5457,185.6686 224.1754,185.9675 224.8321,186.2713 225.5158,186.5797 226.2268,186.8921 226.9651,187.208 227.731,187.527 228.5244,187.8484 229.3456,188.1719 230.1946,188.4968 231.0716,188.8228 231.9767,189.1492 232.9098,189.4755 233.8713,189.8013 234.861,190.1261 235.879,190.4492 236.9255,190.7703 238.0005,191.0886 239.104,191.4039 240.236,191.7154 241.3966,192.0228 242.5859,192.3254 243.8038,192.6228 245.0503,192.9144 246.3254,193.1996 247.6292,193.4781 248.9616,193.7491 250.2921,193.9887 257.4536,184.3784 256.8436,183.1719 256.2029,181.9727 255.5633,180.8029 254.9254,179.6626 254.2896,178.5515 253.6564,177.4695 253.0264,176.4164 252.4,175.3921 251.7778,174.3964 251.1602,173.4291 250.5477,172.49 249.9409,171.579 249.3402,170.6959 248.746,169.8403 248.1589,169.0122 247.5794,168.2113 247.0078,167.4374 246.4447,166.6902 245.8906,165.9695 245.3459,165.2751 244.811,164.6066 244.2864,163.964 243.7726,163.3468 243.2699,162.7548 242.7789,162.1878 242.3,161.6454 241.8336,161.1274 241.38,160.6335 240.9399,160.1633 240.5135,159.7166 240.1013,159.293 239.7036,158.8923 239.321,158.5141 238.9537,158.158 238.6022,157.8238 238.2668,157.5111 237.948,157.2195 237.6462,156.9488 237.3616,156.6985 237.0946,156.4682 236.8457,156.2577 236.6152,156.0665 236.4034,155.8943 236.2106,155.7407 236.0373,155.6052 235.8837,155.4876 235.7501,155.3873 235.637,155.3041 235.5445,155.2375 235.4731,155.187 235.423,155.1523 234.4902,154.537 243.2088,140.4167 244.1767,140.9749 244.2302,141.0042 244.3073,141.0455 244.4083,141.0983 244.5334,141.1621 244.6829,141.2366 244.8569,141.3213 245.0556,141.4156 245.2793,141.5191 245.5282,141.6313 245.8024,141.7518 246.1021,141.88 246.4275,142.0155 246.7788,142.1578 247.1561,142.3064 247.5596,142.4608 247.9894,142.6205 248.4457,142.7851 248.9285,142.9539 249.4381,143.1266 249.9745,143.3026 250.5378,143.4814 251.1282,143.6625 251.7458,143.8454 252.3905,144.0296 253.0626,144.2146 253.7621,144.3998 254.489,144.5847 255.2434,144.7689 256.0254,144.9518 256.8349,145.133 257.6721,145.3117 258.537,145.4877 259.4296,145.6602 260.3499,145.8289 261.2978,145.9932 262.2735,146.1526 263.2769,146.3065 264.3079,146.4545 265.3666,146.5959 266.453,146.7303 267.5669,146.8572 268.7084,146.9761 269.8773,147.0863 271.0737,147.1875 272.2974,147.279 273.5484,147.3603 274.8266,147.431 276.1319,147.4905 277.4642,147.5383 278.8234,147.5739 280.1754,147.5788 285.5593,136.871 284.749,135.7887 283.9098,134.7189 283.0768,133.678 282.2506,132.6658 281.4315,131.682 280.62,130.7263 279.8167,129.7987 279.022,128.8987 278.2363,128.0262 277.4602,127.1808 276.6939,126.3624 275.9381,125.5706 275.1932,124.8051 274.4595,124.0658 273.7375,123.3522 273.0277,122.6641 272.3304,122.0012 271.6461,121.3631 270.9753,120.7496 270.3182,120.1603 269.6754,119.5949 269.0472,119.0531 268.434,118.5345 267.8362,118.0388 267.2542,117.5657 266.6883,117.1147 266.139,116.6856 265.6067,116.2779 265.0915,115.8913 264.594,115.5254 264.1145,115.1799 263.6533,114.8543 263.2108,114.5482 262.7873,114.2614 262.3831,113.9933 261.9985,113.7435 261.634,113.5118 261.2897,113.2976 260.9659,113.1005 260.6631,112.9201 260.3814,112.756 260.1211,112.6077 259.8826,112.4749 259.6661,112.3571 259.4719,112.2538 259.3002,112.1646 259.1513,112.0891 259.0254,112.0267 258.9228,111.9772 258.8437,111.9399 258.7883,111.9144 257.7629,111.4704 263.897,96.0507 264.9472,96.4324 265.0049,96.4519 265.088,96.4792 265.1967,96.5136 265.331,96.5548 265.4911,96.6022 265.6771,96.6553 265.8892,96.7137 266.1275,96.7768 266.3921,96.8441 266.683,96.9151 267.0005,96.9893 267.3445,97.0663 267.7151,97.1454 268.1125,97.2262 268.5367,97.3082 268.9877,97.3909 269.4656,97.4737 269.9704,97.5562 270.5022,97.6377 271.0611,97.7179 271.6469,97.7962 272.2598,97.872 272.8997,97.9449 273.5666,98.0143 274.2606,98.0798 274.9816,98.1407 275.7296,98.1966 276.5045,98.247 277.3064,98.2914 278.1351,98.3291 278.9906,98.3598 279.8729,98.3829 280.7819,98.3979 281.7175,98.4042 282.6796,98.4014 283.6681,98.3889 284.683,98.3662 285.7241,98.3329 286.7912,98.2883 287.8844,98.2321 289.0035,98.1636 290.1482,98.0824 291.3186,97.988 292.5143,97.8799 293.7353,97.7575 294.9815,97.6204 296.2525,97.4681 297.5483,97.3 298.8687,97.1157 300.2134,96.9147 301.5457,96.6848 304.9884,85.2047 304.0025,84.2796 302.9903,83.3718 301.9892,82.4914 300.9997,81.638 300.0222,80.8114 299.0572,80.0112 298.105,79.2371 297.1661,78.4888 296.2408,77.7659 295.3296,77.0682 294.4329,76.3952 293.5511,75.7467 292.6845,75.1223 291.8336,74.5215 290.9987,73.9442 290.1801,73.3898 289.3784,72.858 288.5937,72.3485 287.8265,71.8608 287.0771,71.3945 286.3459,70.9494 285.6331,70.5249 284.9392,70.1207 284.2644,69.7363 283.6091,69.3714 282.9735,69.0255 282.358,68.6983 281.7629,68.3893 281.1885,68.098 280.635,67.824 280.1028,67.567 279.5921,67.3265 279.1031,67.1019 278.6362,66.893 278.1916,66.6991 277.7696,66.52 277.3703,66.355 276.994,66.2038 276.6409,66.066 276.3114,65.9409 276.0055,65.8282 275.7234,65.7274 275.4655,65.638 275.2318,65.5596 275.0226,65.4916 274.838,65.4336 274.6783,65.385 274.5435,65.3455 274.4338,65.3145 274.3494,65.2915 274.2904,65.2761 273.2035,65.0169 276.5668,48.7662 277.6673,48.9597 277.7276,48.969 277.8142,48.9814 277.9271,48.9964 278.0666,49.0137 278.2325,49.0326 278.4249,49.0526 278.6439,49.0732 278.8895,49.094 279.1618,49.1143 279.4606,49.1337 279.7861,49.1517 280.1383,49.1677 280.5171,49.1813 280.9224,49.1919 281.3544,49.199 281.8129,49.2021 282.2979,49.2007 282.8094,49.1942 283.3473,49.1822 283.9116,49.1641 284.5021,49.1394 285.1188,49.1077 285.7617,49.0684 286.4306,49.0209 287.1254,48.9648 287.846,48.8997 288.5923,48.8249 289.3642,48.7399 290.1616,48.6444 290.9843,48.5376 291.8322,48.4193 292.705,48.2888 293.6028,48.1457 294.5253,47.9895 295.4723,47.8196 296.4436,47.6357 297.4391,47.4372 298.4586,47.2235 299.5018,46.9944 300.5686,46.7491 301.6588,46.4874 302.7721,46.2086 303.9082,45.9124 305.067,45.5983 306.2483,45.2658 307.4516,44.9143 308.6769,44.5436 309.9239,44.1531 311.1922,43.7423 312.4816,43.3109 313.7537,42.8531 315.1506,30.9496 314.019,30.2097 312.8645,29.4915 311.7258,28.7983 310.6031,28.1297 309.497,27.4853 308.4076,26.8649 307.3355,26.2679 306.2809,25.694 305.2442,25.1428 304.2257,24.6139 303.2257,24.1069 302.2447,23.6213 301.2828,23.1569 300.3405,22.713 299.418,22.2894 298.5157,21.8856 297.6337,21.5011 296.7725,21.1356 295.9322,20.7885 295.1133,20.4595 294.3158,20.148 293.5402,19.8538 292.7866,19.5762 292.0553,19.3149 291.3466,19.0693 290.6607,18.8391 289.9977,18.6237 289.358,18.4226 288.7417,18.2355 288.1491,18.0619 287.5803,17.9012 287.0356,17.753 286.5151,17.6167 286.019,17.492 285.5475,17.3783 285.1007,17.2752 284.6788,17.1821 284.282,17.0986 283.9104,17.0241 283.5641,16.9581 283.2433,16.9003 282.948,16.85 282.6785,16.8067 282.4347,16.7701 282.2169,16.7394 282.025,16.7144 281.8593,16.6943 281.7197,16.6788 281.6063,16.6673 281.5192,16.6593 281.4584,16.6544 280.343,16.5879 "/><g class="guides"><polyline fill="none" stroke="#444" stroke-width="0.5" stroke-miterlimit="10" points="10,0 -10,0"/><polyline fill="none" stroke="#444" stroke-width="0.5" stroke-miterlimit="10" points="0,10 0,-10"/></g><circle fill="#c00" class="firstmarker" stroke="none" stroke-miterlimit="10" cx="299.5005" cy="-17.3052" r="6.5417"/><g class="geartext"><g class="text"><polyline fill="none" stroke="#444" stroke-width="0.5" stroke-linecap="square" stroke-miterlimit="1"  points="165.7 -188.31 163.44 -190.28 161.15 -192.22 158.84 -194.13 156.51 -196.02 "/><polyline fill="none" stroke="#444" stroke-width="0.5" stroke-linecap="square" stroke-miterlimit="1"  points="157.3 -187.62 165.01 -196.82 "/><polyline fill="none" stroke="#444" stroke-width="0.5" stroke-linecap="square" stroke-miterlimit="1"  points="169.67 -192.81 165.39 -192.55 161.15 -192.22 156.94 -191.81 152.76 -191.33 "/><polyline fill="none" stroke="#444" stroke-width="0.5" stroke-linecap="square" stroke-miterlimit="1"  points="161.74 -183.8 161.48 -188 161.15 -192.22 160.74 -196.45 160.25 -200.71 "/><polyline fill="none" stroke="#444" stroke-width="0.5" stroke-linecap="square" stroke-miterlimit="1"  points="172.43 -173.81 168.26 -173.7 166.17 -175.7 166.09 -179.88 174.23 -188.7 178.53 -188.78 180.78 -186.63 180.89 -182.33 172.43 -173.81 "/><polyline fill="none" stroke="#444" stroke-width="0.5" stroke-linecap="square" stroke-miterlimit="1"  points="205.62 -158.86 191.37 -147.85 193.12 -152.92 194.77 -158.06 196.32 -163.25 197.78 -168.51 184.08 -156.84 "/><polyline fill="none" stroke="#444" stroke-width="0.5" stroke-linecap="square" stroke-miterlimit="1"  points="211.48 -140.39 209.78 -142.91 208.06 -145.41 206.3 -147.88 204.52 -150.34 "/><polyline fill="none" stroke="#444" stroke-width="0.5" stroke-linecap="square" stroke-miterlimit="1"  points="206.48 -137.07 204.82 -139.53 203.14 -141.97 201.43 -144.39 199.69 -146.79 "/><polyline fill="none" stroke="#444" stroke-width="0.5" stroke-linecap="square" stroke-miterlimit="1"  points="217.31 -136.89 221.49 -135.85 223.1 -133.19 224.68 -130.51 223.61 -126.34 221 -124.86 216.9 -125.99 215.77 -121.91 213.16 -120.44 209.11 -121.47 207.65 -123.96 206.15 -126.44 207.16 -130.49 "/><polyline fill="none" stroke="#444" stroke-width="0.5" stroke-linecap="square" stroke-miterlimit="1"  points="215.37 -128.58 216.9 -125.99 "/><polyline fill="none" stroke="#444" stroke-width="0.5" stroke-linecap="square" stroke-miterlimit="1"  points="221.28 -118.13 222.67 -115.47 224.04 -112.8 225.37 -110.12 223.96 -106.13 221.25 -104.84 217.28 -106.16 216 -108.76 214.68 -111.33 215.98 -115.3 223.92 -119.54 228 -118.24 232.08 -116.85 233.46 -114.07 "/><polyline fill="none" stroke="#444" stroke-width="0.5" stroke-linecap="square" stroke-miterlimit="1"  points="234.86 -88.08 235.9 -85.27 236.9 -82.44 237.87 -79.6 241.66 -77.67 244.52 -78.58 246.4 -82.46 245.4 -85.4 244.36 -88.33 243.29 -91.24 226.43 -84.92 "/><polyline fill="none" stroke="#444" stroke-width="0.5" stroke-linecap="square" stroke-miterlimit="1"  points="231.94 -68.47 243.45 -71.86 "/><polyline fill="none" stroke="#444" stroke-width="0.5" stroke-linecap="square" stroke-miterlimit="1"  points="246.33 -72.71 249.2 -73.56 "/><polyline fill="none" stroke="#444" stroke-width="0.5" stroke-linecap="square" stroke-miterlimit="1"  points="239.18 -52.3 235.62 -54.48 237.86 -58.01 252.44 -61.56 "/><polyline fill="none" stroke="#444" stroke-width="0.5" stroke-linecap="square" stroke-miterlimit="1"  points="247.97 -54.22 247.31 -57.19 246.61 -60.14 245.87 -63.09 245.1 -66.02 "/><polyline fill="none" stroke="#444" stroke-width="0.5" stroke-linecap="square" stroke-miterlimit="1"  points="239.35 -34.59 238.92 -37.45 238.45 -40.3 237.95 -43.15 240.36 -46.57 246.25 -47.71 249.76 -45.29 250.28 -42.3 250.77 -39.31 251.22 -36.31 "/><polyline fill="none" stroke="#444" stroke-width="0.5" stroke-linecap="square" stroke-miterlimit="1"  points="246.06 -29.57 249.38 -26.95 252.67 -24.25 252.94 -21.23 250.19 -17.98 241.21 -17.34 "/><polyline fill="none" stroke="#444" stroke-width="0.5" stroke-linecap="square" stroke-miterlimit="1"  points="240.11 -28.85 257.98 -31 "/><polyline fill="none" stroke="#444" stroke-width="0.5" stroke-linecap="square" stroke-miterlimit="1"  points="241.82 2.89 241.76 5.78 241.68 8.68 241.56 11.57 244.4 14.63 256.37 15.35 259.54 12.43 259.67 9.32 259.76 6.21 259.81 3.11 "/><polyline fill="none" stroke="#444" stroke-width="0.5" stroke-linecap="square" stroke-miterlimit="1"  points="259.76 6.21 241.76 5.78 "/><polyline fill="none" stroke="#444" stroke-width="0.5" stroke-linecap="square" stroke-miterlimit="1"  points="251.64 33.3 252.02 30.29 252.36 27.27 252.67 24.25 252.94 21.23 "/><polyline fill="none" stroke="#444" stroke-width="0.5" stroke-linecap="square" stroke-miterlimit="1"  points="245.69 32.51 246.06 29.57 246.4 26.63 246.7 23.68 246.97 20.72 "/><polyline fill="none" stroke="#444" stroke-width="0.5" stroke-linecap="square" stroke-miterlimit="1"  points="247.81 38.84 247.33 41.8 246.81 44.76 246.25 47.71 242.73 50.04 239.79 49.44 237.42 46 237.95 43.15 238.45 40.3 241.88 37.91 250.77 39.31 253.24 42.8 255.66 46.36 255.09 49.42 "/><polyline fill="none" stroke="#444" stroke-width="0.5" stroke-linecap="square" stroke-miterlimit="1"  points="240.57 71.02 239.7 73.89 238.8 76.75 237.87 79.6 239.73 83.42 242.57 84.41 246.4 82.46 247.37 79.5 248.3 76.54 249.2 73.56 231.94 68.47 "/><polyline fill="none" stroke="#444" stroke-width="0.5" stroke-linecap="square" stroke-miterlimit="1"  points="233.13 100.4 234.32 97.6 235.47 94.79 236.59 91.97 237.67 89.13 "/><polyline fill="none" stroke="#444" stroke-width="0.5" stroke-linecap="square" stroke-miterlimit="1"  points="227.62 98.03 228.78 95.3 229.9 92.55 230.99 89.8 232.05 87.03 "/><polyline fill="none" stroke="#444" stroke-width="0.5" stroke-linecap="square" stroke-miterlimit="1"  points="227.94 104.69 226.67 107.41 225.37 110.12 224.04 112.8 220.01 114.09 217.35 112.71 216 108.76 217.28 106.16 218.54 103.56 222.49 102.19 230.67 105.95 232.09 109.98 233.46 114.07 232.08 116.85 "/><polyline fill="none" stroke="#444" stroke-width="0.5" stroke-linecap="square" stroke-miterlimit="1"  points="212.24 133.69 210.62 136.22 208.98 138.73 207.3 141.22 208.06 145.41 210.52 147.12 214.74 146.29 216.48 143.71 218.18 141.11 219.85 138.49 204.62 128.89 "/><polyline fill="none" stroke="#444" stroke-width="0.5" stroke-linecap="square" stroke-miterlimit="1"  points="194.85 143.23 199.69 146.79 202.71 152.78 205.62 158.86 199 157.58 192.44 156.17 187.78 152.39 "/><polyline fill="none" stroke="#444" stroke-width="0.5" stroke-linecap="square" stroke-miterlimit="1"  points="199.69 146.79 197.92 149.16 196.12 151.52 194.29 153.86 192.44 156.17 "/><polyline fill="none" stroke="#444" stroke-width="0.5" stroke-linecap="square" stroke-miterlimit="1"  points="185.12 173.67 187.19 171.44 189.22 169.19 191.23 166.92 193.22 164.62 "/><polyline fill="none" stroke="#444" stroke-width="0.5" stroke-linecap="square" stroke-miterlimit="1"  points="180.75 169.56 182.76 167.39 184.75 165.19 186.71 162.97 188.65 160.73 "/><polyline fill="none" stroke="#444" stroke-width="0.5" stroke-linecap="square" stroke-miterlimit="1"  points="164.05 177.68 166.17 175.7 168.26 173.7 170.32 171.68 172.36 169.63 176.64 173.84 176.66 178.07 174.52 180.17 172.35 182.24 172.19 186.5 174.23 188.7 178.53 188.78 180.78 186.63 183 184.46 183.05 180.15 "/><polyline fill="none" stroke="#444" stroke-width="0.5" stroke-linecap="square" stroke-miterlimit="1"  points="155.04 189.49 155.37 185.32 157.57 183.45 161.74 183.8 169.67 192.81 169.3 197.1 166.93 199.11 162.64 198.78 155.04 189.49 "/></g></g><g class="guides gearguides" opacity="0.2"><circle class="pitch" fill="none" stroke="#f00" stroke-miterlimit="10" cx="0" cy="0" r="300"/><circle class="outer" fill="none" stroke="#ccc" stroke-miterlimit="10" stroke-dasharray="2,2" cx="0" cy="0" r="316.67"/><circle class="base" fill="none" stroke="#00f" stroke-miterlimit="10" stroke-dasharray="2,2" cx="0" cy="0" r="281.91"/></g></svg>