<?xml version="1.0" encoding="utf-8"?>
<!-- Generator: Adobe Illustrator 19.1.0, SVG Export Plug-In . SVG Version: 6.00 Build 0)  -->
<!DOCTYPE svg PUBLIC "-//W3C//DTD SVG 1.1//EN" "http://www.w3.org/Graphics/SVG/1.1/DTD/svg11.dtd">
<svg version="1.1" id="Layer_1" xmlns="http://www.w3.org/2000/svg" xmlns:xlink="http://www.w3.org/1999/xlink" x="0px" y="0px"
	 viewBox="0 0 784 656" style="enable-background:new 0 0 784 656;" xml:space="preserve">
<style type="text/css">
	.st0{fill:none;stroke:#ED1C24;stroke-miterlimit:10;}
	.st1{fill:none;stroke:#000000;stroke-miterlimit:10;}
</style>
<path class="st0" d="M752.8,286.7v-16.9h17v-25.5h-43.9v-17h-16.7v10.5h-10.5v-10.5H682v17h-34v-17h-34v17h-34v-17h-34v17h-34v-17
	h-34v17h-34v-17h-34v17h-34v-17h-34v17h-34v-17h-34v17h-34v-17h-34v17h-34v-17h-34v17h-34v-17H87v10.5H76.5v-10.5H59.8v17H15.8v25.5
	h17v16.9h3.1v-3.5H43v3.5h7.1v8.8H43v3.5h-7.1v-3.5h-3.1v16.9h-17v34h17v16.9h3.1v-3.5H43v3.5h7.1v8.8H43v3.5h-7.1V372h-3.1v16.9
	h-17v25.5h43.9v17h16.7v-10.5H87v10.5h16.7v-17h34v17h34v-17h34v17h34v-17h34v17h34v-17h34v17h34v-17h34v17h34v-17h34v17h34v-17h34
	v17h34v-17h34v17h34v-17h34v17h16.7v-10.5h10.5v10.5h16.7v-17h43.9v-25.5h-17V372h-3.1v3.5h-7.1V372h-7.1v-8.8h7.1v-3.5h7.1v3.5h3.1
	v-16.9h17v-34h-17v-16.9h-3.1v3.5h-7.1v-3.5h-7.1v-8.8h7.1v-3.5h7.1v3.5H752.8z M590.1,397.8h-17v-17h17V397.8z M576.6,375.8v-9.9
	h9.9v9.9H576.6z M590.1,360.9h-17v-17h17V360.9z M666.3,397.8h-17v-17h17V397.8z M652.9,375.8v-9.9h9.9v9.9H652.9z M666.3,360.9h-17
	v-17h17V360.9z"/>
<path class="st0" d="M769.8,498.4v-16h-17v-42.5h-26.9v17h-17.6v3.1h3.5v7.1h-3.5v7.1h-8.8v-7.1H696V460h3.5v-3.1H682v-17h-34v17
	h-34v-17h-34v17h-34v-17h-34v17h-34v-17h-34v17h-34v-17h-34v17h-34v-17h-34v17h-34v-17h-34v17h-34v-17h-34v17h-34v-17h-34v17H86.1
	v3.1h3.5v7.1h-3.5v7.1h-8.8v-7.1h-3.5V460h3.5v-3.1H59.8v-17H32.8v42.5h-17v16h10.5v10.5H15.8v16h17v34h-17v16h10.5v10.5H15.8v16h17
	V644h26.9v-17h17.6v-3.1h-3.5v-7.1h3.5v-7.1h8.8v7.1h3.5v7.1h-3.5v3.1h17.6v17h34v-17h34v17h34v-17h34v17h34v-17h34v17h34v-17h34v17
	h34v-17h34v17h34v-17h34v17h34v-17h34v17h34v-17h34v17h34v-17h17.6v-3.1H696v-7.1h3.5v-7.1h8.8v7.1h3.5v7.1h-3.5v3.1h17.6v17h26.9
	v-42.5h17v-16h-10.5V575h10.5v-16h-17v-34h17v-16h-10.5v-10.5H769.8z M120.8,597.6H62.7v-41.1h58.1V597.6z M249.8,610.3h-17v-17h17
	V610.3z M236.4,588.4v-9.9h9.9v9.9H236.4z M249.8,573.5h-17v-17h17V573.5z"/>
<polygon class="st0" points="32.8,201.8 32.8,218.8 86.7,218.8 86.7,201.8 69.7,201.8 69.7,176.1 66.6,176.1 66.6,179.6 59.5,179.6 
	59.5,176.1 52.4,176.1 52.4,167.3 59.5,167.3 59.5,163.7 66.6,163.7 66.6,167.3 69.7,167.3 69.7,142.5 86.7,142.5 86.7,125.5 
	69.7,125.5 69.7,38.9 69.7,21.9 52.7,21.9 52.7,38.9 47.1,38.9 47.1,42 50.7,42 50.7,49.1 47.1,49.1 47.1,56.2 38.4,56.2 38.4,49.1 
	34.8,49.1 34.8,42 38.4,42 38.4,38.9 32.8,38.9 32.8,21.9 15.8,21.9 15.8,38.9 15.8,125.5 15.8,125.6 32.8,125.6 32.8,142.6 
	15.8,142.6 15.8,201.8 "/>
<polygon class="st0" points="295,201.8 295,164.9 295,147.9 278,147.9 278,164.9 249.6,164.9 249.6,168 253.1,168 253.1,175.1 
	249.6,175.1 249.6,182.2 240.8,182.2 240.8,175.1 237.2,175.1 237.2,168 240.8,168 240.8,164.9 191.3,164.9 191.3,168 194.8,168 
	194.8,175.1 191.3,175.1 191.3,182.2 182.5,182.2 182.5,175.1 178.9,175.1 178.9,168 182.5,168 182.5,164.9 137.1,164.9 
	137.1,147.9 120.1,147.9 120.1,164.9 94.9,164.9 94.9,164.9 94.9,181.9 111.9,181.9 111.9,187.5 115,187.5 115,183.9 122.1,183.9 
	122.1,187.5 129.2,187.5 129.2,196.3 122.1,196.3 122.1,199.8 115,199.8 115,196.3 111.9,196.3 111.9,201.8 94.9,201.8 94.9,218.8 
	295,218.8 312,218.8 312,201.8 "/>
<polygon class="st0" points="275,85.6 275,122.4 275,139.4 258,139.4 258,122.4 229.6,122.4 229.6,119.3 233.1,119.3 233.1,112.2 
	229.6,112.2 229.6,105.1 220.8,105.1 220.8,112.2 217.2,112.2 217.2,119.3 220.8,119.3 220.8,122.4 171.3,122.4 171.3,119.3 
	174.8,119.3 174.8,112.2 171.3,112.2 171.3,105.1 162.5,105.1 162.5,112.2 158.9,112.2 158.9,119.3 162.5,119.3 162.5,122.4 
	117.1,122.4 117.1,139.4 100.1,139.4 100.1,122.4 74.9,122.4 74.9,122.4 74.9,105.4 91.9,105.4 91.9,99.9 95,99.9 95,103.4 
	102.1,103.4 102.1,99.9 109.2,99.9 109.2,91.1 102.1,91.1 102.1,87.5 95,87.5 95,91.1 91.9,91.1 91.9,85.6 74.9,85.6 74.9,68.6 
	275,68.6 292,68.6 292,85.6 "/>
<path class="st0" d="M409.1,139.4v17h-17v17h17h17v-34h174.1v17h-17v17h17h17v-34h133.9v-21.7c0-11.7-9.5-21.1-21.1-21.1H347.2
	c-11.7,0-21.1,9.5-21.1,21.1v21.7H409.1z"/>
<path class="st0" d="M665,175.9v-17h17v-17h-17h-17v34H474v-17h17v-17h-17h-17v34H323v21.7c0,11.7,9.5,21.1,21.1,21.1H727
	c11.7,0,21.1-9.5,21.1-21.1v-21.7H665z"/>
<path class="st1" d="M412.3,328.8c-2.1,1.4-3.8,2.8-5.2,4.5c-1.4,1.6-2,3.4-2,5.2c0,1.3,0.2,2.5,0.7,3.7c0.5,1.2,1.1,2.2,1.9,3
	c0.8,0.9,1.7,1.6,2.7,2.1c1,0.5,2.1,0.8,3.2,0.8c1.2,0,2.3-0.2,3.4-0.5c1.1-0.3,2.1-0.7,3.1-1.2c1-0.5,2-1.1,3-1.9
	c1-0.7,2-1.5,3.1-2.2v-19.8c-2.3,0.7-4.7,1.6-7.1,2.6C416.6,326.3,414.3,327.5,412.3,328.8z"/>
<path class="st1" d="M307.5,387.3h170.6c31.9,0,58-26.1,58-58v0c0-31.9-26.1-58-58-58H307.5c-31.9,0-58,26.1-58,58v0
	C249.5,361.2,275.6,387.3,307.5,387.3z M317.7,354.3c-4.9,0-7.9-2.9-7.9-7c0-7.8,9-20.1,9-27.8c0-2.3-0.6-2.9-2.3-2.9
	c-1.6,0-4.2,2-6,5.9l-1.1-0.5c2.6-5.7,7.1-8.3,11.2-8.3c4.8,0,7,3.1,7,6.9c0,9.1-9.1,21.4-9.1,27.2c0,2.1,0.8,3.5,2.7,3.5
	c2.8,0,5.5-1.7,8.3-6.8l1,0.5C327.6,351,322,354.3,317.7,354.3z M318.5,303.9c0-3,2.4-5.4,5.4-5.4c2.9,0,5.3,2.4,5.3,5.4
	c0,2.8-2.4,5.3-5.3,5.3C320.9,309.2,318.5,306.7,318.5,303.9z M389.4,309.7c-1.1,0.8-2.5,1.3-4.4,1.3c-1.2,0-2.1-0.1-2.8-0.4
	c-0.7-0.2-1.4-0.5-1.9-0.8c-0.6-0.3-1.2-0.6-1.7-0.8s-1.3-0.4-2.3-0.4c-1.4,0-2.8,0.8-4.2,2.3c-1.4,1.5-2.8,3.5-4.3,5.9v36.6h-10.4
	v-52.9h10.4v10c1-1.5,2.2-2.9,3.3-4.3c1.2-1.3,2.4-2.5,3.7-3.5c1.3-1,2.6-1.8,4-2.4c1.4-0.6,2.8-0.9,4.1-0.9c1.2,0,2.2,0.2,3.2,0.5
	c1,0.3,1.8,0.8,2.6,1.4c0.7,0.6,1.3,1.3,1.7,2c0.4,0.8,0.6,1.6,0.6,2.4C391,307.5,390.5,308.8,389.4,309.7z M436.8,353.4h-10.5v-7.2
	c-1.2,1-2.5,1.9-3.6,2.9c-1.2,1-2.5,1.9-3.9,2.7c-1.4,0.8-2.9,1.5-4.6,2c-1.7,0.5-3.7,0.8-5.9,0.8c-2.1,0-4-0.3-5.6-1
	c-1.7-0.7-3.1-1.6-4.3-2.8c-1.2-1.2-2.1-2.6-2.7-4.2c-0.6-1.6-1-3.4-1-5.2c0-2.3,0.5-4.3,1.4-6.1c0.9-1.8,2.1-3.4,3.7-4.9
	c1.6-1.4,3.4-2.7,5.4-3.9c2.1-1.1,4.3-2.1,6.6-3c2.4-0.9,4.8-1.7,7.2-2.3c2.5-0.7,4.9-1.3,7.2-1.9v-3.3c0-2.4-0.2-4.4-0.7-6.1
	c-0.5-1.6-1.2-3-2.1-4c-0.9-1-2-1.8-3.2-2.2c-1.3-0.4-2.7-0.7-4.3-0.7c-1.8,0-3.2,0.2-4.3,0.7c-1.1,0.5-2,1.1-2.6,1.8
	s-1.1,1.6-1.3,2.5c-0.2,0.9-0.3,1.9-0.3,2.9c0,0.9-0.1,1.8-0.2,2.7c-0.2,0.8-0.4,1.6-0.8,2.3c-0.4,0.7-0.9,1.2-1.6,1.6
	c-0.7,0.4-1.5,0.6-2.6,0.6c-1.6,0-2.9-0.6-4-1.8c-1-1.2-1.5-2.7-1.5-4.4c0-1.7,0.6-3.4,1.7-4.9c1.1-1.5,2.7-2.8,4.6-3.9
	c1.9-1.1,4.2-2,6.8-2.6c2.6-0.6,5.3-1,8.2-1c3.5,0,6.4,0.3,8.8,1c2.4,0.7,4.3,1.6,5.8,2.8c1.5,1.2,2.6,2.7,3.2,4.4
	c0.7,1.7,1,3.7,1,5.8V353.4z M470.7,362.7c-1.2,2.6-2.5,4.8-4,6.7c-1.5,1.9-3.1,3.5-4.7,4.7c-1.6,1.3-3.3,2.2-5.1,2.8
	c-1.8,0.6-3.5,0.9-5.1,0.9c-1.2,0-2.3-0.2-3.3-0.5c-1-0.3-1.9-0.7-2.7-1.3c-0.8-0.5-1.4-1.2-1.8-1.9c-0.4-0.8-0.7-1.6-0.7-2.5
	c0-0.7,0.1-1.4,0.4-2.1c0.3-0.7,0.7-1.3,1.2-1.8c0.5-0.5,1.2-0.9,2-1.3c0.8-0.3,1.6-0.5,2.6-0.5c1.1,0,2,0.1,2.6,0.4
	c0.6,0.3,1.2,0.5,1.7,0.8c0.5,0.3,1.1,0.6,1.7,0.8c0.6,0.3,1.4,0.4,2.4,0.4c1.1,0,2-0.3,2.9-0.9c0.8-0.6,1.6-1.4,2.3-2.3
	c0.7-0.9,1.3-2,1.8-3.1c0.5-1.1,1-2.2,1.4-3.1l3.5-7.9L443,300.6h11.9l20.4,38.2l16.7-38.2h5.6L470.7,362.7z M288,285.3h207.5v4.4
	H353.6v64.2h-11.5v-64.2H288V285.3z"/>
</svg>
