<?xml version="1.0" encoding="utf-8"?>
<!-- Generator: Adobe Illustrator 19.1.0, SVG Export Plug-In . SVG Version: 6.00 Build 0)  -->
<!DOCTYPE svg PUBLIC "-//W3C//DTD SVG 1.1//EN" "http://www.w3.org/Graphics/SVG/1.1/DTD/svg11.dtd">
<svg version="1.1" id="Layer_1" xmlns="http://www.w3.org/2000/svg" xmlns:xlink="http://www.w3.org/1999/xlink" x="0px" y="0px"
	 viewBox="0 0 612 792" style="enable-background:new 0 0 612 792;" xml:space="preserve">
<style type="text/css">
	.st0{fill:none;stroke:#ED1C24;stroke-miterlimit:10;}
</style>
<path class="st0" d="M312.8,134.7c-140.9,0-255.1,114.2-255.1,255.1s114.2,255.1,255.1,255.1s255.1-114.2,255.1-255.1
	S453.7,134.7,312.8,134.7z M565.2,395.1c0,2.3-1.9,4.3-4.3,4.3c-2.3,0-4.3-1.9-4.3-4.3c0-2.3,1.9-4.3,4.3-4.3
	C563.2,390.8,565.2,392.7,565.2,395.1z M560.8,385.6c-2.3,0-4.3-1.9-4.3-4.3c0-2.3,1.9-4.3,4.3-4.3c2.3,0,4.3,1.9,4.3,4.3
	C565.1,383.7,563.2,385.6,560.8,385.6z M564.2,367.7c0,2.3-1.9,4.3-4.3,4.3c-2.3,0-4.3-1.9-4.3-4.3c0-2.3,1.9-4.3,4.3-4.3
	C562.3,363.4,564.2,365.3,564.2,367.7z M562.7,354.3c0,2.3-1.9,4.3-4.3,4.3c-2.3,0-4.3-1.9-4.3-4.3c0-2.3,1.9-4.3,4.3-4.3
	C560.8,350,562.7,351.9,562.7,354.3z M560.4,341.1c0,2.3-1.9,4.3-4.3,4.3c-2.3,0-4.3-1.9-4.3-4.3c0-2.3,1.9-4.3,4.3-4.3
	C558.5,336.9,560.4,338.8,560.4,341.1z M557.5,328.2c0,2.3-1.9,4.3-4.3,4.3c-2.3,0-4.3-1.9-4.3-4.3c0-2.3,1.9-4.3,4.3-4.3
	C555.6,323.9,557.5,325.8,557.5,328.2z M553.9,315.5c0,2.3-1.9,4.3-4.3,4.3c-2.3,0-4.3-1.9-4.3-4.3c0-2.3,1.9-4.3,4.3-4.3
	C552,311.3,553.9,313.2,553.9,315.5z M549.7,303.1c0,2.3-1.9,4.3-4.3,4.3c-2.3,0-4.3-1.9-4.3-4.3c0-2.3,1.9-4.3,4.3-4.3
	C547.8,298.9,549.7,300.8,549.7,303.1z M544.8,291.1c0,2.3-1.9,4.3-4.3,4.3c-2.3,0-4.3-1.9-4.3-4.3c0-2.3,1.9-4.3,4.3-4.3
	C542.9,286.8,544.8,288.7,544.8,291.1z M539.3,279.3c0,2.3-1.9,4.3-4.3,4.3c-2.3,0-4.3-1.9-4.3-4.3c0-2.3,1.9-4.3,4.3-4.3
	C537.4,275,539.3,277,539.3,279.3z M533.3,267.9c0,2.3-1.9,4.3-4.3,4.3c-2.3,0-4.3-1.9-4.3-4.3c0-2.3,1.9-4.3,4.3-4.3
	C531.4,263.6,533.3,265.5,533.3,267.9z M526.6,256.8c0,2.3-1.9,4.3-4.3,4.3c-2.3,0-4.3-1.9-4.3-4.3c0-2.3,1.9-4.3,4.3-4.3
	C524.7,252.6,526.6,254.5,526.6,256.8z M515.2,241.9c2.3,0,4.3,1.9,4.3,4.3c0,2.3-1.9,4.3-4.3,4.3c-2.3,0-4.3-1.9-4.3-4.3
	C511,243.8,512.9,241.9,515.2,241.9z M507.5,231.7c2.3,0,4.3,1.9,4.3,4.3c0,2.3-1.9,4.3-4.3,4.3c-2.3,0-4.3-1.9-4.3-4.3
	C503.3,233.6,505.2,231.7,507.5,231.7z M504.1,389.8c0,3.9-3.2,7.1-7.1,7.1s-7.1-3.2-7.1-7.1s3.2-7.1,7.1-7.1
	S504.1,385.9,504.1,389.8z M499.3,221.8c2.3,0,4.3,1.9,4.3,4.3c0,2.3-1.9,4.3-4.3,4.3c-2.3,0-4.3-1.9-4.3-4.3
	C495,223.7,496.9,221.8,499.3,221.8z M490.6,212.4c2.3,0,4.3,1.9,4.3,4.3c0,2.3-1.9,4.3-4.3,4.3c-2.3,0-4.3-1.9-4.3-4.3
	C486.3,214.3,488.3,212.4,490.6,212.4z M440.5,172.7c2.3,0,4.3,1.9,4.3,4.3c0,2.3-1.9,4.3-4.3,4.3c-2.3,0-4.3-1.9-4.3-4.3
	C436.2,174.6,438.1,172.7,440.5,172.7z M429.2,166.3c2.3,0,4.3,1.9,4.3,4.3c0,2.3-1.9,4.3-4.3,4.3c-2.3,0-4.3-1.9-4.3-4.3
	C425,168.2,426.9,166.3,429.2,166.3z M417.6,160.5c2.3,0,4.3,1.9,4.3,4.3c0,2.3-1.9,4.3-4.3,4.3c-2.3,0-4.3-1.9-4.3-4.3
	C413.4,162.4,415.3,160.5,417.6,160.5z M405.7,155.4c2.3,0,4.3,1.9,4.3,4.3c0,2.3-1.9,4.3-4.3,4.3c-2.3,0-4.3-1.9-4.3-4.3
	C401.5,157.3,403.4,155.4,405.7,155.4z M393.5,150.8c2.3,0,4.3,1.9,4.3,4.3c0,2.3-1.9,4.3-4.3,4.3c-2.3,0-4.3-1.9-4.3-4.3
	C389.3,152.7,391.2,150.8,393.5,150.8z M381,146.9c2.3,0,4.3,1.9,4.3,4.3c0,2.3-1.9,4.3-4.3,4.3c-2.3,0-4.3-1.9-4.3-4.3
	C376.7,148.8,378.6,146.9,381,146.9z M368.2,143.6c2.3,0,4.3,1.9,4.3,4.3c0,2.3-1.9,4.3-4.3,4.3c-2.3,0-4.3-1.9-4.3-4.3
	C363.9,145.5,365.8,143.6,368.2,143.6z M355.1,141c2.3,0,4.3,1.9,4.3,4.3c0,2.3-1.9,4.3-4.3,4.3c-2.3,0-4.3-1.9-4.3-4.3
	C350.9,142.9,352.8,141,355.1,141z M341.9,139.1c2.3,0,4.3,1.9,4.3,4.3c0,2.3-1.9,4.3-4.3,4.3c-2.3,0-4.3-1.9-4.3-4.3
	C337.6,141,339.5,139.1,341.9,139.1z M328.3,137.8c2.3,0,4.3,1.9,4.3,4.3c0,2.3-1.9,4.3-4.3,4.3c-2.3,0-4.3-1.9-4.3-4.3
	C324.1,139.8,326,137.8,328.3,137.8z M314.6,137.4c2.3,0,4.3,1.9,4.3,4.3c0,2.3-1.9,4.3-4.3,4.3c-2.3,0-4.3-1.9-4.3-4.3
	C310.4,139.3,312.3,137.4,314.6,137.4z M312.8,198.4c3.9,0,7.1,3.2,7.1,7.1s-3.2,7.1-7.1,7.1c-3.9,0-7.1-3.2-7.1-7.1
	S308.9,198.4,312.8,198.4z M301.2,137.6c2.3,0,4.3,1.9,4.3,4.3c0,2.3-1.9,4.3-4.3,4.3c-2.3,0-4.3-1.9-4.3-4.3
	C297,139.5,298.9,137.6,301.2,137.6z M288,138.6c2.3,0,4.3,1.9,4.3,4.3c0,2.3-1.9,4.3-4.3,4.3c-2.3,0-4.3-1.9-4.3-4.3
	C283.8,140.5,285.7,138.6,288,138.6z M275,140.2c2.3,0,4.3,1.9,4.3,4.3c0,2.3-1.9,4.3-4.3,4.3c-2.3,0-4.3-1.9-4.3-4.3
	C270.8,142.1,272.7,140.2,275,140.2z M262.3,142.5c2.3,0,4.3,1.9,4.3,4.3c0,2.3-1.9,4.3-4.3,4.3c-2.3,0-4.3-1.9-4.3-4.3
	C258,144.4,259.9,142.5,262.3,142.5z M249.7,145.5c2.3,0,4.3,1.9,4.3,4.3c0,2.3-1.9,4.3-4.3,4.3c-2.3,0-4.3-1.9-4.3-4.3
	C245.5,147.4,247.4,145.5,249.7,145.5z M237,149.2c2.3,0,4.3,1.9,4.3,4.3c0,2.3-1.9,4.3-4.3,4.3c-2.3,0-4.3-1.9-4.3-4.3
	C232.8,151.1,234.7,149.2,237,149.2z M224.6,153.5c2.3,0,4.3,1.9,4.3,4.3c0,2.3-1.9,4.3-4.3,4.3c-2.3,0-4.3-1.9-4.3-4.3
	C220.3,155.4,222.2,153.5,224.6,153.5z M212.5,158.5c2.3,0,4.3,1.9,4.3,4.3c0,2.3-1.9,4.3-4.3,4.3c-2.3,0-4.3-1.9-4.3-4.3
	C208.2,160.4,210.1,158.5,212.5,158.5z M200.7,164.1c2.3,0,4.3,1.9,4.3,4.3c0,2.3-1.9,4.3-4.3,4.3c-2.3,0-4.3-1.9-4.3-4.3
	C196.5,166,198.4,164.1,200.7,164.1z M138.1,209.2c2.3,0,4.3,1.9,4.3,4.3c0,2.3-1.9,4.3-4.3,4.3c-2.3,0-4.3-1.9-4.3-4.3
	C133.9,211.1,135.8,209.2,138.1,209.2z M135.6,389.8c0,3.9-3.2,7.1-7.1,7.1s-7.1-3.2-7.1-7.1s3.2-7.1,7.1-7.1
	S135.6,385.9,135.6,389.8z M129.2,218.5c2.3,0,4.3,1.9,4.3,4.3c0,2.3-1.9,4.3-4.3,4.3c-2.3,0-4.3-1.9-4.3-4.3
	C125,220.4,126.9,218.5,129.2,218.5z M120.8,228.3c2.3,0,4.3,1.9,4.3,4.3c0,2.3-1.9,4.3-4.3,4.3c-2.3,0-4.3-1.9-4.3-4.3
	C116.5,230.2,118.4,228.3,120.8,228.3z M112.9,238.5c2.3,0,4.3,1.9,4.3,4.3c0,2.3-1.9,4.3-4.3,4.3c-2.3,0-4.3-1.9-4.3-4.3
	C108.6,240.4,110.5,238.5,112.9,238.5z M105.5,249.1c2.3,0,4.3,1.9,4.3,4.3c0,2.3-1.9,4.3-4.3,4.3c-2.3,0-4.3-1.9-4.3-4.3
	C101.2,251,103.1,249.1,105.5,249.1z M98.6,260c2.3,0,4.3,1.9,4.3,4.3c0,2.3-1.9,4.3-4.3,4.3c-2.3,0-4.3-1.9-4.3-4.3
	C94.4,262,96.3,260,98.6,260z M92.4,271.4c2.3,0,4.3,1.9,4.3,4.3c0,2.3-1.9,4.3-4.3,4.3c-2.3,0-4.3-1.9-4.3-4.3
	C88.1,273.3,90,271.4,92.4,271.4z M86.7,283.1c2.3,0,4.3,1.9,4.3,4.3c0,2.3-1.9,4.3-4.3,4.3c-2.3,0-4.3-1.9-4.3-4.3
	C82.4,285,84.3,283.1,86.7,283.1z M81.6,295.2c2.3,0,4.3,1.9,4.3,4.3c0,2.3-1.9,4.3-4.3,4.3c-2.3,0-4.3-1.9-4.3-4.3
	C77.3,297.1,79.2,295.2,81.6,295.2z M77.1,307.5c2.3,0,4.3,1.9,4.3,4.3s-1.9,4.3-4.3,4.3c-2.3,0-4.3-1.9-4.3-4.3
	S74.8,307.5,77.1,307.5z M73.3,320.2c2.3,0,4.3,1.9,4.3,4.3c0,2.3-1.9,4.3-4.3,4.3c-2.3,0-4.3-1.9-4.3-4.3
	C69.1,322.1,71,320.2,73.3,320.2z M70.2,333.1c2.3,0,4.3,1.9,4.3,4.3c0,2.3-1.9,4.3-4.3,4.3c-2.3,0-4.3-1.9-4.3-4.3
	C65.9,335,67.8,333.1,70.2,333.1z M67.7,346.3c2.3,0,4.3,1.9,4.3,4.3c0,2.3-1.9,4.3-4.3,4.3c-2.3,0-4.3-1.9-4.3-4.3
	C63.5,348.2,65.4,346.3,67.7,346.3z M66,359.7c2.3,0,4.3,1.9,4.3,4.3c0,2.3-1.9,4.3-4.3,4.3s-4.3-1.9-4.3-4.3
	C61.7,361.6,63.6,359.7,66,359.7z M64.9,373.3c2.3,0,4.3,1.9,4.3,4.3c0,2.3-1.9,4.3-4.3,4.3c-2.3,0-4.3-1.9-4.3-4.3
	C60.7,375.2,62.6,373.3,64.9,373.3z M64.6,387.1c2.3,0,4.3,1.9,4.3,4.3c0,2.3-1.9,4.3-4.3,4.3c-2.3,0-4.3-1.9-4.3-4.3
	C60.4,389,62.3,387.1,64.6,387.1z M65.1,400.8c2.3,0,4.3,1.9,4.3,4.3c0,2.3-1.9,4.3-4.3,4.3c-2.3,0-4.3-1.9-4.3-4.3
	C60.8,402.7,62.7,400.8,65.1,400.8z M62,418.6c0-2.3,1.9-4.3,4.3-4.3c2.3,0,4.3,1.9,4.3,4.3c0,2.3-1.9,4.3-4.3,4.3
	C63.9,422.9,62,421,62,418.6z M63.9,431.9c0-2.3,1.9-4.3,4.3-4.3c2.3,0,4.3,1.9,4.3,4.3c0,2.3-1.9,4.3-4.3,4.3
	C65.8,436.2,63.9,434.2,63.9,431.9z M66.5,445c0-2.3,1.9-4.3,4.3-4.3c2.3,0,4.3,1.9,4.3,4.3c0,2.3-1.9,4.3-4.3,4.3
	C68.4,449.2,66.5,447.3,66.5,445z M69.8,457.8c0-2.3,1.9-4.3,4.3-4.3c2.3,0,4.3,1.9,4.3,4.3c0,2.3-1.9,4.3-4.3,4.3
	C71.7,462,69.8,460.1,69.8,457.8z M73.7,470.3c0-2.3,1.9-4.3,4.3-4.3c2.3,0,4.3,1.9,4.3,4.3c0,2.3-1.9,4.3-4.3,4.3
	C75.6,474.5,73.7,472.6,73.7,470.3z M78.3,482.5c0-2.3,1.9-4.3,4.3-4.3c2.3,0,4.3,1.9,4.3,4.3c0,2.3-1.9,4.3-4.3,4.3
	C80.2,486.8,78.3,484.9,78.3,482.5z M83.5,494.4c0-2.3,1.9-4.3,4.3-4.3c2.3,0,4.3,1.9,4.3,4.3c0,2.3-1.9,4.3-4.3,4.3
	C85.4,498.7,83.5,496.8,83.5,494.4z M89.2,506c0-2.3,1.9-4.3,4.3-4.3c2.3,0,4.3,1.9,4.3,4.3c0,2.3-1.9,4.3-4.3,4.3
	C91.1,510.3,89.2,508.4,89.2,506z M95.6,517.2c0-2.3,1.9-4.3,4.3-4.3c2.3,0,4.3,1.9,4.3,4.3c0,2.3-1.9,4.3-4.3,4.3
	C97.5,521.5,95.6,519.6,95.6,517.2z M106.7,532.4c-2.3,0-4.3-1.9-4.3-4.3c0-2.3,1.9-4.3,4.3-4.3c2.3,0,4.3,1.9,4.3,4.3
	C111,530.5,109.1,532.4,106.7,532.4z M114.2,542.8c-2.3,0-4.3-1.9-4.3-4.3c0-2.3,1.9-4.3,4.3-4.3c2.3,0,4.3,1.9,4.3,4.3
	C118.4,540.9,116.5,542.8,114.2,542.8z M122.1,552.9c-2.3,0-4.3-1.9-4.3-4.3c0-2.3,1.9-4.3,4.3-4.3c2.3,0,4.3,1.9,4.3,4.3
	C126.4,551,124.5,552.9,122.1,552.9z M130.6,562.5c-2.3,0-4.3-1.9-4.3-4.3c0-2.3,1.9-4.3,4.3-4.3c2.3,0,4.3,1.9,4.3,4.3
	C134.8,560.6,132.9,562.5,130.6,562.5z M139.5,571.7c-2.3,0-4.3-1.9-4.3-4.3c0-2.3,1.9-4.3,4.3-4.3c2.3,0,4.3,1.9,4.3,4.3
	C143.8,569.8,141.9,571.7,139.5,571.7z M143.3,204.7c0-2.3,1.9-4.3,4.3-4.3c2.3,0,4.3,1.9,4.3,4.3c0,2.3-1.9,4.3-4.3,4.3
	C145.2,208.9,143.3,207,143.3,204.7z M148.9,580.4c-2.3,0-4.3-1.9-4.3-4.3c0-2.3,1.9-4.3,4.3-4.3c2.3,0,4.3,1.9,4.3,4.3
	C153.2,578.5,151.3,580.4,148.9,580.4z M153.1,196.3c0-2.3,1.9-4.3,4.3-4.3c2.3,0,4.3,1.9,4.3,4.3c0,2.3-1.9,4.3-4.3,4.3
	C155,200.6,153.1,198.7,153.1,196.3z M158.7,588.6c-2.3,0-4.3-1.9-4.3-4.3c0-2.3,1.9-4.3,4.3-4.3c2.3,0,4.3,1.9,4.3,4.3
	C163,586.7,161.1,588.6,158.7,588.6z M163.3,188.5c0-2.3,1.9-4.3,4.3-4.3c2.3,0,4.3,1.9,4.3,4.3c0,2.3-1.9,4.3-4.3,4.3
	C165.2,192.8,163.3,190.9,163.3,188.5z M169,596.3c-2.3,0-4.3-1.9-4.3-4.3c0-2.3,1.9-4.3,4.3-4.3c2.3,0,4.3,1.9,4.3,4.3
	C173.2,594.4,171.3,596.3,169,596.3z M174,181.2c0-2.3,1.9-4.3,4.3-4.3c2.3,0,4.3,1.9,4.3,4.3c0,2.3-1.9,4.3-4.3,4.3
	C175.9,185.5,174,183.6,174,181.2z M179.7,603.5c-2.3,0-4.3-1.9-4.3-4.3c0-2.3,1.9-4.3,4.3-4.3c2.3,0,4.3,1.9,4.3,4.3
	C183.9,601.6,182,603.5,179.7,603.5z M189.3,170.2c2.3,0,4.3,1.9,4.3,4.3c0,2.3-1.9,4.3-4.3,4.3c-2.3,0-4.3-1.9-4.3-4.3
	C185,172.1,187,170.2,189.3,170.2z M190.7,610.1c-2.3,0-4.3-1.9-4.3-4.3c0-2.3,1.9-4.3,4.3-4.3c2.3,0,4.3,1.9,4.3,4.3
	C194.9,608.2,193,610.1,190.7,610.1z M202.1,616.2c-2.3,0-4.3-1.9-4.3-4.3c0-2.3,1.9-4.3,4.3-4.3c2.3,0,4.3,1.9,4.3,4.3
	C206.4,614.3,204.4,616.2,202.1,616.2z M213.8,621.7c-2.3,0-4.3-1.9-4.3-4.3c0-2.3,1.9-4.3,4.3-4.3c2.3,0,4.3,1.9,4.3,4.3
	C218.1,619.8,216.2,621.7,213.8,621.7z M225.9,626.6c-2.3,0-4.3-1.9-4.3-4.3c0-2.3,1.9-4.3,4.3-4.3c2.3,0,4.3,1.9,4.3,4.3
	C230.2,624.7,228.3,626.6,225.9,626.6z M238.3,630.8c-2.3,0-4.3-1.9-4.3-4.3c0-2.3,1.9-4.3,4.3-4.3c2.3,0,4.3,1.9,4.3,4.3
	C242.5,628.9,240.6,630.8,238.3,630.8z M251,634.4c-2.3,0-4.3-1.9-4.3-4.3c0-2.3,1.9-4.3,4.3-4.3c2.3,0,4.3,1.9,4.3,4.3
	C255.2,632.5,253.3,634.4,251,634.4z M263.9,637.4c-2.3,0-4.3-1.9-4.3-4.3c0-2.3,1.9-4.3,4.3-4.3c2.3,0,4.3,1.9,4.3,4.3
	C268.1,635.5,266.2,637.4,263.9,637.4z M277.1,639.6c-2.3,0-4.3-1.9-4.3-4.3c0-2.3,1.9-4.3,4.3-4.3c2.3,0,4.3,1.9,4.3,4.3
	C281.3,637.7,279.4,639.6,277.1,639.6z M290.5,641.2c-2.3,0-4.3-1.9-4.3-4.3c0-2.3,1.9-4.3,4.3-4.3c2.3,0,4.3,1.9,4.3,4.3
	C294.7,639.3,292.8,641.2,290.5,641.2z M304.1,642.1c-2.3,0-4.3-1.9-4.3-4.3c0-2.3,1.9-4.3,4.3-4.3c2.3,0,4.3,1.9,4.3,4.3
	C308.3,640.1,306.4,642.1,304.1,642.1z M305.7,574c0-3.9,3.2-7.1,7.1-7.1c3.9,0,7.1,3.2,7.1,7.1s-3.2,7.1-7.1,7.1
	C308.9,581.1,305.7,578,305.7,574z M317.8,642.2c-2.3,0-4.3-1.9-4.3-4.3c0-2.3,1.9-4.3,4.3-4.3c2.3,0,4.3,1.9,4.3,4.3
	C322.1,640.2,320.2,642.2,317.8,642.2z M331.5,641.5c-2.3,0-4.3-1.9-4.3-4.3c0-2.3,1.9-4.3,4.3-4.3c2.3,0,4.3,1.9,4.3,4.3
	C335.7,639.6,333.8,641.5,331.5,641.5z M345,640.1c-2.3,0-4.3-1.9-4.3-4.3c0-2.3,1.9-4.3,4.3-4.3c2.3,0,4.3,1.9,4.3,4.3
	C349.2,638.2,347.3,640.1,345,640.1z M358.2,638.1c-2.3,0-4.3-1.9-4.3-4.3c0-2.3,1.9-4.3,4.3-4.3c2.3,0,4.3,1.9,4.3,4.3
	C362.4,636.2,360.5,638.1,358.2,638.1z M371.2,635.3c-2.3,0-4.3-1.9-4.3-4.3c0-2.3,1.9-4.3,4.3-4.3c2.3,0,4.3,1.9,4.3,4.3
	C375.4,633.4,373.5,635.3,371.2,635.3z M383.9,631.9c-2.3,0-4.3-1.9-4.3-4.3c0-2.3,1.9-4.3,4.3-4.3c2.3,0,4.3,1.9,4.3,4.3
	C388.2,630,386.3,631.9,383.9,631.9z M396.4,627.8c-2.3,0-4.3-1.9-4.3-4.3c0-2.3,1.9-4.3,4.3-4.3c2.3,0,4.3,1.9,4.3,4.3
	C400.6,625.9,398.7,627.8,396.4,627.8z M312.8,517.3c-70.4,0-127.6-57.1-127.6-127.6s57.1-127.6,127.6-127.6s127.6,57.1,127.6,127.6
	S383.2,517.3,312.8,517.3z M408.5,623.1c-2.3,0-4.3-1.9-4.3-4.3c0-2.3,1.9-4.3,4.3-4.3c2.3,0,4.3,1.9,4.3,4.3
	C412.8,621.2,410.9,623.1,408.5,623.1z M420.4,617.7c-2.3,0-4.3-1.9-4.3-4.3c0-2.3,1.9-4.3,4.3-4.3c2.3,0,4.3,1.9,4.3,4.3
	C424.6,615.8,422.7,617.7,420.4,617.7z M431.9,611.8c-2.3,0-4.3-1.9-4.3-4.3c0-2.3,1.9-4.3,4.3-4.3c2.3,0,4.3,1.9,4.3,4.3
	C436.1,609.9,434.2,611.8,431.9,611.8z M443,605.3c-2.3,0-4.3-1.9-4.3-4.3c0-2.3,1.9-4.3,4.3-4.3c2.3,0,4.3,1.9,4.3,4.3
	C447.3,603.4,445.4,605.3,443,605.3z M447.1,183.8c0-2.3,1.9-4.3,4.3-4.3c2.3,0,4.3,1.9,4.3,4.3c0,2.3-1.9,4.3-4.3,4.3
	C449,188.1,447.1,186.2,447.1,183.8z M453.8,598.3c-2.3,0-4.3-1.9-4.3-4.3c0-2.3,1.9-4.3,4.3-4.3c2.3,0,4.3,1.9,4.3,4.3
	C458,596.4,456.1,598.3,453.8,598.3z M457.5,191.3c0-2.3,1.9-4.3,4.3-4.3c2.3,0,4.3,1.9,4.3,4.3c0,2.3-1.9,4.3-4.3,4.3
	C459.4,195.5,457.5,193.6,457.5,191.3z M464.1,590.7c-2.3,0-4.3-1.9-4.3-4.3c0-2.3,1.9-4.3,4.3-4.3c2.3,0,4.3,1.9,4.3,4.3
	C468.4,588.8,466.5,590.7,464.1,590.7z M467.6,199.3c0-2.3,1.9-4.3,4.3-4.3c2.3,0,4.3,1.9,4.3,4.3c0,2.3-1.9,4.3-4.3,4.3
	C469.5,203.5,467.6,201.6,467.6,199.3z M474.1,582.6c-2.3,0-4.3-1.9-4.3-4.3c0-2.3,1.9-4.3,4.3-4.3c2.3,0,4.3,1.9,4.3,4.3
	C478.3,580.7,476.4,582.6,474.1,582.6z M477.2,207.7c0-2.3,1.9-4.3,4.3-4.3c2.3,0,4.3,1.9,4.3,4.3c0,2.3-1.9,4.3-4.3,4.3
	C479.1,212,477.2,210.1,477.2,207.7z M483.6,574.1c-2.3,0-4.3-1.9-4.3-4.3c0-2.3,1.9-4.3,4.3-4.3c2.3,0,4.3,1.9,4.3,4.3
	C487.9,572.2,485.9,574.1,483.6,574.1z M492.7,565c-2.3,0-4.3-1.9-4.3-4.3c0-2.3,1.9-4.3,4.3-4.3c2.3,0,4.3,1.9,4.3,4.3
	C496.9,563.1,495,565,492.7,565z M501.2,555.5c-2.3,0-4.3-1.9-4.3-4.3c0-2.3,1.9-4.3,4.3-4.3c2.3,0,4.3,1.9,4.3,4.3
	C505.5,553.6,503.6,555.5,501.2,555.5z M509.3,545.6c-2.3,0-4.3-1.9-4.3-4.3c0-2.3,1.9-4.3,4.3-4.3c2.3,0,4.3,1.9,4.3,4.3
	C513.6,543.7,511.7,545.6,509.3,545.6z M516.9,535.2c-2.3,0-4.3-1.9-4.3-4.3c0-2.3,1.9-4.3,4.3-4.3c2.3,0,4.3,1.9,4.3,4.3
	C521.2,533.3,519.3,535.2,516.9,535.2z M524,524.4c-2.3,0-4.3-1.9-4.3-4.3c0-2.3,1.9-4.3,4.3-4.3c2.3,0,4.3,1.9,4.3,4.3
	C528.2,522.5,526.3,524.4,524,524.4z M530.5,513.3c-2.3,0-4.3-1.9-4.3-4.3c0-2.3,1.9-4.3,4.3-4.3c2.3,0,4.3,1.9,4.3,4.3
	C534.7,511.4,532.8,513.3,530.5,513.3z M536.4,501.8c-2.3,0-4.3-1.9-4.3-4.3c0-2.3,1.9-4.3,4.3-4.3c2.3,0,4.3,1.9,4.3,4.3
	C540.6,499.9,538.7,501.8,536.4,501.8z M541.7,490c-2.3,0-4.3-1.9-4.3-4.3c0-2.3,1.9-4.3,4.3-4.3c2.3,0,4.3,1.9,4.3,4.3
	C546,488.1,544.1,490,541.7,490z M546.4,477.8c-2.3,0-4.3-1.9-4.3-4.3c0-2.3,1.9-4.3,4.3-4.3c2.3,0,4.3,1.9,4.3,4.3
	C550.7,475.9,548.8,477.8,546.4,477.8z M550.5,465.4c-2.3,0-4.3-1.9-4.3-4.3c0-2.3,1.9-4.3,4.3-4.3c2.3,0,4.3,1.9,4.3,4.3
	C554.8,463.5,552.9,465.4,550.5,465.4z M554,452.7c-2.3,0-4.3-1.9-4.3-4.3c0-2.3,1.9-4.3,4.3-4.3c2.3,0,4.3,1.9,4.3,4.3
	C558.2,450.8,556.3,452.7,554,452.7z M556.8,439.7c-2.3,0-4.3-1.9-4.3-4.3c0-2.3,1.9-4.3,4.3-4.3c2.3,0,4.3,1.9,4.3,4.3
	C561,437.8,559.1,439.7,556.8,439.7z M558.9,426.4c-2.3,0-4.3-1.9-4.3-4.3c0-2.3,1.9-4.3,4.3-4.3c2.3,0,4.3,1.9,4.3,4.3
	C563.1,424.5,561.2,426.4,558.9,426.4z M560.2,413c-2.3,0-4.3-1.9-4.3-4.3c0-2.3,1.9-4.3,4.3-4.3c2.3,0,4.3,1.9,4.3,4.3
	C564.5,411.1,562.6,413,560.2,413z"/>
</svg>
